<?xml version="1.0" encoding="UTF-8"?><svg id="uuid-c3cd3d95-0a79-48bf-9168-7c98e6ac48f8" xmlns="http://www.w3.org/2000/svg" viewBox="0 0 800 800"><path d="m400,32.5c-101.53,0-183.83,82.3-183.83,183.83v106.17c0,16.71,5.72,31.7,17.81,38.68h0l166.03,95.85,166.03-95.85h0c12.09-6.98,17.81-21.97,17.81-38.68v-106.17c0-101.53-82.3-183.83-183.83-183.83Z" style="fill:#666; stroke-width:0px;"/><path d="m28.73,675.55c50.77,87.93,163.2,118.05,251.12,67.29l91.96-53.08c14.47-8.36,24.59-20.8,24.59-34.77h0v-191.7s-166.03-95.86-166.03-95.86h0c-12.09-6.97-27.93-4.43-42.4,3.92l-91.96,53.09c-87.92,50.77-118.05,163.19-67.29,251.12Z" style="fill:red; stroke-width:0px;"/><path d="m771.27,675.55c50.77-87.93,20.64-200.35-67.29-251.12l-91.95-53.09c-14.47-8.35-30.31-10.9-42.4-3.92h0l-166.01,95.86v191.7h0c0,13.95,10.13,26.41,24.59,34.77l91.96,53.09c87.92,50.75,200.35,20.64,251.12-67.3Z" style="fill:#333; stroke-width:0px;"/><circle cx="400" cy="461.2" r="109.29" transform="translate(-208.96 417.93) rotate(-45)" style="fill:#fff; stroke-width:0px;"/><path d="m277.35,184.43c-4.37,0-7.7-1.22-9.99-3.65-2.29-2.43-3.43-5.88-3.43-10.36,0-2.22.35-4.21,1.05-5.96.7-1.75,1.65-3.22,2.87-4.42,1.22-1.2,2.66-2.11,4.35-2.74,1.68-.62,3.5-.93,5.47-.93,1.14,0,2.17.08,3.1.25.93.17,1.75.36,2.44.58.7.22,1.28.45,1.75.68.47.23.8.41,1.01.54l-1.75,4.89c-.83-.44-1.79-.81-2.89-1.12-1.1-.31-2.35-.47-3.74-.47-.93,0-1.84.16-2.74.47-.89.31-1.68.81-2.37,1.49s-1.24,1.57-1.65,2.66c-.41,1.09-.62,2.41-.62,3.96,0,1.24.14,2.4.41,3.47s.71,2,1.32,2.77c.61.78,1.4,1.39,2.39,1.84.98.45,2.17.68,3.57.68.88,0,1.67-.05,2.37-.16.7-.1,1.32-.23,1.86-.37.54-.14,1.02-.3,1.44-.48.41-.18.79-.35,1.13-.5l1.67,4.85c-.85.52-2.06.98-3.61,1.4s-3.35.62-5.39.62Z" style="fill:#fff; stroke-width:0px;"/><path d="m306.76,183.19c-.98.28-2.25.55-3.8.8-1.55.25-3.18.37-4.89.37s-3.17-.23-4.33-.7c-1.15-.47-2.06-1.12-2.73-1.96-.67-.84-1.15-1.84-1.44-3.01-.28-1.16-.43-2.44-.43-3.84v-11.37h5.78v10.67c0,1.86.25,3.21.74,4.04s1.41,1.24,2.75,1.24c.41,0,.85-.02,1.32-.06.47-.04.88-.08,1.24-.14v-15.75h5.78v19.71Z" style="fill:#fff; stroke-width:0px;"/><path d="m318.05,179.73c1.06,0,1.81-.1,2.25-.31.44-.21.66-.61.66-1.2,0-.47-.29-.87-.85-1.22-.57-.35-1.44-.74-2.6-1.18-.91-.34-1.73-.69-2.46-1.05-.74-.36-1.36-.8-1.88-1.3-.52-.5-.92-1.11-1.2-1.8-.29-.7-.43-1.54-.43-2.52,0-1.91.71-3.43,2.13-4.54,1.42-1.11,3.38-1.67,5.86-1.67,1.24,0,2.43.11,3.57.33,1.14.22,2.04.46,2.72.72l-1.01,4.5c-.67-.23-1.4-.44-2.19-.62-.79-.18-1.68-.27-2.66-.27-1.81,0-2.72.5-2.72,1.51,0,.23.04.44.12.62.08.18.23.36.47.52.23.17.55.35.95.55.4.2.91.41,1.53.65,1.27.47,2.31.93,3.14,1.39.83.46,1.48.95,1.96,1.48.48.53.81,1.12,1.01,1.76s.29,1.39.29,2.24c0,2.01-.76,3.54-2.27,4.57-1.51,1.03-3.65,1.55-6.42,1.55-1.81,0-3.32-.15-4.52-.47s-2.04-.57-2.5-.78l.97-4.69c.98.39,1.99.69,3.03.91,1.03.22,2.06.33,3.06.33Z" style="fill:#fff; stroke-width:0px;"/><path d="m330.81,158.4l5.78-.93v6.01h6.94v4.81h-6.94v7.18c0,1.22.21,2.19.64,2.91.43.72,1.29,1.09,2.58,1.09.62,0,1.26-.06,1.92-.17.66-.12,1.26-.28,1.8-.48l.81,4.5c-.7.29-1.47.53-2.33.74-.85.21-1.9.31-3.14.31-1.58,0-2.88-.21-3.92-.64-1.03-.43-1.86-1.02-2.48-1.78-.62-.76-1.05-1.69-1.3-2.77-.25-1.09-.37-2.29-.37-3.61v-17.15Z" style="fill:#fff; stroke-width:0px;"/><path d="m366.54,173.64c0,1.6-.23,3.07-.7,4.4-.47,1.33-1.14,2.47-2.02,3.41-.88.94-1.93,1.67-3.16,2.19-1.23.52-2.61.78-4.13.78s-2.86-.26-4.09-.78c-1.23-.52-2.28-1.25-3.16-2.19-.88-.94-1.56-2.08-2.06-3.41-.49-1.33-.74-2.8-.74-4.4s.25-3.06.76-4.38c.5-1.32,1.2-2.44,2.09-3.38s1.95-1.65,3.18-2.17c1.23-.52,2.57-.78,4.02-.78s2.83.26,4.05.78c1.23.52,2.28,1.24,3.16,2.17.88.93,1.56,2.06,2.06,3.38.49,1.32.74,2.78.74,4.38Zm-5.9,0c0-1.78-.36-3.19-1.07-4.21-.71-1.02-1.73-1.53-3.05-1.53s-2.34.51-3.06,1.53c-.72,1.02-1.09,2.42-1.09,4.21s.36,3.2,1.09,4.25c.72,1.05,1.75,1.57,3.06,1.57s2.33-.52,3.05-1.57c.71-1.05,1.07-2.46,1.07-4.25Z" style="fill:#fff; stroke-width:0px;"/><path d="m382.21,173.06c0-1.86-.24-3.18-.72-3.96s-1.3-1.16-2.46-1.16c-.36,0-.74.02-1.12.06-.39.04-.76.08-1.12.14v15.75h-5.78v-19.71c.49-.13,1.07-.26,1.73-.41.66-.14,1.36-.27,2.1-.39.74-.12,1.49-.21,2.27-.27.78-.06,1.54-.1,2.29-.1,1.47,0,2.67.19,3.59.56.92.38,1.67.82,2.27,1.34.83-.59,1.78-1.06,2.85-1.4,1.07-.34,2.06-.5,2.97-.5,1.63,0,2.97.23,4.02.68,1.05.45,1.88,1.09,2.5,1.92.62.83,1.05,1.81,1.28,2.95.23,1.14.35,2.41.35,3.8v11.52h-5.78v-10.82c0-1.86-.24-3.18-.72-3.96-.48-.78-1.3-1.16-2.46-1.16-.31,0-.74.08-1.3.23s-1.02.35-1.38.58c.18.6.3,1.22.35,1.88.05.66.08,1.36.08,2.11v11.13h-5.78v-10.82Z" style="fill:#fff; stroke-width:0px;"/><path d="m403.47,173.84c0-1.81.28-3.39.83-4.75.56-1.36,1.29-2.49,2.19-3.39.91-.91,1.95-1.59,3.12-2.06s2.39-.7,3.63-.7c2.9,0,5.18.89,6.87,2.66,1.68,1.77,2.52,4.38,2.52,7.82,0,.34-.01.71-.04,1.11-.03.4-.05.76-.08,1.07h-13.11c.13,1.19.68,2.13,1.67,2.83.98.7,2.3,1.05,3.96,1.05,1.06,0,2.1-.1,3.12-.29,1.02-.19,1.86-.43,2.5-.72l.78,4.69c-.31.16-.72.31-1.24.47-.52.16-1.09.29-1.73.41-.63.12-1.31.21-2.04.29-.72.08-1.45.12-2.17.12-1.84,0-3.43-.27-4.79-.81-1.36-.54-2.48-1.29-3.38-2.23-.89-.94-1.55-2.06-1.98-3.36-.43-1.29-.64-2.69-.64-4.19Zm13.58-2.21c-.03-.49-.11-.97-.25-1.44-.14-.47-.36-.88-.66-1.24-.3-.36-.67-.66-1.12-.89-.45-.23-1.02-.35-1.69-.35s-1.2.11-1.67.33-.85.51-1.16.87c-.31.36-.55.78-.72,1.26s-.29.96-.37,1.45h7.64Z" style="fill:#fff; stroke-width:0px;"/><path d="m439.4,168.6c-.52-.13-1.12-.27-1.82-.41s-1.45-.21-2.25-.21c-.36,0-.8.03-1.3.1-.5.06-.89.14-1.14.21v15.6h-5.78v-19.32c1.03-.36,2.26-.7,3.67-1.03,1.41-.32,2.98-.48,4.71-.48.31,0,.68.02,1.12.06.44.04.88.09,1.32.16.44.06.88.14,1.32.23.44.09.81.2,1.12.33l-.97,4.77Z" style="fill:#fff; stroke-width:0px;"/><path d="m453.17,183.89v-26.88h18v5.08h-11.95v5.62h10.63v5.08h-10.63v11.1h-6.05Z" style="fill:#fff; stroke-width:0px;"/><path d="m481.37,157.58c0,1.06-.34,1.9-1.03,2.5-.69.61-1.49.91-2.42.91s-1.74-.3-2.42-.91c-.69-.61-1.03-1.44-1.03-2.5s.34-1.89,1.03-2.5c.68-.61,1.49-.91,2.42-.91s1.74.3,2.42.91c.69.61,1.03,1.44,1.03,2.5Zm-.54,26.3h-5.78v-20.41h5.78v20.41Z" style="fill:#fff; stroke-width:0px;"/><path d="m498.56,168.6c-.52-.13-1.12-.27-1.82-.41s-1.45-.21-2.25-.21c-.36,0-.8.03-1.3.1-.5.06-.89.14-1.14.21v15.6h-5.78v-19.32c1.03-.36,2.26-.7,3.67-1.03,1.41-.32,2.98-.48,4.71-.48.31,0,.68.02,1.12.06.44.04.88.09,1.32.16.44.06.88.14,1.32.23.44.09.81.2,1.12.33l-.97,4.77Z" style="fill:#fff; stroke-width:0px;"/><path d="m508.49,179.73c1.06,0,1.81-.1,2.25-.31.44-.21.66-.61.66-1.2,0-.47-.29-.87-.85-1.22-.57-.35-1.44-.74-2.6-1.18-.91-.34-1.73-.69-2.46-1.05-.74-.36-1.37-.8-1.88-1.3-.52-.5-.92-1.11-1.2-1.8-.28-.7-.43-1.54-.43-2.52,0-1.91.71-3.43,2.13-4.54,1.42-1.11,3.38-1.67,5.86-1.67,1.24,0,2.43.11,3.57.33,1.14.22,2.04.46,2.72.72l-1.01,4.5c-.67-.23-1.4-.44-2.19-.62-.79-.18-1.67-.27-2.66-.27-1.81,0-2.72.5-2.72,1.51,0,.23.04.44.12.62.08.18.23.36.47.52.23.17.55.35.95.55.4.2.91.41,1.53.65,1.27.47,2.31.93,3.14,1.39.83.46,1.48.95,1.96,1.48.48.53.81,1.12,1.01,1.76.19.65.29,1.39.29,2.24,0,2.01-.76,3.54-2.27,4.57-1.51,1.03-3.65,1.55-6.42,1.55-1.81,0-3.32-.15-4.52-.47-1.2-.31-2.04-.57-2.5-.78l.97-4.69c.98.39,1.99.69,3.03.91,1.03.22,2.06.33,3.06.33Z" style="fill:#fff; stroke-width:0px;"/><path d="m521.25,158.4l5.78-.93v6.01h6.94v4.81h-6.94v7.18c0,1.22.21,2.19.64,2.91.43.72,1.29,1.09,2.58,1.09.62,0,1.26-.06,1.92-.17s1.26-.28,1.8-.48l.82,4.5c-.7.29-1.47.53-2.33.74-.85.21-1.9.31-3.14.31-1.58,0-2.88-.21-3.92-.64-1.04-.43-1.86-1.02-2.48-1.78-.62-.76-1.05-1.69-1.3-2.77-.25-1.09-.37-2.29-.37-3.61v-17.15Z" style="fill:#fff; stroke-width:0px;"/><path d="m291.03,223.28c-1.26,0-2.41-.21-3.44-.62-1.03-.41-1.92-1.02-2.66-1.81s-1.31-1.77-1.72-2.94c-.41-1.16-.61-2.5-.61-4s.23-2.83.69-4c.46-1.16,1.07-2.14,1.85-2.94s1.68-1.4,2.72-1.81c1.03-.41,2.14-.62,3.31-.62.74,0,1.41.05,2,.15.59.1,1.11.22,1.55.36.44.14.8.28,1.07.41.28.14.47.24.57.31l-.72,2.07c-.16-.1-.38-.22-.67-.34-.29-.12-.62-.24-1-.36-.37-.12-.78-.22-1.22-.3-.44-.08-.88-.12-1.33-.12-.95,0-1.8.16-2.56.49-.76.33-1.41.8-1.94,1.42-.53.62-.94,1.38-1.23,2.26-.28.89-.43,1.88-.43,2.99s.12,2.04.38,2.92c.25.88.62,1.63,1.12,2.26.5.63,1.12,1.12,1.88,1.46.75.35,1.62.52,2.62.52,1.16,0,2.11-.12,2.87-.36.76-.24,1.33-.46,1.71-.65l.65,2.07c-.12.09-.34.19-.65.32-.31.13-.7.25-1.16.38-.47.12-1.01.22-1.63.31-.62.09-1.29.13-2.02.13Z" style="fill:#fff; stroke-width:0px;"/><path d="m309.4,222.5c-.55.14-1.28.28-2.19.44-.9.16-1.95.23-3.14.23-1.03,0-1.91-.15-2.61-.45-.71-.3-1.28-.73-1.71-1.28-.43-.55-.74-1.2-.93-1.95-.19-.75-.28-1.58-.28-2.5v-7.55h2.41v7.03c0,1.64.26,2.81.78,3.52.52.71,1.39,1.06,2.61,1.06.26,0,.53,0,.8-.03.28-.02.53-.04.78-.06.24-.03.46-.05.66-.08s.34-.06.43-.09v-11.35h2.41v13.06Z" style="fill:#fff; stroke-width:0px;"/><path d="m316.66,221.15c.98,0,1.71-.13,2.19-.39.47-.26.71-.67.71-1.24s-.23-1.05-.7-1.4c-.47-.34-1.23-.73-2.3-1.16-.52-.21-1.01-.42-1.49-.63-.47-.22-.88-.47-1.23-.76-.35-.29-.62-.65-.83-1.06-.21-.41-.31-.92-.31-1.53,0-1.19.44-2.13,1.32-2.83s2.08-1.05,3.59-1.05c.38,0,.76.02,1.14.06.38.04.73.1,1.06.16.33.06.62.13.87.19.25.07.44.13.58.18l-.44,2.07c-.26-.14-.66-.28-1.22-.43-.55-.15-1.22-.22-1.99-.22-.67,0-1.26.13-1.76.4-.5.27-.75.69-.75,1.25,0,.29.06.55.17.78.11.22.28.43.52.61s.52.35.87.5c.34.16.76.32,1.24.49.64.24,1.21.48,1.71.71.5.23.93.5,1.28.81.35.31.62.69.81,1.12.19.44.28.98.28,1.62,0,1.24-.46,2.18-1.38,2.82-.92.64-2.24.96-3.94.96-1.19,0-2.12-.1-2.79-.3-.67-.2-1.13-.35-1.37-.45l.44-2.07c.28.1.72.26,1.32.47.6.21,1.4.31,2.41.31Z" style="fill:#fff; stroke-width:0px;"/><path d="m327.32,209.44h5.09v2.02h-5.09v6.21c0,.67.05,1.23.15,1.67.1.44.26.78.47,1.03s.47.43.78.53c.31.1.67.16,1.09.16.72,0,1.31-.08,1.75-.25.44-.16.75-.28.92-.35l.47,1.99c-.24.12-.66.27-1.27.45-.6.18-1.29.27-2.07.27-.91,0-1.67-.12-2.26-.35-.59-.23-1.07-.58-1.44-1.05-.36-.47-.62-1.04-.76-1.72-.15-.68-.22-1.47-.22-2.37v-12l2.41-.41v4.16Z" style="fill:#fff; stroke-width:0px;"/><path d="m346.98,216.16c0,1.07-.16,2.03-.47,2.9-.31.86-.75,1.6-1.31,2.22-.56.62-1.23,1.1-2,1.44-.78.34-1.62.5-2.53.5s-1.76-.17-2.53-.5c-.78-.34-1.44-.81-2-1.44-.56-.62-1-1.36-1.31-2.22-.31-.86-.47-1.83-.47-2.9s.16-2.01.47-2.88c.31-.87.75-1.62,1.31-2.24.56-.62,1.23-1.1,2-1.44.78-.34,1.62-.5,2.53-.5s1.76.17,2.53.5c.78.34,1.44.81,2,1.44.56.62,1,1.37,1.31,2.24.31.87.47,1.83.47,2.88Zm-2.51,0c0-1.52-.34-2.72-1.02-3.61-.68-.89-1.61-1.33-2.78-1.33s-2.1.44-2.78,1.33c-.68.89-1.02,2.09-1.02,3.61s.34,2.72,1.02,3.61c.68.89,1.61,1.33,2.78,1.33s2.1-.44,2.78-1.33c.68-.89,1.02-2.09,1.02-3.61Z" style="fill:#fff; stroke-width:0px;"/><path d="m350.36,209.83c.55-.14,1.28-.28,2.19-.44.91-.16,1.95-.23,3.14-.23.86,0,1.59.12,2.17.35.59.23,1.08.57,1.47,1.02.12-.09.31-.21.57-.36.26-.16.58-.31.96-.45.38-.15.8-.28,1.27-.39.47-.11.97-.17,1.5-.17,1.03,0,1.88.15,2.53.45s1.17.73,1.54,1.28c.37.55.62,1.21.75,1.97.13.76.19,1.59.19,2.48v7.55h-2.41v-7.03c0-.79-.04-1.47-.12-2.04-.08-.57-.22-1.04-.44-1.42-.22-.38-.51-.66-.88-.84-.37-.18-.85-.27-1.44-.27-.81,0-1.48.11-2,.32-.53.22-.88.41-1.07.58.14.45.24.94.31,1.47.07.53.1,1.1.1,1.68v7.55h-2.41v-7.03c0-.79-.04-1.47-.13-2.04-.09-.57-.24-1.04-.45-1.42-.22-.38-.51-.66-.88-.84-.37-.18-.84-.27-1.41-.27-.24,0-.5,0-.78.03-.28.02-.54.04-.79.06-.25.03-.48.06-.69.09-.21.03-.35.06-.41.08v11.35h-2.41v-13.06Z" style="fill:#fff; stroke-width:0px;"/><path d="m371.88,216.19c0-1.19.17-2.23.52-3.12.34-.89.8-1.62,1.37-2.21.57-.59,1.22-1.03,1.97-1.32.74-.29,1.5-.44,2.28-.44,1.81,0,3.2.56,4.16,1.69.97,1.13,1.45,2.85,1.45,5.16v.4c0,.16,0,.31-.03.45h-9.21c.1,1.4.51,2.46,1.22,3.18.71.72,1.81,1.09,3.31,1.09.84,0,1.56-.07,2.13-.22.58-.15,1.01-.29,1.31-.43l.34,2.02c-.29.15-.81.32-1.54.49s-1.56.26-2.5.26c-1.17,0-2.19-.18-3.04-.53-.85-.35-1.56-.84-2.11-1.46s-.96-1.36-1.23-2.21c-.27-.85-.4-1.79-.4-2.81Zm9.23-1.32c.02-1.09-.25-1.98-.81-2.68-.56-.7-1.33-1.05-2.31-1.05-.55,0-1.04.11-1.46.32-.42.22-.78.5-1.07.84-.29.35-.52.74-.69,1.19s-.27.9-.32,1.37h6.67Z" style="fill:#fff; stroke-width:0px;"/><path d="m392.06,209.15c.21,0,.44.01.71.04.27.03.53.06.79.1.26.04.5.09.71.13.22.04.38.08.48.12l-.41,2.1c-.19-.07-.5-.15-.94-.25-.44-.09-1-.14-1.69-.14-.45,0-.89.05-1.33.14-.44.09-.73.16-.87.19v11.3h-2.41v-12.88c.57-.21,1.28-.4,2.12-.58.84-.18,1.79-.27,2.84-.27Z" style="fill:#fff; stroke-width:0px;"/><path d="m399.89,203.49v.56c0,.18,0,.36-.03.53-.07.9-.27,1.78-.59,2.65s-.72,1.69-1.19,2.47l-1.86-.59c.36-.78.63-1.55.81-2.31.18-.77.27-1.49.27-2.16,0-.17,0-.36-.01-.56s-.02-.39-.04-.58h2.64Z" style="fill:#fff; stroke-width:0px;"/><path d="m406.64,221.15c.98,0,1.71-.13,2.19-.39.47-.26.71-.67.71-1.24s-.23-1.05-.7-1.4c-.46-.34-1.23-.73-2.3-1.16-.52-.21-1.01-.42-1.49-.63-.47-.22-.88-.47-1.23-.76-.35-.29-.62-.65-.83-1.06-.21-.41-.31-.92-.31-1.53,0-1.19.44-2.13,1.32-2.83.88-.7,2.08-1.05,3.59-1.05.38,0,.76.02,1.14.06.38.04.73.1,1.06.16.33.06.62.13.87.19.25.07.44.13.58.18l-.44,2.07c-.26-.14-.66-.28-1.22-.43s-1.21-.22-1.99-.22c-.67,0-1.26.13-1.76.4-.5.27-.75.69-.75,1.25,0,.29.06.55.17.78.11.22.29.43.52.61s.52.35.87.5.76.32,1.24.49c.64.24,1.21.48,1.71.71s.93.5,1.28.81c.35.31.62.69.82,1.12.19.44.28.98.28,1.62,0,1.24-.46,2.18-1.38,2.82-.92.64-2.24.96-3.94.96-1.19,0-2.12-.1-2.79-.3-.67-.2-1.13-.35-1.37-.45l.44-2.07c.28.1.71.26,1.32.47.6.21,1.41.31,2.41.31Z" style="fill:#fff; stroke-width:0px;"/><path d="m421.02,209.83c.55-.14,1.28-.28,2.2-.44.91-.16,1.97-.23,3.16-.23,1.07,0,1.96.15,2.66.45s1.27.72,1.69,1.27c.42.54.72,1.19.89,1.95.17.76.26,1.6.26,2.51v7.55h-2.41v-7.03c0-.83-.06-1.53-.17-2.12-.11-.59-.3-1.06-.56-1.42-.26-.36-.6-.62-1.03-.79-.43-.16-.97-.25-1.6-.25-.26,0-.53,0-.8.03-.28.02-.54.04-.79.06s-.47.06-.67.09c-.2.03-.34.06-.43.08v11.35h-2.41v-13.06Z" style="fill:#fff; stroke-width:0px;"/><path d="m435.12,216.19c0-1.19.17-2.23.52-3.12s.8-1.62,1.37-2.21c.57-.59,1.22-1.03,1.97-1.32.74-.29,1.5-.44,2.28-.44,1.81,0,3.2.56,4.16,1.69.97,1.13,1.45,2.85,1.45,5.16v.4c0,.16,0,.31-.03.45h-9.21c.1,1.4.51,2.46,1.21,3.18.71.72,1.81,1.09,3.31,1.09.84,0,1.56-.07,2.13-.22.58-.15,1.01-.29,1.31-.43l.34,2.02c-.29.15-.81.32-1.54.49s-1.56.26-2.5.26c-1.17,0-2.19-.18-3.04-.53-.85-.35-1.56-.84-2.11-1.46s-.96-1.36-1.23-2.21-.4-1.79-.4-2.81Zm9.23-1.32c.02-1.09-.25-1.98-.82-2.68s-1.33-1.05-2.31-1.05c-.55,0-1.04.11-1.46.32-.42.22-.78.5-1.07.84-.29.35-.52.74-.68,1.19-.16.45-.27.9-.32,1.37h6.67Z" style="fill:#fff; stroke-width:0px;"/><path d="m449.57,216.19c0-1.19.17-2.23.52-3.12s.8-1.62,1.37-2.21c.57-.59,1.22-1.03,1.97-1.32.74-.29,1.5-.44,2.28-.44,1.81,0,3.2.56,4.16,1.69.97,1.13,1.45,2.85,1.45,5.16v.4c0,.16,0,.31-.03.45h-9.21c.1,1.4.51,2.46,1.21,3.18.71.72,1.81,1.09,3.31,1.09.84,0,1.56-.07,2.13-.22.58-.15,1.01-.29,1.31-.43l.34,2.02c-.29.15-.81.32-1.54.49s-1.56.26-2.5.26c-1.17,0-2.19-.18-3.04-.53-.85-.35-1.56-.84-2.11-1.46s-.96-1.36-1.23-2.21-.4-1.79-.4-2.81Zm9.23-1.32c.02-1.09-.25-1.98-.82-2.68s-1.33-1.05-2.31-1.05c-.55,0-1.04.11-1.46.32-.42.22-.78.5-1.07.84-.29.35-.52.74-.68,1.19-.16.45-.27.9-.32,1.37h6.67Z" style="fill:#fff; stroke-width:0px;"/><path d="m473.47,203.23l2.41-.41v19.68c-.55.16-1.26.31-2.12.47-.86.16-1.85.23-2.97.23-1.03,0-1.97-.16-2.79-.49-.83-.33-1.54-.79-2.12-1.4s-1.04-1.34-1.36-2.21c-.32-.87-.48-1.85-.48-2.94s.13-1.98.4-2.84.66-1.6,1.18-2.22c.52-.62,1.15-1.1,1.9-1.45.75-.34,1.61-.52,2.57-.52.78,0,1.46.1,2.06.31.6.21,1.04.41,1.33.59v-6.8Zm0,9.05c-.29-.24-.71-.47-1.27-.7-.55-.22-1.16-.34-1.81-.34-.69,0-1.28.13-1.77.38-.49.25-.89.6-1.2,1.03-.31.44-.53.96-.67,1.56-.14.6-.21,1.25-.21,1.94,0,1.57.39,2.78,1.16,3.63.78.85,1.81,1.28,3.1,1.28.65,0,1.2-.03,1.64-.09.44-.06.78-.12,1.02-.19v-8.51Z" style="fill:#fff; stroke-width:0px;"/><path d="m483.14,221.15c.98,0,1.71-.13,2.19-.39.47-.26.71-.67.71-1.24s-.23-1.05-.7-1.4c-.46-.34-1.23-.73-2.3-1.16-.52-.21-1.01-.42-1.49-.63-.47-.22-.88-.47-1.23-.76-.35-.29-.62-.65-.83-1.06-.21-.41-.31-.92-.31-1.53,0-1.19.44-2.13,1.32-2.83.88-.7,2.08-1.05,3.59-1.05.38,0,.76.02,1.14.06.38.04.73.1,1.06.16.33.06.62.13.87.19.25.07.44.13.58.18l-.44,2.07c-.26-.14-.66-.28-1.22-.43s-1.21-.22-1.99-.22c-.67,0-1.26.13-1.76.4-.5.27-.75.69-.75,1.25,0,.29.06.55.17.78.11.22.29.43.52.61s.52.35.87.5.76.32,1.24.49c.64.24,1.21.48,1.71.71s.93.5,1.28.81c.35.31.62.69.82,1.12.19.44.28.98.28,1.62,0,1.24-.46,2.18-1.38,2.82-.92.64-2.24.96-3.94.96-1.19,0-2.12-.1-2.79-.3-.67-.2-1.13-.35-1.37-.45l.44-2.07c.28.1.71.26,1.32.47.6.21,1.41.31,2.41.31Z" style="fill:#fff; stroke-width:0px;"/><path d="m498.71,207.01c-.43,0-.8-.14-1.1-.43-.3-.28-.45-.67-.45-1.15s.15-.87.45-1.15c.3-.28.67-.43,1.1-.43s.8.14,1.1.43c.3.28.45.67.45,1.15s-.15.87-.45,1.15c-.3.28-.67.43-1.1.43Zm1.22,15.88h-2.41v-13.45h2.41v13.45Z" style="fill:#fff; stroke-width:0px;"/><path d="m504.07,209.83c.55-.14,1.28-.28,2.2-.44.91-.16,1.97-.23,3.16-.23,1.07,0,1.96.15,2.66.45s1.27.72,1.69,1.27c.42.54.72,1.19.89,1.95.17.76.26,1.6.26,2.51v7.55h-2.41v-7.03c0-.83-.06-1.53-.17-2.12-.11-.59-.3-1.06-.56-1.42-.26-.36-.6-.62-1.03-.79-.43-.16-.97-.25-1.6-.25-.26,0-.53,0-.8.03-.28.02-.54.04-.79.06s-.47.06-.67.09c-.2.03-.34.06-.43.08v11.35h-2.41v-13.06Z" style="fill:#fff; stroke-width:0px;"/><path d="m314.83,254.31c-1.26,0-2.41-.21-3.44-.62-1.03-.41-1.92-1.02-2.66-1.81s-1.31-1.77-1.72-2.94c-.41-1.16-.61-2.5-.61-4s.23-2.83.69-4c.46-1.16,1.07-2.14,1.85-2.94s1.68-1.4,2.72-1.81c1.03-.41,2.14-.62,3.31-.62.74,0,1.41.05,2,.15.59.1,1.11.22,1.55.36.44.14.8.28,1.07.41.28.14.47.24.57.31l-.72,2.07c-.16-.1-.38-.22-.67-.34-.29-.12-.62-.24-1-.36-.37-.12-.78-.22-1.22-.3-.44-.08-.88-.12-1.33-.12-.95,0-1.8.16-2.56.49-.76.33-1.41.8-1.94,1.42-.53.62-.94,1.38-1.23,2.26-.28.89-.43,1.88-.43,2.99s.12,2.04.38,2.92c.25.88.62,1.63,1.12,2.26.5.63,1.12,1.12,1.88,1.46.75.35,1.62.52,2.62.52,1.16,0,2.11-.12,2.87-.36.76-.24,1.33-.46,1.71-.65l.65,2.07c-.12.09-.34.19-.65.32-.31.13-.7.25-1.16.38-.47.12-1.01.22-1.63.31-.62.09-1.29.13-2.02.13Z" style="fill:#fff; stroke-width:0px;"/><path d="m334.48,247.2c0,1.07-.16,2.03-.47,2.9-.31.86-.75,1.6-1.31,2.22-.56.62-1.23,1.1-2,1.44-.78.34-1.62.5-2.53.5s-1.76-.17-2.53-.5c-.78-.34-1.44-.81-2-1.44-.56-.62-1-1.36-1.31-2.22-.31-.86-.47-1.83-.47-2.9s.16-2.01.47-2.88c.31-.87.75-1.62,1.31-2.24.56-.62,1.23-1.1,2-1.44.78-.34,1.62-.5,2.53-.5s1.76.17,2.53.5c.78.34,1.44.81,2,1.44.56.62,1,1.37,1.31,2.24.31.87.47,1.83.47,2.88Zm-2.51,0c0-1.52-.34-2.72-1.02-3.61-.68-.89-1.61-1.33-2.78-1.33s-2.1.44-2.78,1.33c-.68.89-1.02,2.09-1.02,3.61s.34,2.72,1.02,3.61c.68.89,1.61,1.33,2.78,1.33s2.1-.44,2.78-1.33c.68-.89,1.02-2.09,1.02-3.61Z" style="fill:#fff; stroke-width:0px;"/><path d="m341,252.19c.98,0,1.71-.13,2.19-.39.47-.26.71-.67.71-1.24s-.23-1.05-.7-1.4c-.47-.34-1.23-.73-2.3-1.16-.52-.21-1.01-.42-1.49-.63-.47-.22-.88-.47-1.23-.76-.35-.29-.62-.65-.83-1.06-.21-.41-.31-.92-.31-1.53,0-1.19.44-2.13,1.32-2.83s2.08-1.05,3.59-1.05c.38,0,.76.02,1.14.06.38.04.73.1,1.06.16.33.06.62.13.87.19.25.07.44.13.58.18l-.44,2.07c-.26-.14-.66-.28-1.22-.43-.55-.15-1.22-.22-1.99-.22-.67,0-1.26.13-1.76.4-.5.27-.75.69-.75,1.25,0,.29.06.55.17.78.11.22.28.43.52.61s.52.35.87.5c.34.16.76.32,1.24.49.64.24,1.21.48,1.71.71.5.23.93.5,1.28.81.35.31.62.69.81,1.12.19.44.28.98.28,1.62,0,1.24-.46,2.18-1.38,2.82-.92.64-2.24.96-3.94.96-1.19,0-2.12-.1-2.79-.3-.67-.2-1.13-.35-1.37-.45l.44-2.07c.28.1.72.26,1.32.47.6.21,1.4.31,2.41.31Z" style="fill:#fff; stroke-width:0px;"/><path d="m351.66,240.47h5.09v2.02h-5.09v6.21c0,.67.05,1.23.15,1.67.1.44.26.78.47,1.03s.47.43.78.53c.31.1.67.16,1.09.16.72,0,1.31-.08,1.75-.25.44-.16.75-.28.92-.35l.47,1.99c-.24.12-.66.27-1.27.45-.6.18-1.29.27-2.07.27-.91,0-1.67-.12-2.26-.35-.59-.23-1.07-.58-1.44-1.05-.36-.47-.62-1.04-.76-1.72-.15-.68-.22-1.47-.22-2.37v-12l2.41-.41v4.16Z" style="fill:#fff; stroke-width:0px;"/><path d="m362.62,250.98c.02.14.03.27.03.4v.4c0,1.09-.16,2.16-.48,3.22s-.75,2.07-1.31,3.04l-1.86-.59c.43-.88.72-1.77.85-2.68.14-.9.21-1.75.21-2.55,0-.22,0-.44-.01-.65,0-.21-.02-.4-.04-.59h2.61Z" style="fill:#fff; stroke-width:0px;"/><path d="m376.74,252.14c2.62,0,3.93-.9,3.93-2.69,0-.55-.12-1.02-.35-1.41-.23-.39-.55-.72-.94-1.01-.4-.28-.85-.53-1.36-.74-.51-.21-1.05-.41-1.62-.62-.66-.22-1.28-.48-1.86-.76-.59-.28-1.1-.62-1.53-1.01-.43-.39-.77-.85-1.02-1.38-.25-.53-.38-1.18-.38-1.94,0-1.57.53-2.79,1.6-3.67,1.07-.88,2.54-1.32,4.42-1.32,1.09,0,2.07.12,2.96.35.89.23,1.54.49,1.95.76l-.8,2.04c-.36-.22-.9-.44-1.62-.66-.72-.22-1.55-.32-2.5-.32-.48,0-.93.05-1.34.16-.41.1-.78.26-1.09.47s-.56.47-.74.79c-.18.32-.27.69-.27,1.12,0,.48.09.89.28,1.22.19.33.46.62.8.87.34.25.75.48,1.2.69.46.21.96.41,1.51.62.78.31,1.49.62,2.13.93.65.31,1.21.68,1.68,1.11.47.43.84.94,1.1,1.54.26.59.39,1.31.39,2.16,0,1.57-.57,2.78-1.72,3.62-1.15.85-2.76,1.27-4.85,1.27-.71,0-1.36-.05-1.95-.14s-1.12-.21-1.59-.34c-.47-.13-.87-.27-1.2-.41-.34-.15-.6-.27-.79-.38l.75-2.07c.4.22,1,.47,1.81.75.81.28,1.8.41,2.97.41Z" style="fill:#fff; stroke-width:0px;"/><path d="m398.03,247.22c0,1.02-.13,1.96-.4,2.82-.27.86-.66,1.6-1.18,2.22-.52.62-1.15,1.1-1.9,1.45s-1.61.52-2.57.52c-.78,0-1.46-.1-2.06-.31-.59-.21-1.04-.4-1.33-.59v5.38h-2.41v-17.82c.57-.14,1.28-.29,2.13-.45.85-.16,1.84-.25,2.96-.25,1.03,0,1.97.16,2.79.49.83.33,1.53.79,2.12,1.4.59.6,1.04,1.34,1.36,2.21.32.87.48,1.85.48,2.94Zm-2.51,0c0-1.57-.39-2.78-1.16-3.62s-1.81-1.27-3.1-1.27c-.72,0-1.29.03-1.69.08-.41.05-.73.11-.97.18v8.48c.29.24.72.47,1.27.7.55.22,1.15.34,1.81.34.69,0,1.28-.12,1.77-.38.49-.25.89-.59,1.2-1.03.31-.44.53-.96.67-1.55.14-.59.21-1.24.21-1.93Z" style="fill:#fff; stroke-width:0px;"/><path d="m400.67,247.22c0-1.19.17-2.23.52-3.12.34-.89.8-1.62,1.37-2.21.57-.59,1.22-1.03,1.96-1.32.74-.29,1.5-.44,2.28-.44,1.81,0,3.2.56,4.16,1.69.97,1.13,1.45,2.85,1.45,5.16v.4c0,.16,0,.31-.03.45h-9.21c.1,1.4.51,2.46,1.21,3.18.71.72,1.81,1.09,3.31,1.09.84,0,1.56-.07,2.13-.22.58-.15,1.01-.29,1.31-.43l.34,2.02c-.29.15-.81.32-1.54.49s-1.56.26-2.49.26c-1.17,0-2.19-.18-3.04-.53-.85-.35-1.56-.84-2.11-1.46-.55-.62-.96-1.36-1.23-2.21s-.4-1.79-.4-2.81Zm9.23-1.32c.02-1.09-.26-1.98-.82-2.68s-1.33-1.05-2.31-1.05c-.55,0-1.04.11-1.46.32s-.78.5-1.07.84c-.29.35-.52.74-.68,1.19-.16.45-.27.9-.32,1.37h6.67Z" style="fill:#fff; stroke-width:0px;"/><path d="m415.12,247.22c0-1.19.17-2.23.52-3.12s.8-1.62,1.37-2.21c.57-.59,1.22-1.03,1.97-1.32.74-.29,1.5-.44,2.28-.44,1.81,0,3.2.56,4.16,1.69.97,1.13,1.45,2.85,1.45,5.16v.4c0,.16,0,.31-.03.45h-9.21c.1,1.4.51,2.46,1.21,3.18.71.72,1.81,1.09,3.31,1.09.84,0,1.56-.07,2.13-.22.58-.15,1.01-.29,1.31-.43l.34,2.02c-.29.15-.81.32-1.54.49s-1.56.26-2.5.26c-1.17,0-2.19-.18-3.04-.53-.85-.35-1.56-.84-2.11-1.46s-.96-1.36-1.23-2.21-.4-1.79-.4-2.81Zm9.23-1.32c.02-1.09-.25-1.98-.82-2.68s-1.33-1.05-2.31-1.05c-.55,0-1.04.11-1.46.32-.42.22-.78.5-1.07.84-.29.35-.52.74-.68,1.19-.16.45-.27.9-.32,1.37h6.67Z" style="fill:#fff; stroke-width:0px;"/><path d="m439.02,234.27l2.41-.41v19.68c-.55.16-1.26.31-2.12.47-.86.16-1.85.23-2.97.23-1.03,0-1.97-.16-2.79-.49-.83-.33-1.54-.79-2.12-1.4s-1.04-1.34-1.36-2.21c-.32-.87-.48-1.85-.48-2.94s.13-1.98.4-2.84.66-1.6,1.18-2.22c.52-.62,1.15-1.1,1.9-1.45.75-.34,1.61-.52,2.57-.52.78,0,1.46.1,2.06.31.6.21,1.04.41,1.33.59v-6.8Zm0,9.05c-.29-.24-.71-.47-1.27-.7-.55-.22-1.16-.34-1.81-.34-.69,0-1.28.13-1.77.38-.49.25-.89.6-1.2,1.03-.31.44-.53.96-.67,1.56-.14.6-.21,1.25-.21,1.94,0,1.57.39,2.78,1.16,3.63.78.85,1.81,1.28,3.1,1.28.65,0,1.2-.03,1.64-.09.44-.06.78-.12,1.02-.19v-8.51Z" style="fill:#fff; stroke-width:0px;"/><path d="m455.88,240.14c.97,0,1.78.13,2.44.38.66.25,1.2.6,1.6,1.06.4.46.69,1,.87,1.63.17.63.26,1.32.26,2.08v8.41c-.21.03-.5.08-.87.14-.37.06-.79.12-1.25.17s-.97.1-1.51.14-1.08.06-1.62.06c-.76,0-1.46-.08-2.1-.23s-1.19-.4-1.66-.74c-.46-.34-.83-.78-1.09-1.33-.26-.55-.39-1.22-.39-1.99s.15-1.38.45-1.91c.3-.53.71-.97,1.23-1.29.52-.33,1.12-.57,1.81-.72s1.41-.23,2.17-.23c.24,0,.49.01.75.04.26.03.5.06.74.1.23.04.43.08.61.12.17.03.29.06.36.08v-.67c0-.4-.04-.79-.13-1.18-.09-.39-.24-.73-.46-1.03-.22-.3-.53-.54-.92-.72-.39-.18-.89-.27-1.51-.27-.79,0-1.49.06-2.08.17s-1.04.23-1.33.35l-.28-1.99c.31-.14.83-.27,1.55-.4s1.51-.19,2.35-.19Zm.21,12.05c.57,0,1.07-.01,1.51-.04s.81-.07,1.1-.14v-4.01c-.17-.09-.45-.16-.84-.22-.39-.06-.86-.09-1.41-.09-.36,0-.75.03-1.15.08s-.78.16-1.11.32c-.34.16-.62.39-.84.67-.22.28-.34.66-.34,1.12,0,.86.28,1.46.83,1.8.55.34,1.3.5,2.25.5Z" style="fill:#fff; stroke-width:0px;"/><path d="m465.04,240.86c.55-.14,1.28-.28,2.2-.44.91-.16,1.97-.23,3.16-.23,1.07,0,1.96.15,2.66.45s1.27.72,1.69,1.27c.42.54.72,1.19.89,1.95.17.76.26,1.6.26,2.51v7.55h-2.41v-7.03c0-.83-.06-1.53-.17-2.12-.11-.59-.3-1.06-.56-1.42-.26-.36-.6-.62-1.03-.79-.43-.16-.97-.25-1.6-.25-.26,0-.53,0-.8.03-.28.02-.54.04-.79.06s-.47.06-.67.09c-.2.03-.34.06-.43.08v11.35h-2.41v-13.06Z" style="fill:#fff; stroke-width:0px;"/><path d="m488.57,234.27l2.41-.41v19.68c-.55.16-1.26.31-2.12.47-.86.16-1.85.23-2.97.23-1.03,0-1.97-.16-2.79-.49-.83-.33-1.54-.79-2.12-1.4s-1.04-1.34-1.36-2.21c-.32-.87-.48-1.85-.48-2.94s.13-1.98.4-2.84.66-1.6,1.18-2.22c.52-.62,1.15-1.1,1.9-1.45.75-.34,1.61-.52,2.57-.52.78,0,1.46.1,2.06.31.6.21,1.04.41,1.33.59v-6.8Zm0,9.05c-.29-.24-.71-.47-1.27-.7-.55-.22-1.16-.34-1.81-.34-.69,0-1.28.13-1.77.38-.49.25-.89.6-1.2,1.03-.31.44-.53.96-.67,1.56-.14.6-.21,1.25-.21,1.94,0,1.57.39,2.78,1.16,3.63.78.85,1.81,1.28,3.1,1.28.65,0,1.2-.03,1.64-.09.44-.06.78-.12,1.02-.19v-8.51Z" style="fill:#fff; stroke-width:0px;"/><path d="m283.29,275.98c0,1.55-.24,2.9-.72,4.05-.48,1.15-1.16,2.09-2.04,2.84-.88.75-1.93,1.31-3.16,1.68-1.22.37-2.57.56-4.03.56-.72,0-1.52-.03-2.39-.09-.87-.06-1.66-.18-2.37-.35v-17.38c.71-.17,1.5-.29,2.37-.35.87-.06,1.67-.09,2.39-.09,1.47,0,2.81.19,4.03.56,1.22.37,2.28.93,3.16,1.68.88.75,1.56,1.7,2.04,2.85.48,1.15.72,2.5.72,4.05Zm-9.75,6.93c2.38,0,4.16-.61,5.33-1.82,1.17-1.22,1.76-2.92,1.76-5.11s-.59-3.89-1.76-5.11c-1.17-1.22-2.95-1.82-5.33-1.82-.71,0-1.25,0-1.64.03-.39.02-.66.03-.81.05v13.71c.16.02.43.03.81.05.39.02.94.03,1.64.03Z" style="fill:#fff; stroke-width:0px;"/><path d="m286.11,278.26c0-1.19.17-2.23.52-3.12.34-.89.8-1.62,1.37-2.21.57-.59,1.22-1.03,1.97-1.32.74-.29,1.5-.44,2.28-.44,1.81,0,3.2.56,4.16,1.69.97,1.13,1.45,2.85,1.45,5.16v.4c0,.16,0,.31-.03.45h-9.21c.1,1.4.51,2.46,1.22,3.18.71.72,1.81,1.09,3.31,1.09.84,0,1.56-.07,2.13-.22.58-.15,1.01-.29,1.31-.43l.34,2.02c-.29.15-.81.32-1.54.49s-1.56.26-2.5.26c-1.17,0-2.19-.18-3.04-.53-.85-.35-1.56-.84-2.11-1.46s-.96-1.36-1.23-2.21c-.27-.85-.4-1.79-.4-2.81Zm9.23-1.32c.02-1.09-.25-1.98-.81-2.68-.56-.7-1.33-1.05-2.31-1.05-.55,0-1.04.11-1.46.32-.42.22-.78.5-1.07.84-.29.35-.52.74-.69,1.19s-.27.9-.32,1.37h6.67Z" style="fill:#fff; stroke-width:0px;"/><path d="m301.31,271.9c.55-.14,1.28-.28,2.19-.44.91-.16,1.95-.23,3.14-.23.86,0,1.59.12,2.17.35.59.23,1.08.57,1.47,1.02.12-.09.31-.21.57-.36.26-.16.58-.31.96-.45.38-.15.8-.28,1.27-.39.47-.11.97-.17,1.5-.17,1.03,0,1.88.15,2.53.45s1.17.73,1.54,1.28c.37.55.62,1.21.75,1.97.13.76.19,1.59.19,2.48v7.55h-2.41v-7.03c0-.79-.04-1.47-.12-2.04-.08-.57-.22-1.04-.44-1.42-.22-.38-.51-.66-.88-.84-.37-.18-.85-.27-1.44-.27-.81,0-1.48.11-2,.32-.53.22-.88.41-1.07.58.14.45.24.94.31,1.47.07.53.1,1.1.1,1.68v7.55h-2.41v-7.03c0-.79-.04-1.47-.13-2.04-.09-.57-.24-1.04-.45-1.42-.22-.38-.51-.66-.88-.84-.37-.18-.84-.27-1.41-.27-.24,0-.5,0-.78.03-.28.02-.54.04-.79.06-.25.03-.48.06-.69.09-.21.03-.35.06-.41.08v11.35h-2.41v-13.06Z" style="fill:#fff; stroke-width:0px;"/><path d="m327.93,271.17c.97,0,1.78.13,2.44.38.66.25,1.2.6,1.6,1.06.4.46.69,1,.87,1.63s.26,1.32.26,2.08v8.41c-.21.03-.5.08-.87.14s-.79.12-1.25.17c-.47.05-.97.1-1.51.14-.54.04-1.08.06-1.62.06-.76,0-1.46-.08-2.09-.23-.64-.16-1.19-.4-1.66-.74-.47-.34-.83-.78-1.09-1.33-.26-.55-.39-1.22-.39-1.99s.15-1.38.45-1.91c.3-.53.71-.97,1.23-1.29.52-.33,1.12-.57,1.81-.72s1.41-.23,2.17-.23c.24,0,.49.01.75.04.26.03.5.06.74.1.23.04.44.08.61.12s.29.06.36.08v-.67c0-.4-.04-.79-.13-1.18-.09-.39-.24-.73-.47-1.03s-.53-.54-.92-.72c-.39-.18-.89-.27-1.51-.27-.79,0-1.49.06-2.08.17-.59.11-1.04.23-1.33.35l-.28-1.99c.31-.14.83-.27,1.55-.4s1.51-.19,2.35-.19Zm.21,12.05c.57,0,1.07-.01,1.51-.04.44-.03.81-.07,1.1-.14v-4.01c-.17-.09-.45-.16-.84-.22-.39-.06-.86-.09-1.41-.09-.36,0-.75.03-1.15.08s-.78.16-1.11.32c-.34.16-.62.39-.84.67s-.34.66-.34,1.12c0,.86.28,1.46.83,1.8.55.34,1.3.5,2.25.5Z" style="fill:#fff; stroke-width:0px;"/><path d="m337.08,271.9c.55-.14,1.28-.28,2.2-.44.91-.16,1.97-.23,3.16-.23,1.07,0,1.96.15,2.66.45.71.3,1.27.72,1.69,1.27.42.54.72,1.19.89,1.95.17.76.26,1.6.26,2.51v7.55h-2.41v-7.03c0-.83-.06-1.53-.17-2.12-.11-.59-.3-1.06-.56-1.42s-.6-.62-1.03-.79c-.43-.16-.97-.25-1.6-.25-.26,0-.53,0-.8.03-.28.02-.54.04-.79.06-.25.03-.47.06-.67.09-.2.03-.34.06-.43.08v11.35h-2.41v-13.06Z" style="fill:#fff; stroke-width:0px;"/><path d="m360.62,265.3l2.41-.41v19.68c-.55.16-1.26.31-2.12.47s-1.85.23-2.97.23c-1.03,0-1.97-.16-2.79-.49-.83-.33-1.54-.79-2.12-1.4-.59-.6-1.04-1.34-1.36-2.21-.32-.87-.48-1.85-.48-2.94s.13-1.98.4-2.84c.27-.86.66-1.6,1.18-2.22.52-.62,1.15-1.1,1.9-1.45.75-.34,1.61-.52,2.57-.52.78,0,1.46.1,2.06.31.59.21,1.04.41,1.33.59v-6.8Zm0,9.05c-.29-.24-.72-.47-1.27-.7s-1.16-.34-1.81-.34c-.69,0-1.28.13-1.77.38-.49.25-.89.6-1.2,1.03-.31.44-.53.96-.67,1.56-.14.6-.21,1.25-.21,1.94,0,1.57.39,2.78,1.16,3.63s1.81,1.28,3.1,1.28c.66,0,1.2-.03,1.64-.09.44-.06.78-.12,1.02-.19v-8.51Z" style="fill:#fff; stroke-width:0px;"/><path d="m374.33,269.08c-.43,0-.8-.14-1.1-.43-.3-.28-.45-.67-.45-1.15s.15-.87.45-1.15c.3-.28.67-.43,1.1-.43s.8.14,1.1.43c.3.28.45.67.45,1.15s-.15.87-.45,1.15c-.3.28-.67.43-1.1.43Zm1.22,15.88h-2.41v-13.45h2.41v13.45Z" style="fill:#fff; stroke-width:0px;"/><path d="m382.81,283.23c.98,0,1.71-.13,2.19-.39.47-.26.71-.67.71-1.24s-.23-1.05-.7-1.4c-.47-.34-1.23-.73-2.3-1.16-.52-.21-1.01-.42-1.49-.63-.47-.22-.88-.47-1.23-.76-.35-.29-.62-.65-.83-1.06-.21-.41-.31-.92-.31-1.53,0-1.19.44-2.13,1.32-2.83s2.08-1.05,3.59-1.05c.38,0,.76.02,1.14.06.38.04.73.1,1.06.16.33.06.62.13.87.19.25.07.44.13.58.18l-.44,2.07c-.26-.14-.66-.28-1.22-.43-.55-.15-1.22-.22-1.99-.22-.67,0-1.26.13-1.76.4-.5.27-.75.69-.75,1.25,0,.29.06.55.17.78.11.22.28.43.52.61s.52.35.87.5c.34.16.76.32,1.24.49.64.24,1.21.48,1.71.71.5.23.93.5,1.28.81.35.31.62.69.81,1.12.19.44.28.98.28,1.62,0,1.24-.46,2.18-1.38,2.82-.92.64-2.24.96-3.94.96-1.19,0-2.12-.1-2.79-.3-.67-.2-1.13-.35-1.37-.45l.44-2.07c.28.1.72.26,1.32.47.6.21,1.4.31,2.41.31Z" style="fill:#fff; stroke-width:0px;"/><path d="m409.03,278.26c0,1.02-.13,1.96-.4,2.82-.27.86-.66,1.6-1.18,2.22s-1.15,1.1-1.9,1.45-1.61.52-2.57.52c-.78,0-1.46-.1-2.06-.31-.6-.21-1.04-.4-1.33-.59v5.38h-2.41v-17.82c.57-.14,1.28-.29,2.13-.45.85-.16,1.84-.25,2.96-.25,1.03,0,1.97.16,2.79.49.83.33,1.54.79,2.12,1.4s1.04,1.34,1.36,2.21c.32.87.48,1.85.48,2.94Zm-2.51,0c0-1.57-.39-2.78-1.16-3.62-.78-.84-1.81-1.27-3.1-1.27-.72,0-1.29.03-1.69.08s-.73.11-.97.18v8.48c.29.24.72.47,1.27.7.55.22,1.15.34,1.81.34.69,0,1.28-.12,1.77-.38.49-.25.89-.59,1.2-1.03.31-.44.53-.96.67-1.55.14-.59.21-1.24.21-1.93Z" style="fill:#fff; stroke-width:0px;"/><path d="m416.77,271.17c.97,0,1.78.13,2.44.38.66.25,1.2.6,1.6,1.06.4.46.69,1,.87,1.63.17.63.26,1.32.26,2.08v8.41c-.21.03-.5.08-.87.14-.37.06-.79.12-1.25.17s-.97.1-1.51.14-1.08.06-1.62.06c-.76,0-1.46-.08-2.1-.23s-1.19-.4-1.66-.74c-.46-.34-.83-.78-1.09-1.33-.26-.55-.39-1.22-.39-1.99s.15-1.38.45-1.91c.3-.53.71-.97,1.23-1.29.52-.33,1.12-.57,1.81-.72s1.41-.23,2.17-.23c.24,0,.49.01.75.04.26.03.5.06.74.1.23.04.43.08.61.12.17.03.29.06.36.08v-.67c0-.4-.04-.79-.13-1.18-.09-.39-.24-.73-.46-1.03-.22-.3-.53-.54-.92-.72-.39-.18-.89-.27-1.51-.27-.79,0-1.49.06-2.08.17s-1.04.23-1.33.35l-.28-1.99c.31-.14.83-.27,1.55-.4s1.51-.19,2.35-.19Zm.21,12.05c.57,0,1.07-.01,1.51-.04s.81-.07,1.1-.14v-4.01c-.17-.09-.45-.16-.84-.22-.39-.06-.86-.09-1.41-.09-.36,0-.75.03-1.15.08s-.78.16-1.11.32c-.34.16-.62.39-.84.67-.22.28-.34.66-.34,1.12,0,.86.28,1.46.83,1.8.55.34,1.3.5,2.25.5Z" style="fill:#fff; stroke-width:0px;"/><path d="m430.89,271.23c.21,0,.44.01.71.04s.53.06.79.1c.26.04.5.09.71.13.22.04.38.08.48.12l-.41,2.1c-.19-.07-.5-.15-.94-.25-.44-.09-1-.14-1.69-.14-.45,0-.89.05-1.33.14s-.73.16-.87.19v11.3h-2.41v-12.88c.57-.21,1.28-.4,2.12-.58s1.79-.27,2.85-.27Z" style="fill:#fff; stroke-width:0px;"/><path d="m440.25,271.17c.97,0,1.78.13,2.44.38.66.25,1.2.6,1.6,1.06.4.46.69,1,.87,1.63.17.63.26,1.32.26,2.08v8.41c-.21.03-.5.08-.87.14-.37.06-.79.12-1.25.17s-.97.1-1.51.14-1.08.06-1.62.06c-.76,0-1.46-.08-2.1-.23s-1.19-.4-1.66-.74c-.46-.34-.83-.78-1.09-1.33-.26-.55-.39-1.22-.39-1.99s.15-1.38.45-1.91c.3-.53.71-.97,1.23-1.29.52-.33,1.12-.57,1.81-.72s1.41-.23,2.17-.23c.24,0,.49.01.75.04.26.03.5.06.74.1.23.04.43.08.61.12.17.03.29.06.36.08v-.67c0-.4-.04-.79-.13-1.18-.09-.39-.24-.73-.46-1.03-.22-.3-.53-.54-.92-.72-.39-.18-.89-.27-1.51-.27-.79,0-1.49.06-2.08.17s-1.04.23-1.33.35l-.28-1.99c.31-.14.83-.27,1.55-.4s1.51-.19,2.35-.19Zm.21,12.05c.57,0,1.07-.01,1.51-.04s.81-.07,1.1-.14v-4.01c-.17-.09-.45-.16-.84-.22-.39-.06-.86-.09-1.41-.09-.36,0-.75.03-1.15.08s-.78.16-1.11.32c-.34.16-.62.39-.84.67-.22.28-.34.66-.34,1.12,0,.86.28,1.46.83,1.8.55.34,1.3.5,2.25.5Z" style="fill:#fff; stroke-width:0px;"/><path d="m449.4,271.9c.55-.14,1.28-.28,2.19-.44.91-.16,1.95-.23,3.14-.23.86,0,1.59.12,2.17.35s1.08.57,1.47,1.02c.12-.09.31-.21.57-.36.26-.16.58-.31.96-.45s.8-.28,1.27-.39c.47-.11.97-.17,1.5-.17,1.03,0,1.88.15,2.53.45s1.17.73,1.54,1.28.62,1.21.75,1.97c.13.76.19,1.59.19,2.48v7.55h-2.41v-7.03c0-.79-.04-1.47-.12-2.04-.08-.57-.22-1.04-.44-1.42-.22-.38-.51-.66-.88-.84-.37-.18-.85-.27-1.44-.27-.81,0-1.48.11-2,.32-.53.22-.88.41-1.07.58.14.45.24.94.31,1.47.07.53.1,1.1.1,1.68v7.55h-2.41v-7.03c0-.79-.04-1.47-.13-2.04-.09-.57-.24-1.04-.45-1.42-.22-.38-.51-.66-.88-.84-.37-.18-.84-.27-1.41-.27-.24,0-.5,0-.78.03-.28.02-.54.04-.79.06s-.48.06-.69.09c-.21.03-.34.06-.41.08v11.35h-2.41v-13.06Z" style="fill:#fff; stroke-width:0px;"/><path d="m483.54,278.23c0,1.07-.16,2.03-.47,2.9s-.75,1.6-1.31,2.22c-.56.62-1.23,1.1-2,1.44-.78.34-1.62.5-2.53.5s-1.76-.17-2.54-.5c-.78-.34-1.44-.81-2-1.44-.56-.62-1-1.36-1.31-2.22-.31-.86-.46-1.83-.46-2.9s.16-2.01.46-2.88c.31-.87.75-1.62,1.31-2.24.56-.62,1.23-1.1,2-1.44.78-.34,1.62-.5,2.54-.5s1.76.17,2.53.5c.78.34,1.44.81,2,1.44.56.62,1,1.37,1.31,2.24.31.87.47,1.83.47,2.88Zm-2.51,0c0-1.52-.34-2.72-1.02-3.61-.68-.89-1.61-1.33-2.78-1.33s-2.1.44-2.78,1.33c-.68.89-1.02,2.09-1.02,3.61s.34,2.72,1.02,3.61c.68.89,1.61,1.33,2.78,1.33s2.1-.44,2.78-1.33c.68-.89,1.02-2.09,1.02-3.61Z" style="fill:#fff; stroke-width:0px;"/><path d="m497.64,284.57c-.55.14-1.28.28-2.19.44s-1.95.23-3.14.23c-1.03,0-1.91-.15-2.61-.45-.71-.3-1.28-.73-1.71-1.28-.43-.55-.74-1.2-.93-1.95s-.28-1.58-.28-2.5v-7.55h2.41v7.03c0,1.64.26,2.81.78,3.52.52.71,1.39,1.06,2.61,1.06.26,0,.53,0,.8-.03.28-.02.53-.04.78-.06.24-.03.46-.05.66-.08s.34-.06.43-.09v-11.35h2.41v13.06Z" style="fill:#fff; stroke-width:0px;"/><path d="m501.78,271.9c.55-.14,1.28-.28,2.2-.44.91-.16,1.97-.23,3.16-.23,1.07,0,1.96.15,2.66.45s1.27.72,1.69,1.27c.42.54.72,1.19.89,1.95.17.76.26,1.6.26,2.51v7.55h-2.41v-7.03c0-.83-.06-1.53-.17-2.12-.11-.59-.3-1.06-.56-1.42-.26-.36-.6-.62-1.03-.79-.43-.16-.97-.25-1.6-.25-.26,0-.53,0-.8.03-.28.02-.54.04-.79.06s-.47.06-.67.09c-.2.03-.34.06-.43.08v11.35h-2.41v-13.06Z" style="fill:#fff; stroke-width:0px;"/><path d="m518.87,271.51h5.09v2.02h-5.09v6.21c0,.67.05,1.23.16,1.67.1.44.26.78.46,1.03.21.25.47.43.78.53.31.1.67.16,1.09.16.72,0,1.31-.08,1.75-.25.44-.16.75-.28.92-.35l.47,1.99c-.24.12-.66.27-1.27.45-.6.18-1.29.27-2.07.27-.91,0-1.67-.12-2.26-.35-.59-.23-1.07-.58-1.44-1.05-.36-.47-.62-1.04-.76-1.72s-.22-1.47-.22-2.37v-12l2.41-.41v4.16Z" style="fill:#fff; stroke-width:0px;"/><path d="m530.15,283.56c0,.47-.16.87-.47,1.22s-.73.52-1.27.52-.96-.17-1.27-.52-.47-.75-.47-1.22.16-.87.47-1.22c.31-.34.73-.52,1.27-.52s.96.17,1.27.52c.31.35.47.75.47,1.22Z" style="fill:#fff; stroke-width:0px;"/><path d="m110.3,575.94c0,1.89-.23,3.59-.7,5.1-.47,1.51-1.12,2.84-1.96,3.98-.84,1.14-1.84,2.08-3.01,2.83-1.16.75-2.44,1.29-3.84,1.63.13.52.41.94.85,1.26.44.32,1,.59,1.67.79.67.21,1.46.36,2.35.47.89.1,1.86.19,2.89.27l-1.24,4.42c-2.02-.08-3.74-.28-5.18-.6-1.44-.32-2.65-.77-3.65-1.34-1-.57-1.78-1.27-2.37-2.09-.58-.83-1.03-1.78-1.34-2.87-1.6-.21-3.09-.65-4.46-1.34-1.37-.69-2.56-1.61-3.57-2.77-1.01-1.16-1.8-2.56-2.37-4.19-.57-1.63-.85-3.48-.85-5.55,0-2.3.36-4.33,1.09-6.07s1.7-3.21,2.93-4.4c1.23-1.19,2.65-2.08,4.27-2.68,1.62-.59,3.32-.89,5.1-.89s3.57.3,5.2.89,3.05,1.49,4.27,2.68c1.22,1.19,2.17,2.66,2.87,4.4.7,1.75,1.05,3.77,1.05,6.07Zm-20.52,0c0,1.32.16,2.51.49,3.57.32,1.06.79,1.97,1.4,2.74.61.76,1.35,1.35,2.23,1.76.88.41,1.89.62,3.03.62s2.11-.21,3.01-.62c.89-.41,1.64-1,2.25-1.76.61-.76,1.07-1.67,1.4-2.74.32-1.06.48-2.25.48-3.57s-.16-2.51-.48-3.59c-.32-1.07-.79-1.99-1.4-2.75-.61-.76-1.36-1.35-2.25-1.77-.89-.41-1.9-.62-3.01-.62s-2.15.21-3.03.64c-.88.43-1.62,1.02-2.23,1.79-.61.76-1.07,1.68-1.4,2.75-.32,1.07-.49,2.26-.49,3.55Z" style="fill:#fff; stroke-width:0px;"/><path d="m132.37,588.7c-.98.29-2.25.55-3.8.79-1.55.25-3.18.37-4.89.37s-3.17-.23-4.33-.7c-1.15-.47-2.06-1.12-2.73-1.96-.67-.84-1.15-1.84-1.44-3.01-.28-1.16-.43-2.44-.43-3.84v-11.37h5.78v10.67c0,1.86.25,3.21.74,4.03.49.83,1.41,1.24,2.75,1.24.41,0,.85-.02,1.32-.06.47-.04.88-.08,1.24-.14v-15.75h5.78v19.71Z" style="fill:#fff; stroke-width:0px;"/><path d="m145.13,568.45c1.71,0,3.13.19,4.27.58,1.14.39,2.05.94,2.73,1.67.69.72,1.17,1.6,1.46,2.64.28,1.04.43,2.19.43,3.45v12.03c-.83.18-1.98.39-3.45.64-1.47.25-3.26.37-5.35.37-1.32,0-2.52-.12-3.59-.35-1.07-.23-2-.61-2.77-1.14s-1.37-1.22-1.78-2.08c-.41-.85-.62-1.9-.62-3.14s.24-2.2.72-3.03c.48-.83,1.12-1.49,1.92-1.98.8-.49,1.72-.85,2.75-1.07,1.03-.22,2.11-.33,3.22-.33.75,0,1.42.03,2,.1s1.05.15,1.42.25v-.54c0-.98-.3-1.77-.89-2.37-.6-.59-1.63-.89-3.1-.89-.98,0-1.95.07-2.91.21-.96.14-1.78.34-2.48.6l-.74-4.66c.34-.1.76-.21,1.26-.33.5-.12,1.05-.22,1.65-.31.59-.09,1.22-.17,1.88-.23.66-.06,1.33-.1,2-.1Zm.47,16.91c.57,0,1.11-.01,1.63-.04.52-.03.93-.06,1.24-.12v-4.38c-.23-.05-.58-.1-1.05-.16-.47-.05-.89-.08-1.28-.08-.54,0-1.05.03-1.53.1-.48.07-.9.19-1.26.37-.36.18-.65.43-.85.74-.21.31-.31.7-.31,1.16,0,.91.3,1.53.91,1.88.61.35,1.44.52,2.5.52Z" style="fill:#fff; stroke-width:0px;"/><path d="m167.4,589.79c-1.68-.03-3.05-.21-4.09-.54-1.05-.34-1.88-.81-2.48-1.42-.61-.61-1.02-1.34-1.24-2.21-.22-.87-.33-1.84-.33-2.93v-22.46l5.78-.93v22.23c0,.52.04.98.12,1.4s.23.76.45,1.05c.22.29.54.52.95.7.41.18.97.3,1.67.35l-.81,4.77Z" style="fill:#fff; stroke-width:0px;"/><path d="m177.84,563.1c0,1.06-.34,1.89-1.03,2.5-.69.61-1.49.91-2.42.91s-1.74-.3-2.42-.91c-.69-.61-1.03-1.44-1.03-2.5s.34-1.89,1.03-2.5c.69-.61,1.49-.91,2.42-.91s1.74.3,2.42.91c.69.61,1.03,1.44,1.03,2.5Zm-.54,26.3h-5.78v-20.41h5.78v20.41Z" style="fill:#fff; stroke-width:0px;"/><path d="m182.53,563.91l5.78-.93v6.01h6.94v4.81h-6.94v7.18c0,1.22.21,2.19.64,2.91.43.72,1.29,1.09,2.58,1.09.62,0,1.26-.06,1.92-.17.66-.12,1.26-.28,1.8-.48l.81,4.5c-.7.29-1.47.53-2.33.74s-1.9.31-3.14.31c-1.58,0-2.88-.21-3.92-.64-1.03-.43-1.86-1.02-2.48-1.78s-1.05-1.69-1.3-2.77c-.25-1.09-.37-2.29-.37-3.61v-17.15Z" style="fill:#fff; stroke-width:0px;"/><path d="m218.49,569c-1.17,3.93-2.39,7.62-3.66,11.06-1.27,3.44-2.66,6.78-4.16,10.01-.54,1.16-1.09,2.15-1.63,2.97-.54.82-1.14,1.49-1.79,2.02-.65.53-1.38.92-2.19,1.16-.82.25-1.77.37-2.85.37-.91,0-1.74-.08-2.51-.25-.76-.17-1.39-.36-1.88-.56l1.01-4.62c.6.21,1.13.35,1.59.43.47.08.96.12,1.48.12,1.04,0,1.83-.28,2.39-.83.56-.56,1.03-1.33,1.42-2.31-1.32-2.59-2.64-5.49-3.96-8.71-1.32-3.22-2.56-6.83-3.73-10.84h6.13c.26,1.01.56,2.1.92,3.28.35,1.18.72,2.37,1.11,3.57.39,1.2.79,2.37,1.19,3.51.4,1.14.79,2.17,1.15,3.1.34-.93.69-1.96,1.05-3.1.36-1.14.72-2.31,1.07-3.51.35-1.2.69-2.39,1.01-3.57.32-1.18.62-2.27.88-3.28h5.98Z" style="fill:#fff; stroke-width:0px;"/><path d="m231.26,589.4v-26.88h18v5.08h-11.95v5.62h10.63v5.08h-10.63v11.1h-6.05Z" style="fill:#fff; stroke-width:0px;"/><path d="m259.46,563.1c0,1.06-.34,1.89-1.03,2.5-.69.61-1.49.91-2.42.91s-1.74-.3-2.42-.91c-.69-.61-1.03-1.44-1.03-2.5s.34-1.89,1.03-2.5c.69-.61,1.49-.91,2.42-.91s1.74.3,2.42.91c.69.61,1.03,1.44,1.03,2.5Zm-.54,26.3h-5.78v-20.41h5.78v20.41Z" style="fill:#fff; stroke-width:0px;"/><path d="m276.65,574.12c-.52-.13-1.12-.26-1.82-.41-.7-.14-1.45-.21-2.25-.21-.36,0-.8.03-1.3.1s-.89.14-1.14.21v15.6h-5.78v-19.32c1.03-.36,2.26-.7,3.67-1.03,1.41-.32,2.98-.49,4.71-.49.31,0,.69.02,1.12.06.44.04.88.09,1.32.16.44.06.88.14,1.32.23.44.09.81.2,1.12.33l-.97,4.77Z" style="fill:#fff; stroke-width:0px;"/><path d="m286.58,585.25c1.06,0,1.81-.1,2.25-.31.44-.21.66-.61.66-1.2,0-.47-.29-.87-.85-1.22-.57-.35-1.44-.74-2.6-1.18-.91-.34-1.73-.68-2.46-1.05-.74-.36-1.36-.79-1.88-1.3-.52-.5-.92-1.11-1.2-1.8-.29-.7-.43-1.54-.43-2.52,0-1.91.71-3.43,2.13-4.54,1.42-1.11,3.38-1.67,5.86-1.67,1.24,0,2.43.11,3.57.33,1.14.22,2.04.46,2.72.72l-1.01,4.5c-.67-.23-1.4-.44-2.19-.62-.79-.18-1.68-.27-2.66-.27-1.81,0-2.72.5-2.72,1.51,0,.23.04.44.12.62.08.18.23.36.47.52.23.17.55.35.95.55.4.2.91.41,1.53.64,1.27.47,2.31.93,3.14,1.39.83.46,1.48.95,1.96,1.48.48.53.81,1.12,1.01,1.76.19.64.29,1.39.29,2.24,0,2.01-.76,3.54-2.27,4.57-1.51,1.03-3.65,1.55-6.42,1.55-1.81,0-3.32-.16-4.52-.47-1.2-.31-2.04-.57-2.5-.78l.97-4.69c.98.39,1.99.69,3.03.91,1.03.22,2.06.33,3.06.33Z" style="fill:#fff; stroke-width:0px;"/><path d="m299.34,563.91l5.78-.93v6.01h6.94v4.81h-6.94v7.18c0,1.22.21,2.19.64,2.91.43.72,1.29,1.09,2.58,1.09.62,0,1.26-.06,1.92-.17.66-.12,1.26-.28,1.8-.48l.81,4.5c-.7.29-1.47.53-2.33.74s-1.9.31-3.14.31c-1.58,0-2.88-.21-3.92-.64-1.03-.43-1.86-1.02-2.48-1.78s-1.05-1.69-1.3-2.77c-.25-1.09-.37-2.29-.37-3.61v-17.15Z" style="fill:#fff; stroke-width:0px;"/><path d="m136.66,610.48v2.17h-5.64v15.75h-2.51v-15.75h-5.64v-2.17h13.79Z" style="fill:#fff; stroke-width:0px;"/><path d="m149.59,621.68c0,1.07-.16,2.04-.47,2.9-.31.86-.75,1.6-1.31,2.22-.56.62-1.23,1.1-2,1.44-.78.34-1.62.5-2.53.5s-1.76-.17-2.53-.5-1.44-.81-2-1.44c-.56-.62-1-1.36-1.31-2.22-.31-.86-.47-1.83-.47-2.9s.16-2.01.47-2.88c.31-.87.75-1.62,1.31-2.24.56-.62,1.23-1.1,2-1.44.78-.34,1.62-.5,2.53-.5s1.76.17,2.53.5c.78.34,1.44.82,2,1.44.56.62,1,1.37,1.31,2.24.31.87.47,1.83.47,2.88Zm-2.51,0c0-1.52-.34-2.72-1.02-3.61-.68-.89-1.61-1.33-2.78-1.33s-2.1.44-2.78,1.33c-.68.89-1.02,2.09-1.02,3.61s.34,2.72,1.02,3.61c.68.89,1.61,1.33,2.78,1.33s2.1-.44,2.78-1.33c.68-.89,1.02-2.09,1.02-3.61Z" style="fill:#fff; stroke-width:0px;"/><path d="m155.23,614.95h5.09v2.02h-5.09v6.21c0,.67.05,1.23.15,1.67.1.44.26.79.47,1.04s.47.43.78.53.67.16,1.09.16c.72,0,1.31-.08,1.75-.25s.75-.28.92-.35l.47,1.99c-.24.12-.66.27-1.27.45-.6.18-1.29.27-2.07.27-.91,0-1.67-.12-2.26-.35-.59-.23-1.07-.58-1.44-1.05-.36-.47-.62-1.04-.76-1.72-.15-.68-.22-1.47-.22-2.37v-12l2.41-.41v4.16Z" style="fill:#fff; stroke-width:0px;"/><path d="m167.72,614.62c.97,0,1.78.12,2.44.38.66.25,1.2.6,1.6,1.06.4.46.69,1,.87,1.63.17.63.26,1.32.26,2.08v8.41c-.21.03-.5.08-.87.14-.37.06-.79.12-1.25.17-.47.05-.97.1-1.51.14-.54.04-1.08.06-1.62.06-.76,0-1.46-.08-2.09-.23-.64-.16-1.19-.4-1.66-.74-.47-.34-.83-.78-1.09-1.33-.26-.55-.39-1.22-.39-1.99s.15-1.38.45-1.91c.3-.53.71-.96,1.23-1.29.52-.33,1.12-.57,1.81-.72s1.41-.23,2.17-.23c.24,0,.49.01.75.04.26.03.5.06.74.1.23.04.44.08.61.12s.29.06.36.08v-.67c0-.4-.04-.79-.13-1.18-.09-.39-.24-.73-.47-1.04-.22-.3-.53-.54-.92-.72-.39-.18-.89-.27-1.51-.27-.79,0-1.49.06-2.08.17-.59.11-1.04.23-1.33.35l-.28-1.99c.31-.14.83-.27,1.55-.4.72-.13,1.51-.19,2.35-.19Zm.21,12.05c.57,0,1.07-.01,1.51-.04.44-.03.81-.07,1.1-.14v-4.01c-.17-.09-.45-.16-.84-.22-.39-.06-.86-.09-1.41-.09-.36,0-.75.03-1.15.08s-.78.16-1.11.32c-.34.16-.62.39-.84.67-.22.29-.34.66-.34,1.12,0,.86.28,1.46.83,1.8.55.34,1.3.5,2.25.5Z" style="fill:#fff; stroke-width:0px;"/><path d="m180.91,628.66c-1.48-.04-2.53-.35-3.16-.96-.62-.6-.93-1.54-.93-2.82v-16.14l2.41-.41v16.17c0,.4.03.72.1.98s.18.47.34.62.36.27.62.35c.26.08.58.14.96.19l-.34,2.02Z" style="fill:#fff; stroke-width:0px;"/><path d="m189.35,619.43c0-1.53.23-2.89.69-4.06.46-1.17,1.08-2.15,1.86-2.94s1.7-1.38,2.74-1.77c1.04-.4,2.15-.59,3.32-.59s2.25.2,3.27.59,1.93.99,2.7,1.77c.78.79,1.39,1.76,1.85,2.94.46,1.17.69,2.53.69,4.06,0,1.34-.17,2.54-.52,3.59-.35,1.05-.82,1.96-1.44,2.73-.61.77-1.33,1.39-2.15,1.86-.82.47-1.69.8-2.63.97.02.4.19.75.53,1.05.34.3.76.56,1.28.76s1.09.38,1.73.52c.64.14,1.28.24,1.91.31l-.6,1.97c-.9-.12-1.75-.28-2.57-.48-.82-.2-1.56-.46-2.22-.79-.66-.33-1.22-.75-1.67-1.25s-.75-1.14-.91-1.9c-1.09-.07-2.11-.32-3.08-.76-.97-.44-1.8-1.05-2.51-1.84-.71-.78-1.27-1.74-1.68-2.86-.41-1.12-.62-2.41-.62-3.88Zm2.64,0c0,1.09.14,2.07.41,2.96.28.89.67,1.64,1.18,2.26.51.62,1.13,1.1,1.86,1.44.73.34,1.56.5,2.47.5s1.73-.17,2.46-.5c.72-.34,1.34-.82,1.85-1.44.51-.62.9-1.38,1.18-2.26.28-.89.41-1.88.41-2.96s-.14-2.07-.41-2.96c-.28-.89-.67-1.64-1.18-2.26-.51-.62-1.12-1.1-1.85-1.44-.72-.34-1.54-.5-2.46-.5s-1.74.17-2.47.5c-.73.34-1.35.82-1.86,1.44-.51.62-.9,1.38-1.18,2.26-.28.89-.41,1.88-.41,2.96Z" style="fill:#fff; stroke-width:0px;"/><path d="m220.74,628.02c-.55.14-1.28.28-2.19.44-.9.16-1.95.23-3.14.23-1.03,0-1.91-.15-2.61-.45s-1.28-.73-1.71-1.28c-.43-.55-.74-1.2-.93-1.95-.19-.75-.28-1.58-.28-2.5v-7.55h2.41v7.04c0,1.64.26,2.81.78,3.52.52.71,1.39,1.06,2.61,1.06.26,0,.53,0,.8-.03.28-.02.53-.04.78-.06.24-.03.46-.05.66-.08.2-.03.34-.06.43-.09v-11.35h2.41v13.06Z" style="fill:#fff; stroke-width:0px;"/><path d="m229.23,614.62c.97,0,1.78.12,2.44.38.66.25,1.2.6,1.6,1.06.4.46.69,1,.87,1.63.17.63.26,1.32.26,2.08v8.41c-.21.03-.5.08-.87.14-.37.06-.79.12-1.25.17-.47.05-.97.1-1.51.14-.54.04-1.08.06-1.62.06-.76,0-1.46-.08-2.09-.23-.64-.16-1.19-.4-1.66-.74-.47-.34-.83-.78-1.09-1.33-.26-.55-.39-1.22-.39-1.99s.15-1.38.45-1.91c.3-.53.71-.96,1.23-1.29.52-.33,1.12-.57,1.81-.72s1.41-.23,2.17-.23c.24,0,.49.01.75.04.26.03.5.06.74.1.23.04.44.08.61.12s.29.06.36.08v-.67c0-.4-.04-.79-.13-1.18-.09-.39-.24-.73-.47-1.04-.22-.3-.53-.54-.92-.72-.39-.18-.89-.27-1.51-.27-.79,0-1.49.06-2.08.17-.59.11-1.04.23-1.33.35l-.28-1.99c.31-.14.83-.27,1.55-.4.72-.13,1.51-.19,2.35-.19Zm.21,12.05c.57,0,1.07-.01,1.51-.04.44-.03.81-.07,1.1-.14v-4.01c-.17-.09-.45-.16-.84-.22-.39-.06-.86-.09-1.41-.09-.36,0-.75.03-1.15.08s-.78.16-1.11.32c-.34.16-.62.39-.84.67-.22.29-.34.66-.34,1.12,0,.86.28,1.46.83,1.8.55.34,1.3.5,2.25.5Z" style="fill:#fff; stroke-width:0px;"/><path d="m242.42,628.66c-1.48-.04-2.53-.35-3.16-.96-.62-.6-.93-1.54-.93-2.82v-16.14l2.41-.41v16.17c0,.4.03.72.1.98s.18.47.34.62.36.27.62.35c.26.08.58.14.96.19l-.34,2.02Z" style="fill:#fff; stroke-width:0px;"/><path d="m246.63,612.52c-.43,0-.8-.14-1.1-.43-.3-.29-.45-.67-.45-1.15s.15-.87.45-1.15c.3-.29.67-.43,1.1-.43s.8.14,1.1.43c.3.28.45.67.45,1.15s-.15.87-.45,1.15c-.3.28-.67.43-1.1.43Zm1.22,15.88h-2.41v-13.45h2.41v13.45Z" style="fill:#fff; stroke-width:0px;"/><path d="m254.24,614.95h5.09v2.02h-5.09v6.21c0,.67.05,1.23.15,1.67.1.44.26.79.47,1.04s.47.43.78.53.67.16,1.09.16c.72,0,1.31-.08,1.75-.25s.75-.28.92-.35l.47,1.99c-.24.12-.66.27-1.27.45-.6.18-1.29.27-2.07.27-.91,0-1.67-.12-2.26-.35-.59-.23-1.07-.58-1.44-1.05-.36-.47-.62-1.04-.76-1.72-.15-.68-.22-1.47-.22-2.37v-12l2.41-.41v4.16Z" style="fill:#fff; stroke-width:0px;"/><path d="m260.8,630.91c.19.09.44.17.74.25.3.08.6.12.89.12.95,0,1.69-.21,2.22-.63.53-.42,1.02-1.11,1.45-2.06-1.09-2.07-2.1-4.26-3.04-6.58-.94-2.32-1.72-4.67-2.34-7.05h2.59c.19.78.42,1.61.69,2.51.27.9.56,1.82.89,2.77s.68,1.9,1.06,2.84c.38.95.78,1.86,1.19,2.74.65-1.81,1.22-3.6,1.71-5.38.48-1.78.94-3.6,1.37-5.48h2.48c-.62,2.54-1.31,4.97-2.07,7.31-.76,2.34-1.58,4.52-2.46,6.56-.34.78-.7,1.44-1.07,2-.37.56-.78,1.02-1.23,1.38-.45.36-.95.63-1.51.8-.56.17-1.19.26-1.9.26-.19,0-.39-.01-.59-.04-.21-.03-.41-.06-.61-.1s-.38-.09-.54-.14c-.16-.05-.28-.1-.35-.13l.44-1.94Z" style="fill:#fff; stroke-width:0px;"/><path d="m130.21,656.96c-.17-.41-.4-.94-.69-1.58-.28-.64-.59-1.33-.92-2.07-.33-.74-.68-1.5-1.05-2.29-.37-.78-.72-1.53-1.05-2.22-.33-.7-.63-1.32-.92-1.88-.28-.55-.51-.97-.69-1.27-.19,2.04-.35,4.24-.47,6.61s-.22,4.76-.31,7.18h-2.46c.07-1.55.15-3.12.23-4.69.09-1.58.19-3.13.3-4.66.11-1.53.23-3.01.36-4.46.13-1.45.27-2.82.43-4.11h2.2c.47.76.97,1.66,1.5,2.69.53,1.03,1.07,2.12,1.6,3.25.53,1.13,1.05,2.26,1.55,3.39.5,1.13.96,2.16,1.37,3.09.41-.93.87-1.96,1.37-3.09.5-1.13,1.02-2.26,1.55-3.39.53-1.13,1.07-2.21,1.6-3.25.53-1.03,1.03-1.93,1.5-2.69h2.2c.59,5.78,1.03,11.75,1.32,17.92h-2.46c-.09-2.41-.19-4.81-.31-7.18-.12-2.37-.28-4.57-.47-6.61-.17.29-.4.72-.69,1.27-.28.55-.59,1.18-.92,1.88s-.68,1.44-1.05,2.22c-.37.79-.72,1.55-1.05,2.29-.33.74-.63,1.43-.92,2.07-.28.64-.51,1.16-.69,1.58h-2.02Z" style="fill:#fff; stroke-width:0px;"/><path d="m148.88,645.65c.97,0,1.78.12,2.44.38.66.25,1.2.6,1.6,1.06.4.46.69,1,.87,1.63.17.63.26,1.32.26,2.08v8.41c-.21.03-.5.08-.87.14-.37.06-.79.12-1.25.17-.47.05-.97.1-1.51.14-.54.04-1.08.06-1.62.06-.76,0-1.46-.08-2.09-.23-.64-.16-1.19-.4-1.66-.74-.47-.34-.83-.78-1.09-1.33-.26-.55-.39-1.22-.39-1.99s.15-1.38.45-1.91c.3-.53.71-.96,1.23-1.29.52-.33,1.12-.57,1.81-.72s1.41-.23,2.17-.23c.24,0,.49.01.75.04.26.03.5.06.74.1.23.04.44.08.61.12s.29.06.36.08v-.67c0-.4-.04-.79-.13-1.18-.09-.39-.24-.73-.47-1.04-.22-.3-.53-.54-.92-.72-.39-.18-.89-.27-1.51-.27-.79,0-1.49.06-2.08.17-.59.11-1.04.23-1.33.35l-.28-1.99c.31-.14.83-.27,1.55-.4.72-.13,1.51-.19,2.35-.19Zm.21,12.05c.57,0,1.07-.01,1.51-.04.44-.03.81-.07,1.1-.14v-4.01c-.17-.09-.45-.16-.84-.22-.39-.06-.86-.09-1.41-.09-.36,0-.75.03-1.15.08s-.78.16-1.11.32c-.34.16-.62.39-.84.67-.22.29-.34.66-.34,1.12,0,.86.28,1.46.83,1.8.55.34,1.3.5,2.25.5Z" style="fill:#fff; stroke-width:0px;"/><path d="m158.04,646.38c.55-.14,1.28-.29,2.2-.44.91-.16,1.97-.23,3.16-.23,1.07,0,1.96.15,2.66.45.71.3,1.27.72,1.69,1.27.42.54.72,1.19.89,1.95s.26,1.59.26,2.51v7.55h-2.41v-7.04c0-.83-.06-1.53-.17-2.12-.11-.59-.3-1.06-.56-1.42s-.6-.62-1.03-.79c-.43-.16-.97-.25-1.6-.25-.26,0-.53,0-.8.03-.28.02-.54.04-.79.06-.25.03-.47.06-.67.09-.2.04-.34.06-.43.08v11.35h-2.41v-13.06Z" style="fill:#fff; stroke-width:0px;"/><path d="m177.23,645.65c.97,0,1.78.12,2.44.38.66.25,1.2.6,1.6,1.06.4.46.69,1,.87,1.63.17.63.26,1.32.26,2.08v8.41c-.21.03-.5.08-.87.14-.37.06-.79.12-1.25.17-.47.05-.97.1-1.51.14-.54.04-1.08.06-1.62.06-.76,0-1.46-.08-2.09-.23-.64-.16-1.19-.4-1.66-.74-.47-.34-.83-.78-1.09-1.33-.26-.55-.39-1.22-.39-1.99s.15-1.38.45-1.91c.3-.53.71-.96,1.23-1.29.52-.33,1.12-.57,1.81-.72s1.41-.23,2.17-.23c.24,0,.49.01.75.04.26.03.5.06.74.1.23.04.44.08.61.12s.29.06.36.08v-.67c0-.4-.04-.79-.13-1.18-.09-.39-.24-.73-.47-1.04-.22-.3-.53-.54-.92-.72-.39-.18-.89-.27-1.51-.27-.79,0-1.49.06-2.08.17-.59.11-1.04.23-1.33.35l-.28-1.99c.31-.14.83-.27,1.55-.4.72-.13,1.51-.19,2.35-.19Zm.21,12.05c.57,0,1.07-.01,1.51-.04.44-.03.81-.07,1.1-.14v-4.01c-.17-.09-.45-.16-.84-.22-.39-.06-.86-.09-1.41-.09-.36,0-.75.03-1.15.08s-.78.16-1.11.32c-.34.16-.62.39-.84.67-.22.29-.34.66-.34,1.12,0,.86.28,1.46.83,1.8.55.34,1.3.5,2.25.5Z" style="fill:#fff; stroke-width:0px;"/><path d="m194.82,658.09c-.21.14-.61.31-1.2.53s-1.29.32-2.08.32-1.57-.13-2.29-.39c-.72-.26-1.34-.66-1.88-1.2-.53-.54-.96-1.22-1.27-2.03-.31-.81-.47-1.78-.47-2.9,0-.98.15-1.88.44-2.7.29-.82.72-1.53,1.28-2.12.56-.6,1.25-1.06,2.06-1.4.81-.34,1.72-.5,2.74-.5,1.12,0,2.1.08,2.94.25s1.54.31,2.11.45v12c0,2.07-.53,3.57-1.6,4.5-1.07.93-2.69,1.4-4.86,1.4-.84,0-1.64-.07-2.39-.21-.75-.14-1.4-.3-1.95-.49l.44-2.09c.48.19,1.07.36,1.77.5s1.43.22,2.19.22c1.43,0,2.46-.28,3.09-.85.63-.57.94-1.47.94-2.72v-.57Zm-.03-9.98c-.24-.07-.56-.13-.97-.19-.41-.06-.95-.09-1.64-.09-1.29,0-2.29.42-2.99,1.27-.7.85-1.05,1.97-1.05,3.36,0,.78.1,1.44.3,1.99s.47,1.01.8,1.37c.34.36.72.63,1.16.8.44.17.89.26,1.36.26.64,0,1.22-.09,1.76-.27.53-.18.96-.39,1.27-.63v-7.86Z" style="fill:#fff; stroke-width:0px;"/><path d="m200.58,652.74c0-1.19.17-2.23.52-3.12.34-.89.8-1.62,1.37-2.21s1.22-1.03,1.97-1.32c.74-.29,1.5-.44,2.28-.44,1.81,0,3.2.56,4.16,1.69.97,1.13,1.45,2.85,1.45,5.16v.4c0,.16,0,.31-.03.45h-9.21c.1,1.4.51,2.46,1.22,3.18.71.72,1.81,1.09,3.31,1.09.84,0,1.56-.07,2.13-.22.58-.15,1.01-.29,1.31-.43l.34,2.02c-.29.16-.81.32-1.54.49s-1.56.26-2.5.26c-1.17,0-2.19-.18-3.04-.53s-1.56-.84-2.11-1.46c-.55-.62-.96-1.36-1.23-2.21-.27-.85-.4-1.79-.4-2.81Zm9.23-1.32c.02-1.09-.25-1.98-.81-2.68-.56-.7-1.33-1.05-2.31-1.05-.55,0-1.04.11-1.46.32-.42.22-.78.5-1.07.84-.29.34-.52.74-.69,1.19-.16.45-.27.91-.32,1.37h6.67Z" style="fill:#fff; stroke-width:0px;"/><path d="m215.79,646.38c.55-.14,1.28-.29,2.19-.44s1.95-.23,3.14-.23c.86,0,1.59.12,2.17.35.59.23,1.08.57,1.47,1.02.12-.09.31-.21.57-.36.26-.16.58-.31.96-.45.38-.15.8-.28,1.27-.39s.97-.17,1.5-.17c1.03,0,1.88.15,2.53.45.66.3,1.17.73,1.54,1.28.37.55.62,1.21.75,1.97s.19,1.59.19,2.48v7.55h-2.41v-7.04c0-.79-.04-1.47-.12-2.04-.08-.57-.22-1.04-.44-1.42-.22-.38-.51-.66-.88-.84-.37-.18-.85-.27-1.44-.27-.81,0-1.48.11-2,.32s-.88.41-1.07.58c.14.45.24.94.31,1.47.07.54.1,1.1.1,1.68v7.55h-2.41v-7.04c0-.79-.04-1.47-.13-2.04-.09-.57-.24-1.04-.45-1.42-.22-.38-.51-.66-.88-.84-.37-.18-.84-.27-1.41-.27-.24,0-.5,0-.78.03-.28.02-.54.04-.79.06-.25.03-.48.06-.69.09-.21.04-.35.06-.41.08v11.35h-2.41v-13.06Z" style="fill:#fff; stroke-width:0px;"/><path d="m237.31,652.74c0-1.19.17-2.23.52-3.12.34-.89.8-1.62,1.37-2.21s1.22-1.03,1.97-1.32c.74-.29,1.5-.44,2.28-.44,1.81,0,3.2.56,4.16,1.69.97,1.13,1.45,2.85,1.45,5.16v.4c0,.16,0,.31-.03.45h-9.21c.1,1.4.51,2.46,1.22,3.18.71.72,1.81,1.09,3.31,1.09.84,0,1.56-.07,2.13-.22.58-.15,1.01-.29,1.31-.43l.34,2.02c-.29.16-.81.32-1.54.49s-1.56.26-2.5.26c-1.17,0-2.19-.18-3.04-.53s-1.56-.84-2.11-1.46c-.55-.62-.96-1.36-1.23-2.21-.27-.85-.4-1.79-.4-2.81Zm9.23-1.32c.02-1.09-.25-1.98-.81-2.68-.56-.7-1.33-1.05-2.31-1.05-.55,0-1.04.11-1.46.32-.42.22-.78.5-1.07.84-.29.34-.52.74-.69,1.19-.16.45-.27.91-.32,1.37h6.67Z" style="fill:#fff; stroke-width:0px;"/><path d="m252.52,646.38c.55-.14,1.28-.29,2.2-.44.91-.16,1.97-.23,3.16-.23,1.07,0,1.96.15,2.66.45.71.3,1.27.72,1.69,1.27.42.54.72,1.19.89,1.95s.26,1.59.26,2.51v7.55h-2.41v-7.04c0-.83-.06-1.53-.17-2.12-.11-.59-.3-1.06-.56-1.42s-.6-.62-1.03-.79c-.43-.16-.97-.25-1.6-.25-.26,0-.53,0-.8.03-.28.02-.54.04-.79.06-.25.03-.47.06-.67.09-.2.04-.34.06-.43.08v11.35h-2.41v-13.06Z" style="fill:#fff; stroke-width:0px;"/><path d="m269.61,645.99h5.09v2.02h-5.09v6.21c0,.67.05,1.23.15,1.67.1.44.26.79.47,1.04s.47.43.78.53.67.16,1.09.16c.72,0,1.31-.08,1.75-.25s.75-.28.92-.35l.47,1.99c-.24.12-.66.27-1.27.45-.6.18-1.29.27-2.07.27-.91,0-1.67-.12-2.26-.35-.59-.23-1.07-.58-1.44-1.05-.36-.47-.62-1.04-.76-1.72-.15-.68-.22-1.47-.22-2.37v-12l2.41-.41v4.16Z" style="fill:#fff; stroke-width:0px;"/><path d="m502.73,572.57c0,2.33-.36,4.36-1.09,6.09-.72,1.73-1.75,3.17-3.08,4.31s-2.96,1.99-4.87,2.56c-1.92.57-4.06.85-6.44.85-1.09,0-2.35-.05-3.8-.14-1.45-.09-2.87-.28-4.27-.56v-26.19c1.4-.26,2.85-.43,4.36-.52,1.51-.09,2.81-.14,3.9-.14,2.3,0,4.39.26,6.27.78,1.87.52,3.48,1.33,4.83,2.44,1.34,1.11,2.38,2.54,3.1,4.27.72,1.73,1.09,3.82,1.09,6.25Zm-17.5,8.54c.28.03.61.04.99.06.38.01.82.02,1.34.02,3.03,0,5.27-.76,6.73-2.29,1.46-1.53,2.19-3.63,2.19-6.32s-.7-4.95-2.09-6.4c-1.4-1.45-3.61-2.17-6.63-2.17-.41,0-.84,0-1.28.02-.44.01-.85.05-1.24.1v16.99Z" style="fill:#fff; stroke-width:0px;"/><path d="m506.41,575.98c0-1.81.28-3.39.83-4.75.56-1.36,1.29-2.49,2.19-3.39.91-.9,1.95-1.59,3.12-2.06s2.39-.7,3.63-.7c2.9,0,5.18.89,6.87,2.66,1.68,1.77,2.52,4.38,2.52,7.82,0,.34-.01.71-.04,1.11-.03.4-.05.76-.08,1.07h-13.11c.13,1.19.68,2.13,1.67,2.83.98.7,2.3,1.05,3.96,1.05,1.06,0,2.1-.1,3.12-.29,1.02-.19,1.86-.43,2.5-.72l.78,4.69c-.31.16-.72.31-1.24.47-.52.16-1.09.29-1.73.41-.63.12-1.31.21-2.04.29-.72.08-1.45.12-2.17.12-1.84,0-3.43-.27-4.79-.81-1.36-.54-2.48-1.29-3.38-2.23s-1.55-2.06-1.98-3.36c-.43-1.29-.64-2.69-.64-4.19Zm13.58-2.21c-.03-.49-.11-.97-.25-1.44-.14-.47-.36-.88-.66-1.24-.3-.36-.67-.66-1.12-.89-.45-.23-1.02-.35-1.69-.35s-1.2.11-1.67.33-.85.51-1.16.87-.55.78-.72,1.26-.29.96-.37,1.46h7.64Z" style="fill:#fff; stroke-width:0px;"/><path d="m535.61,586.03c-1.32-2.59-2.67-5.61-4.03-9.08-1.36-3.47-2.65-7.24-3.87-11.33h6.13c.26,1.01.56,2.1.92,3.28.35,1.18.71,2.37,1.09,3.57.38,1.2.75,2.37,1.13,3.51.38,1.14.75,2.17,1.11,3.1.34-.93.7-1.96,1.09-3.1.39-1.14.77-2.31,1.15-3.51.38-1.2.74-2.39,1.09-3.57s.66-2.27.92-3.28h5.98c-1.22,4.09-2.51,7.86-3.87,11.33s-2.7,6.49-4.03,9.08h-4.8Z" style="fill:#fff; stroke-width:0px;"/><path d="m549.86,575.98c0-1.81.28-3.39.83-4.75.56-1.36,1.29-2.49,2.19-3.39.91-.9,1.95-1.59,3.12-2.06s2.39-.7,3.63-.7c2.9,0,5.18.89,6.87,2.66,1.68,1.77,2.52,4.38,2.52,7.82,0,.34-.01.71-.04,1.11-.03.4-.05.76-.08,1.07h-13.11c.13,1.19.68,2.13,1.67,2.83.98.7,2.3,1.05,3.96,1.05,1.06,0,2.1-.1,3.12-.29,1.02-.19,1.86-.43,2.5-.72l.78,4.69c-.31.16-.72.31-1.24.47-.52.16-1.09.29-1.73.41-.63.12-1.31.21-2.04.29-.72.08-1.45.12-2.17.12-1.84,0-3.43-.27-4.79-.81-1.36-.54-2.48-1.29-3.38-2.23s-1.55-2.06-1.98-3.36c-.43-1.29-.64-2.69-.64-4.19Zm13.58-2.21c-.03-.49-.11-.97-.25-1.44-.14-.47-.36-.88-.66-1.24-.3-.36-.67-.66-1.12-.89-.45-.23-1.02-.35-1.69-.35s-1.2.11-1.67.33-.85.51-1.16.87-.55.78-.72,1.26-.29.96-.37,1.46h7.64Z" style="fill:#fff; stroke-width:0px;"/><path d="m581.63,586.42c-1.68-.03-3.04-.21-4.09-.54-1.05-.34-1.88-.81-2.48-1.42-.61-.61-1.02-1.34-1.24-2.21-.22-.87-.33-1.84-.33-2.93v-22.46l5.78-.93v22.23c0,.52.04.98.12,1.4.08.41.23.76.45,1.05.22.29.54.52.95.7.41.18.97.3,1.67.35l-.82,4.77Z" style="fill:#fff; stroke-width:0px;"/><path d="m604.83,575.79c0,1.6-.23,3.07-.7,4.4-.47,1.33-1.14,2.47-2.02,3.41-.88.94-1.93,1.67-3.16,2.19-1.23.52-2.61.78-4.13.78s-2.87-.26-4.09-.78c-1.23-.52-2.28-1.25-3.16-2.19-.88-.94-1.57-2.08-2.06-3.41-.49-1.33-.74-2.8-.74-4.4s.25-3.06.76-4.38c.5-1.32,1.2-2.44,2.1-3.38.89-.93,1.95-1.65,3.18-2.17,1.23-.52,2.57-.78,4.02-.78s2.83.26,4.05.78c1.23.52,2.28,1.24,3.16,2.17.88.93,1.56,2.06,2.06,3.38.49,1.32.74,2.78.74,4.38Zm-5.9,0c0-1.78-.36-3.19-1.07-4.21-.71-1.02-1.73-1.53-3.04-1.53s-2.34.51-3.07,1.53c-.72,1.02-1.09,2.42-1.09,4.21s.36,3.2,1.09,4.25c.72,1.05,1.75,1.57,3.07,1.57s2.33-.52,3.04-1.57c.71-1.05,1.07-2.46,1.07-4.25Z" style="fill:#fff; stroke-width:0px;"/><path d="m628.27,575.83c0,1.58-.19,3.01-.58,4.31s-.96,2.41-1.71,3.34c-.75.93-1.68,1.66-2.79,2.17-1.11.52-2.39.78-3.84.78-.8,0-1.55-.08-2.25-.23s-1.37-.38-2.02-.66v7.68h-5.78v-26.88c.52-.16,1.11-.3,1.78-.45.67-.14,1.38-.26,2.11-.37.74-.1,1.49-.19,2.25-.25s1.49-.1,2.19-.1c1.68,0,3.18.25,4.5.76s2.43,1.22,3.34,2.13c.9.92,1.6,2.04,2.08,3.36.48,1.32.72,2.79.72,4.42Zm-5.9.16c0-1.78-.4-3.21-1.2-4.29-.8-1.07-1.99-1.61-3.57-1.61-.52,0-1,.02-1.44.06s-.8.08-1.09.14v10.44c.36.23.83.43,1.42.58.58.16,1.17.23,1.77.23,2.74,0,4.11-1.85,4.11-5.55Z" style="fill:#fff; stroke-width:0px;"/><path d="m643.94,575.21c0-1.86-.24-3.18-.72-3.96-.48-.78-1.3-1.16-2.46-1.16-.36,0-.74.02-1.12.06s-.76.08-1.12.14v15.75h-5.78v-19.71c.49-.13,1.07-.26,1.73-.41.66-.14,1.36-.27,2.09-.39s1.49-.21,2.27-.27c.78-.06,1.54-.1,2.29-.1,1.47,0,2.67.19,3.59.56.92.38,1.67.82,2.27,1.34.83-.59,1.78-1.06,2.85-1.4s2.06-.5,2.97-.5c1.63,0,2.97.23,4.02.68,1.05.45,1.88,1.09,2.5,1.92.62.83,1.05,1.81,1.28,2.95.23,1.14.35,2.41.35,3.8v11.52h-5.78v-10.82c0-1.86-.24-3.18-.72-3.96-.48-.78-1.3-1.16-2.46-1.16-.31,0-.74.08-1.3.23-.56.16-1.02.35-1.38.58.18.59.3,1.22.35,1.88.05.66.08,1.36.08,2.11v11.13h-5.78v-10.82Z" style="fill:#fff; stroke-width:0px;"/><path d="m665.2,575.98c0-1.81.28-3.39.83-4.75.56-1.36,1.29-2.49,2.19-3.39.91-.9,1.95-1.59,3.12-2.06s2.39-.7,3.63-.7c2.9,0,5.18.89,6.87,2.66,1.68,1.77,2.52,4.38,2.52,7.82,0,.34-.01.71-.04,1.11-.03.4-.05.76-.08,1.07h-13.11c.13,1.19.68,2.13,1.67,2.83.98.7,2.3,1.05,3.96,1.05,1.06,0,2.1-.1,3.12-.29,1.02-.19,1.86-.43,2.5-.72l.78,4.69c-.31.16-.72.31-1.24.47-.52.16-1.09.29-1.73.41-.63.12-1.31.21-2.04.29-.72.08-1.45.12-2.17.12-1.84,0-3.43-.27-4.79-.81-1.36-.54-2.48-1.29-3.38-2.23s-1.55-2.06-1.98-3.36c-.43-1.29-.64-2.69-.64-4.19Zm13.58-2.21c-.03-.49-.11-.97-.25-1.44-.14-.47-.36-.88-.66-1.24-.3-.36-.67-.66-1.12-.89-.45-.23-1.02-.35-1.69-.35s-1.2.11-1.67.33-.85.51-1.16.87-.55.78-.72,1.26-.29.96-.37,1.46h7.64Z" style="fill:#fff; stroke-width:0px;"/><path d="m688.82,566.32c.98-.28,2.25-.55,3.8-.79s3.18-.37,4.89-.37,3.17.23,4.33.68c1.15.45,2.06,1.09,2.74,1.92.67.83,1.15,1.81,1.44,2.95.28,1.14.43,2.41.43,3.8v11.52h-5.78v-10.82c0-1.86-.25-3.18-.74-3.96-.49-.78-1.41-1.16-2.75-1.16-.41,0-.85.02-1.32.06-.46.04-.88.08-1.24.14v15.75h-5.78v-19.71Z" style="fill:#fff; stroke-width:0px;"/><path d="m711.48,560.54l5.78-.93v6.01h6.94v4.81h-6.94v7.18c0,1.22.21,2.19.64,2.91.43.72,1.29,1.09,2.58,1.09.62,0,1.26-.06,1.92-.17.66-.12,1.26-.28,1.8-.48l.82,4.5c-.7.29-1.47.53-2.33.74s-1.9.31-3.14.31c-1.58,0-2.88-.21-3.92-.64-1.04-.43-1.86-1.02-2.48-1.78-.62-.76-1.05-1.69-1.3-2.77-.25-1.09-.37-2.29-.37-3.61v-17.15Z" style="fill:#fff; stroke-width:0px;"/><path d="m561.29,632.58v-26.88h18v5.08h-11.95v5.62h10.63v5.08h-10.63v11.1h-6.05Z" style="fill:#fff; stroke-width:0px;"/><path d="m589.49,606.28c0,1.06-.34,1.89-1.03,2.5-.69.61-1.49.91-2.42.91s-1.74-.3-2.42-.91c-.69-.61-1.03-1.44-1.03-2.5s.34-1.89,1.03-2.5c.68-.61,1.49-.91,2.42-.91s1.74.3,2.42.91c.69.61,1.03,1.44,1.03,2.5Zm-.54,26.3h-5.78v-20.41h5.78v20.41Z" style="fill:#fff; stroke-width:0px;"/><path d="m606.68,617.3c-.52-.13-1.12-.26-1.82-.41-.7-.14-1.45-.21-2.25-.21-.36,0-.8.03-1.3.1s-.89.14-1.14.21v15.6h-5.78v-19.32c1.03-.36,2.26-.7,3.67-1.03,1.41-.32,2.98-.49,4.71-.49.31,0,.68.02,1.12.06.44.04.88.09,1.32.16s.88.14,1.32.23c.44.09.81.2,1.12.33l-.97,4.77Z" style="fill:#fff; stroke-width:0px;"/><path d="m616.61,628.43c1.06,0,1.81-.1,2.25-.31.44-.21.66-.61.66-1.2,0-.47-.29-.87-.85-1.22-.57-.35-1.44-.74-2.6-1.18-.91-.34-1.73-.68-2.46-1.05-.74-.36-1.37-.79-1.88-1.3-.52-.5-.92-1.11-1.2-1.8-.28-.7-.43-1.54-.43-2.52,0-1.91.71-3.43,2.13-4.54,1.42-1.11,3.38-1.67,5.86-1.67,1.24,0,2.43.11,3.57.33,1.14.22,2.04.46,2.72.72l-1.01,4.5c-.67-.23-1.4-.44-2.19-.62-.79-.18-1.67-.27-2.66-.27-1.81,0-2.72.5-2.72,1.51,0,.23.04.44.12.62.08.18.23.36.47.52.23.17.55.35.95.55s.91.41,1.53.64c1.27.47,2.31.93,3.14,1.39.83.46,1.48.95,1.96,1.48.48.53.81,1.12,1.01,1.76.19.64.29,1.39.29,2.24,0,2.01-.76,3.54-2.27,4.57-1.51,1.03-3.65,1.55-6.42,1.55-1.81,0-3.32-.16-4.52-.47-1.2-.31-2.04-.57-2.5-.78l.97-4.69c.98.39,1.99.69,3.03.91s2.06.33,3.06.33Z" style="fill:#fff; stroke-width:0px;"/><path d="m629.37,607.09l5.78-.93v6.01h6.94v4.81h-6.94v7.18c0,1.22.21,2.19.64,2.91.43.72,1.29,1.09,2.58,1.09.62,0,1.26-.06,1.92-.17.66-.12,1.26-.28,1.8-.48l.82,4.5c-.7.29-1.47.53-2.33.74s-1.9.31-3.14.31c-1.58,0-2.88-.21-3.92-.64-1.04-.43-1.86-1.02-2.48-1.78-.62-.76-1.05-1.69-1.3-2.77-.25-1.09-.37-2.29-.37-3.61v-17.15Z" style="fill:#fff; stroke-width:0px;"/><path d="m473.92,667.6c0,.72-.12,1.39-.38,2-.25.61-.62,1.15-1.11,1.6-.49.46-1.11.81-1.85,1.06-.74.25-1.59.38-2.56.38-1.12,0-2.06-.16-2.81-.48-.75-.32-1.35-.72-1.8-1.2s-.77-1.01-.96-1.59c-.19-.58-.28-1.12-.28-1.64s.08-.98.25-1.44c.16-.46.38-.88.65-1.28.27-.4.58-.75.93-1.07.35-.32.73-.6,1.12-.84-1.69-.97-2.54-2.39-2.54-4.27,0-.66.13-1.28.39-1.88.26-.59.62-1.12,1.1-1.57.47-.45,1.05-.81,1.72-1.07.67-.27,1.42-.4,2.25-.4.96,0,1.79.15,2.48.44s1.25.67,1.69,1.12c.44.46.76.96.96,1.51.2.55.3,1.09.3,1.6s-.07.97-.22,1.41-.34.85-.59,1.23-.54.72-.85,1.01c-.32.29-.65.55-1,.78,2.03.97,3.07,2.49,3.1,4.58Zm-9.31.16c0,.31.06.63.17.97s.31.65.58.93c.28.29.63.52,1.06.71.43.19.97.28,1.63.28.59,0,1.1-.09,1.54-.26.44-.17.8-.39,1.07-.66.28-.27.48-.57.62-.92.14-.34.21-.7.21-1.06,0-.55-.1-1.04-.31-1.45-.21-.41-.5-.78-.89-1.09-.39-.31-.85-.57-1.4-.79s-1.16-.4-1.85-.56c-.78.43-1.38.97-1.8,1.6-.42.64-.63,1.4-.63,2.28Zm6.47-9.18c0-.26-.06-.54-.17-.85s-.29-.6-.53-.87-.55-.49-.93-.67c-.38-.18-.85-.27-1.4-.27s-1.02.09-1.41.26c-.39.17-.7.39-.94.66-.24.27-.42.56-.53.88-.11.32-.17.63-.17.94,0,.38.07.76.21,1.14s.35.73.65,1.06c.29.33.68.62,1.15.88.47.26,1.04.47,1.69.62.72-.43,1.3-.94,1.73-1.51.43-.58.65-1.33.65-2.26Z" style="fill:#fff; stroke-width:0px;"/><path d="m476.64,663.28c0-3,.53-5.31,1.59-6.93,1.06-1.62,2.53-2.43,4.41-2.43s3.35.81,4.41,2.43c1.06,1.62,1.59,3.93,1.59,6.93s-.53,5.31-1.59,6.93-2.53,2.43-4.41,2.43-3.35-.81-4.41-2.43-1.59-3.93-1.59-6.93Zm9.47,0c0-.98-.06-1.91-.17-2.79-.11-.88-.3-1.65-.57-2.3-.27-.66-.63-1.18-1.07-1.57-.45-.39-1-.58-1.65-.58s-1.21.19-1.66.58c-.45.39-.81.91-1.07,1.57s-.46,1.42-.57,2.3c-.11.88-.17,1.81-.17,2.79s.06,1.91.17,2.79c.11.88.3,1.65.57,2.3.27.66.62,1.18,1.07,1.57.45.39,1,.58,1.66.58s1.21-.19,1.65-.58c.45-.39.81-.91,1.07-1.57.27-.65.46-1.42.57-2.3.11-.88.17-1.81.17-2.79Z" style="fill:#fff; stroke-width:0px;"/><path d="m490.6,663.39h6.39v2.25h-6.39v-2.25Z" style="fill:#fff; stroke-width:0px;"/><path d="m509.74,658.91c0,.62-.12,1.22-.38,1.8-.25.58-.58,1.15-1,1.71-.41.56-.88,1.11-1.4,1.66-.52.54-1.03,1.07-1.55,1.59-.29.29-.63.64-1.02,1.03s-.75.81-1.1,1.24c-.35.43-.63.84-.87,1.24-.23.4-.35.74-.35,1.04h8.25v2.04h-10.86c-.02-.1-.03-.21-.03-.31v-.28c0-.81.13-1.56.4-2.26.27-.7.62-1.36,1.05-1.98.43-.62.91-1.21,1.45-1.76.53-.55,1.06-1.09,1.58-1.6.43-.41.84-.82,1.23-1.23s.73-.81,1.04-1.22c.3-.41.54-.82.72-1.25.18-.43.27-.89.27-1.37,0-.52-.08-.96-.25-1.32-.16-.36-.38-.66-.66-.91s-.6-.42-.97-.53-.76-.17-1.18-.17c-.5,0-.96.07-1.37.21-.41.14-.78.3-1.11.48-.33.18-.6.37-.83.57-.22.2-.4.35-.52.45l-1.19-1.71c.16-.17.39-.38.7-.63s.68-.49,1.11-.71c.43-.22.91-.41,1.45-.57s1.11-.23,1.73-.23c1.88,0,3.29.44,4.23,1.31.94.87,1.41,2.1,1.41,3.69Z" style="fill:#fff; stroke-width:0px;"/><path d="m513.54,663.28c0-3,.53-5.31,1.59-6.93,1.06-1.62,2.53-2.43,4.41-2.43s3.35.81,4.41,2.43c1.06,1.62,1.59,3.93,1.59,6.93s-.53,5.31-1.59,6.93-2.53,2.43-4.41,2.43-3.35-.81-4.41-2.43-1.59-3.93-1.59-6.93Zm9.47,0c0-.98-.06-1.91-.17-2.79-.11-.88-.3-1.65-.57-2.3-.27-.66-.63-1.18-1.07-1.57-.45-.39-1-.58-1.65-.58s-1.21.19-1.66.58c-.45.39-.81.91-1.07,1.57s-.46,1.42-.57,2.3c-.11.88-.17,1.81-.17,2.79s.06,1.91.17,2.79c.11.88.3,1.65.57,2.3.27.66.62,1.18,1.07,1.57.45.39,1,.58,1.66.58s1.21-.19,1.65-.58c.45-.39.81-.91,1.07-1.57.27-.65.46-1.42.57-2.3.11-.88.17-1.81.17-2.79Z" style="fill:#fff; stroke-width:0px;"/><path d="m543.8,664.76c.28.34.62.8,1.05,1.36s.86,1.18,1.31,1.86c.45.68.89,1.39,1.33,2.13.44.74.81,1.46,1.12,2.15h-2.74c-.34-.66-.72-1.32-1.12-1.99-.41-.67-.81-1.31-1.23-1.93-.41-.61-.82-1.19-1.23-1.72-.41-.53-.77-1-1.1-1.4-.22.02-.45.03-.69.03h-2.96v7.01h-2.51v-17.67c.71-.17,1.5-.29,2.37-.35.87-.06,1.67-.09,2.39-.09,2.52,0,4.44.47,5.75,1.42,1.32.95,1.98,2.36,1.98,4.24,0,1.19-.31,2.21-.94,3.05-.63.85-1.56,1.47-2.78,1.89Zm-3.8-8.41c-1.07,0-1.89.03-2.46.08v6.75h1.78c.86,0,1.64-.04,2.33-.13.69-.09,1.27-.25,1.75-.49.47-.24.84-.58,1.1-1.02.26-.44.39-1.02.39-1.75,0-.67-.13-1.23-.39-1.68-.26-.45-.61-.8-1.05-1.06-.44-.26-.96-.44-1.55-.54s-1.23-.16-1.9-.16Z" style="fill:#fff; stroke-width:0px;"/><path d="m561.86,671.87c-.55.14-1.28.28-2.19.44s-1.95.23-3.14.23c-1.03,0-1.91-.15-2.61-.45-.71-.3-1.28-.73-1.71-1.28-.43-.55-.74-1.2-.93-1.95s-.28-1.58-.28-2.5v-7.55h2.41v7.04c0,1.64.26,2.81.78,3.52.52.71,1.39,1.06,2.61,1.06.26,0,.53,0,.8-.03.28-.02.53-.04.78-.06.24-.03.46-.05.66-.08.2-.03.34-.06.43-.09v-11.35h2.41v13.06Z" style="fill:#fff; stroke-width:0px;"/><path d="m570.03,672.52c-1.48-.04-2.53-.35-3.16-.96-.62-.6-.93-1.54-.93-2.82v-16.14l2.41-.41v16.17c0,.4.03.72.1.98.07.26.18.47.34.62s.36.27.62.35c.26.08.58.14.96.19l-.34,2.02Z" style="fill:#fff; stroke-width:0px;"/><path d="m572.3,665.56c0-1.19.17-2.23.52-3.12.34-.89.8-1.62,1.37-2.21s1.22-1.03,1.97-1.32c.74-.29,1.5-.44,2.28-.44,1.81,0,3.2.56,4.16,1.69.97,1.13,1.45,2.85,1.45,5.16v.4c0,.16,0,.31-.03.45h-9.21c.1,1.4.51,2.46,1.21,3.18.71.72,1.81,1.09,3.31,1.09.84,0,1.56-.07,2.13-.22.58-.15,1.01-.29,1.31-.43l.34,2.02c-.29.16-.81.32-1.54.49s-1.56.26-2.5.26c-1.17,0-2.19-.18-3.04-.53s-1.56-.84-2.11-1.46c-.55-.62-.96-1.36-1.23-2.21s-.4-1.79-.4-2.81Zm9.23-1.32c.02-1.09-.25-1.98-.82-2.68s-1.33-1.05-2.31-1.05c-.55,0-1.04.11-1.46.32-.42.22-.78.5-1.07.84-.29.34-.52.74-.68,1.19-.16.45-.27.91-.32,1.37h6.67Z" style="fill:#fff; stroke-width:0px;"/><path d="m597.83,658.47c.97,0,1.78.12,2.44.38.66.25,1.2.6,1.6,1.06.4.46.69,1,.87,1.63.17.63.26,1.32.26,2.08v8.41c-.21.03-.5.08-.87.14-.37.06-.79.12-1.25.17s-.97.1-1.51.14-1.08.06-1.62.06c-.76,0-1.46-.08-2.1-.23s-1.19-.4-1.66-.74c-.46-.34-.83-.78-1.09-1.33-.26-.55-.39-1.22-.39-1.99s.15-1.38.45-1.91c.3-.53.71-.96,1.23-1.29.52-.33,1.12-.57,1.81-.72s1.41-.23,2.17-.23c.24,0,.49.01.75.04.26.03.5.06.74.1.23.04.43.08.61.12.17.03.29.06.36.08v-.67c0-.4-.04-.79-.13-1.18-.09-.39-.24-.73-.46-1.04-.22-.3-.53-.54-.92-.72-.39-.18-.89-.27-1.51-.27-.79,0-1.49.06-2.08.17s-1.04.23-1.33.35l-.28-1.99c.31-.14.83-.27,1.55-.4.72-.13,1.51-.19,2.35-.19Zm.21,12.05c.57,0,1.07-.01,1.51-.04.44-.03.81-.07,1.1-.14v-4.01c-.17-.09-.45-.16-.84-.22s-.86-.09-1.41-.09c-.36,0-.75.03-1.15.08s-.78.16-1.11.32c-.34.16-.62.39-.84.67-.22.29-.34.66-.34,1.12,0,.86.28,1.46.83,1.8s1.3.5,2.25.5Z" style="fill:#fff; stroke-width:0px;"/><path d="m606.99,659.2c.55-.14,1.28-.29,2.2-.44s1.97-.23,3.16-.23c1.07,0,1.96.15,2.66.45.71.3,1.27.72,1.69,1.27.42.54.72,1.19.89,1.95.17.76.26,1.59.26,2.51v7.55h-2.41v-7.04c0-.83-.06-1.53-.17-2.12-.11-.59-.3-1.06-.56-1.42-.26-.36-.6-.62-1.03-.79-.43-.16-.97-.25-1.6-.25-.26,0-.53,0-.8.03-.28.02-.54.04-.79.06-.25.03-.47.06-.67.09-.2.04-.34.06-.43.08v11.35h-2.41v-13.06Z" style="fill:#fff; stroke-width:0px;"/><path d="m630.52,652.6l2.41-.41v19.68c-.55.16-1.26.31-2.12.46-.86.16-1.85.23-2.97.23-1.03,0-1.97-.16-2.79-.49-.83-.33-1.54-.79-2.12-1.4-.59-.6-1.04-1.34-1.36-2.21-.32-.87-.48-1.85-.48-2.94s.13-1.98.4-2.84.66-1.6,1.18-2.22c.52-.62,1.15-1.1,1.9-1.45.75-.34,1.61-.52,2.57-.52.78,0,1.46.1,2.06.31.6.21,1.04.41,1.33.59v-6.8Zm0,9.05c-.29-.24-.71-.47-1.27-.7-.55-.22-1.16-.34-1.81-.34-.69,0-1.28.12-1.77.38-.49.25-.89.59-1.2,1.04-.31.44-.53.96-.67,1.56-.14.6-.21,1.25-.21,1.94,0,1.57.39,2.78,1.16,3.63.78.85,1.81,1.28,3.1,1.28.65,0,1.2-.03,1.64-.09.44-.06.78-.12,1.02-.19v-8.51Z" style="fill:#fff; stroke-width:0px;"/><path d="m645.44,659.4c.29-.19.74-.39,1.33-.59s1.28-.31,2.06-.31c.97,0,1.82.17,2.57.52.75.35,1.38.83,1.9,1.45.52.62.91,1.36,1.18,2.22.27.86.4,1.81.4,2.84,0,1.09-.16,2.07-.48,2.94-.32.87-.77,1.61-1.36,2.21-.59.6-1.29,1.07-2.12,1.4-.83.33-1.76.49-2.79.49-1.12,0-2.11-.08-2.97-.23-.86-.15-1.57-.31-2.12-.46v-19.27l2.41-.41v7.22Zm0,10.76c.24.07.58.13,1.02.19.44.06.99.09,1.64.09,1.29,0,2.33-.43,3.1-1.28.78-.85,1.16-2.06,1.16-3.63,0-.69-.07-1.34-.21-1.94-.14-.6-.36-1.12-.67-1.56-.31-.44-.71-.79-1.2-1.04-.49-.25-1.08-.38-1.77-.38s-1.26.11-1.81.34c-.55.22-.97.46-1.27.7v8.51Z" style="fill:#fff; stroke-width:0px;"/><path d="m668.98,671.87c-.55.14-1.28.28-2.19.44s-1.95.23-3.14.23c-1.03,0-1.91-.15-2.61-.45-.71-.3-1.28-.73-1.71-1.28-.43-.55-.74-1.2-.93-1.95s-.28-1.58-.28-2.5v-7.55h2.41v7.04c0,1.64.26,2.81.78,3.52.52.71,1.39,1.06,2.61,1.06.26,0,.53,0,.8-.03.28-.02.53-.04.78-.06.24-.03.46-.05.66-.08.2-.03.34-.06.43-.09v-11.35h2.41v13.06Z" style="fill:#fff; stroke-width:0px;"/><path d="m676.25,670.53c.98,0,1.71-.13,2.19-.39s.71-.67.71-1.24-.23-1.05-.7-1.4c-.46-.34-1.23-.73-2.3-1.16-.52-.21-1.01-.42-1.49-.63-.47-.21-.88-.47-1.23-.76-.35-.29-.62-.65-.83-1.06s-.31-.92-.31-1.53c0-1.19.44-2.13,1.32-2.83.88-.7,2.08-1.05,3.59-1.05.38,0,.76.02,1.14.06.38.04.73.09,1.06.16.33.06.62.12.87.19.25.07.44.13.58.18l-.44,2.07c-.26-.14-.66-.28-1.22-.43s-1.21-.22-1.99-.22c-.67,0-1.26.13-1.76.4-.5.27-.75.69-.75,1.25,0,.29.06.55.17.78.11.22.29.43.52.61.23.18.52.35.87.5s.76.32,1.24.49c.64.24,1.21.48,1.71.71.5.23.93.5,1.28.81s.62.69.82,1.12c.19.44.28.98.28,1.62,0,1.24-.46,2.18-1.38,2.82-.92.64-2.24.96-3.94.96-1.19,0-2.12-.1-2.79-.3s-1.13-.35-1.37-.45l.44-2.07c.28.1.71.26,1.32.47s1.41.31,2.41.31Z" style="fill:#fff; stroke-width:0px;"/><path d="m685.84,656.38c-.43,0-.8-.14-1.1-.43-.3-.29-.45-.67-.45-1.15s.15-.87.45-1.15c.3-.29.67-.43,1.1-.43s.8.14,1.1.43c.3.28.45.67.45,1.15s-.15.87-.45,1.15c-.3.28-.67.43-1.1.43Zm1.22,15.88h-2.41v-13.45h2.41v13.45Z" style="fill:#fff; stroke-width:0px;"/><path d="m691.2,659.2c.55-.14,1.28-.29,2.2-.44s1.97-.23,3.16-.23c1.07,0,1.96.15,2.66.45.71.3,1.27.72,1.69,1.27.42.54.72,1.19.89,1.95.17.76.26,1.59.26,2.51v7.55h-2.41v-7.04c0-.83-.06-1.53-.17-2.12-.11-.59-.3-1.06-.56-1.42-.26-.36-.6-.62-1.03-.79-.43-.16-.97-.25-1.6-.25-.26,0-.53,0-.8.03-.28.02-.54.04-.79.06-.25.03-.47.06-.67.09-.2.04-.34.06-.43.08v11.35h-2.41v-13.06Z" style="fill:#fff; stroke-width:0px;"/><path d="m705.29,665.56c0-1.19.17-2.23.52-3.12.34-.89.8-1.62,1.37-2.21s1.22-1.03,1.97-1.32c.74-.29,1.5-.44,2.28-.44,1.81,0,3.2.56,4.16,1.69.97,1.13,1.45,2.85,1.45,5.16v.4c0,.16,0,.31-.03.45h-9.21c.1,1.4.51,2.46,1.21,3.18.71.72,1.81,1.09,3.31,1.09.84,0,1.56-.07,2.13-.22.58-.15,1.01-.29,1.31-.43l.34,2.02c-.29.16-.81.32-1.54.49s-1.56.26-2.5.26c-1.17,0-2.19-.18-3.04-.53s-1.56-.84-2.11-1.46c-.55-.62-.96-1.36-1.23-2.21s-.4-1.79-.4-2.81Zm9.23-1.32c.02-1.09-.25-1.98-.82-2.68s-1.33-1.05-2.31-1.05c-.55,0-1.04.11-1.46.32-.42.22-.78.5-1.07.84-.29.34-.52.74-.68,1.19-.16.45-.27.91-.32,1.37h6.67Z" style="fill:#fff; stroke-width:0px;"/><path d="m723.63,670.53c.98,0,1.71-.13,2.19-.39s.71-.67.71-1.24-.23-1.05-.7-1.4c-.46-.34-1.23-.73-2.3-1.16-.52-.21-1.01-.42-1.49-.63-.47-.21-.88-.47-1.23-.76-.35-.29-.62-.65-.83-1.06s-.31-.92-.31-1.53c0-1.19.44-2.13,1.32-2.83.88-.7,2.08-1.05,3.59-1.05.38,0,.76.02,1.14.06.38.04.73.09,1.06.16.33.06.62.12.87.19.25.07.44.13.58.18l-.44,2.07c-.26-.14-.66-.28-1.22-.43s-1.21-.22-1.99-.22c-.67,0-1.26.13-1.76.4-.5.27-.75.69-.75,1.25,0,.29.06.55.17.78.11.22.29.43.52.61.23.18.52.35.87.5s.76.32,1.24.49c.64.24,1.21.48,1.71.71.5.23.93.5,1.28.81s.62.69.82,1.12c.19.44.28.98.28,1.62,0,1.24-.46,2.18-1.38,2.82-.92.64-2.24.96-3.94.96-1.19,0-2.12-.1-2.79-.3s-1.13-.35-1.37-.45l.44-2.07c.28.1.71.26,1.32.47s1.41.31,2.41.31Z" style="fill:#fff; stroke-width:0px;"/><path d="m735.16,670.53c.98,0,1.71-.13,2.19-.39s.71-.67.71-1.24-.23-1.05-.7-1.4c-.46-.34-1.23-.73-2.3-1.16-.52-.21-1.01-.42-1.49-.63-.47-.21-.88-.47-1.23-.76-.35-.29-.62-.65-.83-1.06s-.31-.92-.31-1.53c0-1.19.44-2.13,1.32-2.83.88-.7,2.08-1.05,3.59-1.05.38,0,.76.02,1.14.06.38.04.73.09,1.06.16.33.06.62.12.87.19.25.07.44.13.58.18l-.44,2.07c-.26-.14-.66-.28-1.22-.43s-1.21-.22-1.99-.22c-.67,0-1.26.13-1.76.4-.5.27-.75.69-.75,1.25,0,.29.06.55.17.78.11.22.29.43.52.61.23.18.52.35.87.5s.76.32,1.24.49c.64.24,1.21.48,1.71.71.5.23.93.5,1.28.81s.62.69.82,1.12c.19.44.28.98.28,1.62,0,1.24-.46,2.18-1.38,2.82-.92.64-2.24.96-3.94.96-1.19,0-2.12-.1-2.79-.3s-1.13-.35-1.37-.45l.44-2.07c.28.1.71.26,1.32.47s1.41.31,2.41.31Z" style="fill:#fff; stroke-width:0px;"/><path d="m530.42,683.64l2.41-.41v19.68c-.55.16-1.26.31-2.12.46-.86.16-1.85.23-2.97.23-1.03,0-1.97-.16-2.79-.49-.83-.33-1.54-.79-2.12-1.4-.59-.6-1.04-1.34-1.36-2.21-.32-.87-.48-1.85-.48-2.94s.13-1.98.4-2.84.66-1.6,1.18-2.22c.52-.62,1.15-1.1,1.9-1.45.75-.34,1.61-.52,2.57-.52.78,0,1.46.1,2.06.31.6.21,1.04.41,1.33.59v-6.8Zm0,9.05c-.29-.24-.71-.47-1.27-.7-.55-.22-1.16-.34-1.81-.34-.69,0-1.28.12-1.77.38-.49.25-.89.59-1.2,1.04-.31.44-.53.96-.67,1.56-.14.6-.21,1.25-.21,1.94,0,1.57.39,2.78,1.16,3.63.78.85,1.81,1.28,3.1,1.28.65,0,1.2-.03,1.64-.09.44-.06.78-.12,1.02-.19v-8.51Z" style="fill:#fff; stroke-width:0px;"/><path d="m536.21,696.6c0-1.19.17-2.23.52-3.12.34-.89.8-1.62,1.37-2.21s1.22-1.03,1.97-1.32c.74-.29,1.5-.44,2.28-.44,1.81,0,3.2.56,4.16,1.69.97,1.13,1.45,2.85,1.45,5.16v.4c0,.16,0,.31-.03.45h-9.21c.1,1.4.51,2.46,1.21,3.18.71.72,1.81,1.09,3.31,1.09.84,0,1.56-.07,2.13-.22.58-.15,1.01-.29,1.31-.43l.34,2.02c-.29.16-.81.32-1.54.49s-1.56.26-2.5.26c-1.17,0-2.19-.18-3.04-.53s-1.56-.84-2.11-1.46c-.55-.62-.96-1.36-1.23-2.21s-.4-1.79-.4-2.81Zm9.23-1.32c.02-1.09-.25-1.98-.82-2.68s-1.33-1.05-2.31-1.05c-.55,0-1.04.11-1.46.32-.42.22-.78.5-1.07.84-.29.34-.52.74-.68,1.19-.16.45-.27.91-.32,1.37h6.67Z" style="fill:#fff; stroke-width:0px;"/><path d="m561.92,689.84c-.67,2.52-1.46,4.93-2.37,7.24s-1.78,4.38-2.62,6.21h-2.17c-.84-1.83-1.72-3.9-2.62-6.21s-1.69-4.72-2.37-7.24h2.59c.21.85.45,1.75.74,2.7s.59,1.91.91,2.84c.32.94.64,1.85.97,2.73.33.88.64,1.66.93,2.35.29-.69.6-1.47.93-2.35.33-.88.65-1.79.97-2.73.32-.94.62-1.89.91-2.84s.53-1.86.74-2.7h2.48Z" style="fill:#fff; stroke-width:0px;"/><path d="m563.29,696.6c0-1.19.17-2.23.52-3.12.34-.89.8-1.62,1.37-2.21s1.22-1.03,1.97-1.32c.74-.29,1.5-.44,2.28-.44,1.81,0,3.2.56,4.16,1.69.97,1.13,1.45,2.85,1.45,5.16v.4c0,.16,0,.31-.03.45h-9.21c.1,1.4.51,2.46,1.21,3.18.71.72,1.81,1.09,3.31,1.09.84,0,1.56-.07,2.13-.22.58-.15,1.01-.29,1.31-.43l.34,2.02c-.29.16-.81.32-1.54.49s-1.56.26-2.5.26c-1.17,0-2.19-.18-3.04-.53s-1.56-.84-2.11-1.46c-.55-.62-.96-1.36-1.23-2.21s-.4-1.79-.4-2.81Zm9.23-1.32c.02-1.09-.25-1.98-.82-2.68s-1.33-1.05-2.31-1.05c-.55,0-1.04.11-1.46.32-.42.22-.78.5-1.07.84-.29.34-.52.74-.68,1.19-.16.45-.27.91-.32,1.37h6.67Z" style="fill:#fff; stroke-width:0px;"/><path d="m582.53,703.55c-1.48-.04-2.53-.35-3.16-.96-.62-.6-.93-1.54-.93-2.82v-16.14l2.41-.41v16.17c0,.4.03.72.1.98.07.26.18.47.34.62s.36.27.62.35c.26.08.58.14.96.19l-.34,2.02Z" style="fill:#fff; stroke-width:0px;"/><path d="m597.43,696.57c0,1.07-.16,2.04-.47,2.9-.31.86-.75,1.6-1.31,2.22-.56.62-1.23,1.1-2,1.44-.78.34-1.62.5-2.53.5s-1.76-.17-2.54-.5c-.78-.34-1.44-.81-2-1.44-.56-.62-1-1.36-1.31-2.22-.31-.86-.46-1.83-.46-2.9s.16-2.01.46-2.88c.31-.87.75-1.62,1.31-2.24.56-.62,1.23-1.1,2-1.44.78-.34,1.62-.5,2.54-.5s1.76.17,2.53.5c.78.34,1.44.82,2,1.44.56.62,1,1.37,1.31,2.24.31.87.47,1.83.47,2.88Zm-2.51,0c0-1.52-.34-2.72-1.02-3.61-.68-.89-1.61-1.33-2.78-1.33s-2.1.44-2.78,1.33c-.68.89-1.02,2.09-1.02,3.61s.34,2.72,1.02,3.61c.68.89,1.61,1.33,2.78,1.33s2.1-.44,2.78-1.33c.68-.89,1.02-2.09,1.02-3.61Z" style="fill:#fff; stroke-width:0px;"/><path d="m612.66,696.6c0,1.02-.13,1.96-.4,2.82-.27.86-.66,1.6-1.18,2.22s-1.15,1.1-1.9,1.45-1.61.52-2.57.52c-.78,0-1.46-.1-2.06-.31s-1.04-.41-1.33-.59v5.38h-2.41v-17.82c.57-.14,1.28-.29,2.13-.45s1.84-.25,2.96-.25c1.03,0,1.97.16,2.79.49.83.33,1.54.79,2.12,1.4.59.6,1.04,1.34,1.36,2.21.32.87.48,1.85.48,2.94Zm-2.51,0c0-1.57-.39-2.78-1.16-3.62-.78-.84-1.81-1.27-3.1-1.27-.72,0-1.29.03-1.69.08s-.73.11-.97.18v8.48c.29.24.71.47,1.27.7s1.16.34,1.81.34c.69,0,1.28-.12,1.77-.38.49-.25.89-.59,1.2-1.03s.53-.96.67-1.55c.14-.59.21-1.24.21-1.93Z" style="fill:#fff; stroke-width:0px;"/><path d="m616.05,690.23c.55-.14,1.28-.29,2.19-.44s1.95-.23,3.14-.23c.86,0,1.59.12,2.17.35.59.23,1.08.57,1.47,1.02.12-.09.31-.21.57-.36.26-.16.58-.31.96-.45.38-.15.8-.28,1.27-.39s.97-.17,1.5-.17c1.03,0,1.88.15,2.53.45.66.3,1.17.73,1.54,1.28.37.55.62,1.21.75,1.97.13.76.19,1.59.19,2.48v7.55h-2.41v-7.04c0-.79-.04-1.47-.12-2.04-.08-.57-.22-1.04-.44-1.42-.22-.38-.51-.66-.88-.84-.37-.18-.85-.27-1.44-.27-.81,0-1.48.11-2,.32-.53.22-.88.41-1.07.58.14.45.24.94.31,1.47.07.54.1,1.1.1,1.68v7.55h-2.41v-7.04c0-.79-.04-1.47-.13-2.04-.09-.57-.24-1.04-.45-1.42-.22-.38-.51-.66-.88-.84-.37-.18-.84-.27-1.41-.27-.24,0-.5,0-.78.03-.28.02-.54.04-.79.06-.25.03-.48.06-.69.09-.21.04-.34.06-.41.08v11.35h-2.41v-13.06Z" style="fill:#fff; stroke-width:0px;"/><path d="m637.57,696.6c0-1.19.17-2.23.52-3.12.34-.89.8-1.62,1.37-2.21s1.22-1.03,1.97-1.32c.74-.29,1.5-.44,2.28-.44,1.81,0,3.2.56,4.16,1.69.97,1.13,1.45,2.85,1.45,5.16v.4c0,.16,0,.31-.03.45h-9.21c.1,1.4.51,2.46,1.21,3.18.71.72,1.81,1.09,3.31,1.09.84,0,1.56-.07,2.13-.22.58-.15,1.01-.29,1.31-.43l.34,2.02c-.29.16-.81.32-1.54.49s-1.56.26-2.5.26c-1.17,0-2.19-.18-3.04-.53s-1.56-.84-2.11-1.46c-.55-.62-.96-1.36-1.23-2.21s-.4-1.79-.4-2.81Zm9.23-1.32c.02-1.09-.25-1.98-.82-2.68s-1.33-1.05-2.31-1.05c-.55,0-1.04.11-1.46.32-.42.22-.78.5-1.07.84-.29.34-.52.74-.68,1.19-.16.45-.27.91-.32,1.37h6.67Z" style="fill:#fff; stroke-width:0px;"/><path d="m652.78,690.23c.55-.14,1.28-.29,2.2-.44s1.97-.23,3.16-.23c1.07,0,1.96.15,2.66.45.71.3,1.27.72,1.69,1.27.42.54.72,1.19.89,1.95.17.76.26,1.59.26,2.51v7.55h-2.41v-7.04c0-.83-.06-1.53-.17-2.12-.11-.59-.3-1.06-.56-1.42-.26-.36-.6-.62-1.03-.79-.43-.16-.97-.25-1.6-.25-.26,0-.53,0-.8.03-.28.02-.54.04-.79.06-.25.03-.47.06-.67.09-.2.04-.34.06-.43.08v11.35h-2.41v-13.06Z" style="fill:#fff; stroke-width:0px;"/><path d="m669.87,689.84h5.09v2.02h-5.09v6.21c0,.67.05,1.23.16,1.67.1.44.26.79.46,1.04.21.25.47.43.78.53s.67.16,1.09.16c.72,0,1.31-.08,1.75-.25s.75-.28.92-.35l.47,1.99c-.24.12-.66.27-1.27.45-.6.18-1.29.27-2.07.27-.91,0-1.67-.12-2.26-.35-.59-.23-1.07-.58-1.44-1.05s-.62-1.04-.76-1.72c-.15-.68-.22-1.47-.22-2.37v-12l2.41-.41v4.16Z" style="fill:#fff; stroke-width:0px;"/><path d="m681.15,701.9c0,.47-.16.87-.47,1.22s-.73.52-1.27.52-.96-.17-1.27-.52-.47-.75-.47-1.22.16-.87.47-1.22c.31-.34.73-.52,1.27-.52s.96.17,1.27.52c.31.35.47.75.47,1.22Z" style="fill:#fff; stroke-width:0px;"/><path d="m345.71,445.63c0,1.89-.23,3.59-.7,5.1-.47,1.51-1.12,2.84-1.96,3.98-.84,1.14-1.84,2.08-3.01,2.83-1.16.75-2.44,1.29-3.84,1.63.13.52.41.94.85,1.26.44.32,1,.59,1.67.79.67.21,1.46.36,2.35.47.89.1,1.86.19,2.89.27l-1.24,4.42c-2.02-.08-3.74-.28-5.18-.6-1.44-.32-2.65-.77-3.65-1.34-1-.57-1.78-1.27-2.37-2.09-.58-.83-1.03-1.78-1.34-2.87-1.6-.21-3.09-.65-4.46-1.34-1.37-.69-2.56-1.61-3.57-2.77-1.01-1.16-1.8-2.56-2.37-4.19-.57-1.63-.85-3.48-.85-5.55,0-2.3.36-4.33,1.09-6.07s1.7-3.21,2.93-4.4c1.23-1.19,2.65-2.08,4.27-2.68,1.62-.59,3.32-.89,5.1-.89s3.57.3,5.2.89,3.05,1.49,4.27,2.68c1.22,1.19,2.17,2.66,2.87,4.4.7,1.75,1.05,3.77,1.05,6.07Zm-20.52,0c0,1.32.16,2.51.49,3.57.32,1.06.79,1.97,1.4,2.74.61.76,1.35,1.35,2.23,1.76.88.41,1.89.62,3.03.62s2.11-.21,3.01-.62c.89-.41,1.64-1,2.25-1.76.61-.76,1.07-1.67,1.4-2.74.32-1.06.48-2.25.48-3.57s-.16-2.51-.48-3.59c-.32-1.07-.79-1.99-1.4-2.75-.61-.76-1.36-1.35-2.25-1.77-.89-.41-1.9-.62-3.01-.62s-2.15.21-3.03.64c-.88.43-1.62,1.02-2.23,1.79-.61.76-1.07,1.68-1.4,2.75-.32,1.07-.49,2.26-.49,3.55Z" style="fill:#333; stroke-width:0px;"/><path d="m361.26,459.63c-1.89,0-3.52-.27-4.89-.79-1.37-.53-2.5-1.27-3.39-2.21-.89-.94-1.55-2.07-1.98-3.38-.43-1.31-.64-2.75-.64-4.33v-16.72h6.05v16.22c0,1.09.12,2.01.37,2.77.25.76.58,1.38,1.01,1.86s.94.82,1.55,1.03c.61.21,1.27.31,2,.31,1.47,0,2.67-.45,3.59-1.36.92-.91,1.38-2.44,1.38-4.62v-16.22h6.05v16.72c0,1.58-.22,3.03-.66,4.34-.44,1.32-1.11,2.45-2.02,3.39-.91.94-2.06,1.67-3.45,2.19-1.4.52-3.05.78-4.97.78Z" style="fill:#333; stroke-width:0px;"/><path d="m395.44,459.09c-.3-.93-.62-1.89-.96-2.88s-.69-1.97-1.03-2.94h-10.5c-.34.98-.68,1.96-1.02,2.95-.34.99-.66,1.94-.95,2.87h-6.28c1.01-2.9,1.97-5.57,2.88-8.03.91-2.46,1.8-4.77,2.67-6.94.87-2.17,1.73-4.24,2.57-6.19.84-1.95,1.72-3.86,2.63-5.72h5.74c.88,1.86,1.75,3.77,2.61,5.72.86,1.95,1.72,4.02,2.59,6.19.87,2.17,1.76,4.49,2.67,6.94s1.87,5.13,2.88,8.03h-6.48Zm-7.27-20.79c-.14.39-.33.92-.59,1.59s-.56,1.45-.89,2.33c-.33.88-.7,1.85-1.11,2.91-.41,1.06-.83,2.17-1.25,3.33h7.69c-.41-1.17-.81-2.28-1.2-3.34-.39-1.06-.75-2.03-1.1-2.92-.35-.88-.65-1.66-.91-2.33-.26-.67-.47-1.2-.63-1.58Z" style="fill:#333; stroke-width:0px;"/><path d="m423.33,453.89v5.2h-17.96v-26.88h6.05v21.69h11.91Z" style="fill:#333; stroke-width:0px;"/><path d="m427.21,432.21h6.05v26.88h-6.05v-26.88Z" style="fill:#333; stroke-width:0px;"/><path d="m459.41,432.21v5.16h-8.11v21.73h-6.05v-21.73h-8.11v-5.16h22.27Z" style="fill:#333; stroke-width:0px;"/><path d="m474.46,443.23c1.09-1.83,2.12-3.66,3.11-5.49.98-1.83,1.89-3.68,2.72-5.53h6.67c-1.47,2.9-3,5.7-4.58,8.42-1.58,2.72-3.25,5.45-5,8.19v10.28h-6.05v-10.2c-1.76-2.74-3.43-5.48-5.02-8.22-1.59-2.74-3.12-5.56-4.6-8.46h7.02c.83,1.86,1.72,3.7,2.67,5.53.96,1.83,1.98,3.66,3.06,5.49Z" style="fill:#333; stroke-width:0px;"/><path d="m342.53,478.45c4.01,0,7.09.71,9.23,2.11,2.15,1.41,3.22,3.72,3.22,6.92s-1.09,5.57-3.26,7c-2.17,1.44-5.28,2.15-9.31,2.15h-1.9v9h-6.05v-26.5c1.32-.26,2.72-.44,4.19-.54s2.77-.16,3.88-.16Zm.39,5.16c-.44,0-.87.01-1.3.04-.43.03-.8.05-1.11.08v7.76h1.9c2.09,0,3.67-.28,4.73-.85,1.06-.57,1.59-1.63,1.59-3.18,0-.75-.14-1.37-.41-1.86-.27-.49-.66-.89-1.16-1.18-.5-.3-1.12-.5-1.84-.62-.72-.12-1.53-.17-2.41-.17Z" style="fill:#333; stroke-width:0px;"/><path d="m385.05,492.18c0,2.3-.34,4.33-1.03,6.07-.69,1.75-1.62,3.21-2.81,4.38-1.19,1.18-2.61,2.06-4.25,2.66-1.64.59-3.41.89-5.3.89s-3.57-.3-5.2-.89c-1.63-.59-3.05-1.48-4.27-2.66-1.22-1.18-2.17-2.64-2.87-4.38s-1.05-3.77-1.05-6.07.36-4.33,1.09-6.07,1.7-3.21,2.93-4.4c1.23-1.19,2.65-2.08,4.27-2.68,1.62-.59,3.32-.89,5.1-.89s3.57.3,5.2.89,3.05,1.49,4.27,2.68c1.22,1.19,2.17,2.66,2.87,4.4.7,1.75,1.05,3.77,1.05,6.07Zm-20.52,0c0,1.32.16,2.51.49,3.57.32,1.06.79,1.97,1.4,2.74.61.76,1.35,1.35,2.23,1.76.88.41,1.89.62,3.03.62s2.11-.21,3.01-.62c.89-.41,1.64-1,2.25-1.76.61-.76,1.07-1.67,1.4-2.74.32-1.06.48-2.25.48-3.57s-.16-2.51-.48-3.59c-.32-1.07-.79-1.99-1.4-2.75-.61-.76-1.36-1.35-2.25-1.77-.89-.41-1.9-.62-3.01-.62s-2.15.21-3.03.64c-.88.43-1.62,1.02-2.23,1.79-.61.76-1.07,1.68-1.4,2.75-.32,1.07-.49,2.26-.49,3.55Z" style="fill:#333; stroke-width:0px;"/><path d="m408.05,500.45v5.2h-17.96v-26.88h6.05v21.69h11.91Z" style="fill:#333; stroke-width:0px;"/><path d="m411.93,478.76h6.05v26.88h-6.05v-26.88Z" style="fill:#333; stroke-width:0px;"/><path d="m436.45,506.19c-4.37,0-7.7-1.21-9.99-3.65-2.29-2.43-3.43-5.88-3.43-10.36,0-2.22.35-4.21,1.05-5.96s1.65-3.22,2.87-4.42c1.21-1.2,2.66-2.11,4.34-2.73,1.68-.62,3.5-.93,5.47-.93,1.14,0,2.17.08,3.1.25.93.17,1.75.36,2.44.58.7.22,1.28.45,1.75.68.47.23.8.41,1.01.54l-1.75,4.89c-.83-.44-1.79-.81-2.89-1.12s-2.35-.47-3.74-.47c-.93,0-1.84.16-2.74.47-.89.31-1.68.81-2.37,1.49-.69.69-1.24,1.57-1.65,2.66-.41,1.09-.62,2.41-.62,3.96,0,1.24.14,2.4.41,3.47.27,1.07.71,2,1.32,2.77.61.78,1.4,1.39,2.39,1.84.98.45,2.17.68,3.57.68.88,0,1.67-.05,2.37-.16.7-.1,1.32-.23,1.86-.37s1.02-.3,1.44-.49c.41-.18.79-.35,1.12-.5l1.67,4.85c-.85.52-2.06.98-3.61,1.4-1.55.41-3.35.62-5.39.62Z" style="fill:#333; stroke-width:0px;"/><path d="m460.1,489.79c1.09-1.83,2.12-3.66,3.11-5.49.98-1.83,1.89-3.68,2.72-5.53h6.67c-1.47,2.9-3,5.7-4.58,8.42-1.58,2.72-3.25,5.45-5,8.19v10.28h-6.05v-10.2c-1.76-2.74-3.43-5.48-5.02-8.22-1.59-2.74-3.12-5.56-4.6-8.46h7.02c.83,1.86,1.72,3.7,2.67,5.53.96,1.83,1.98,3.66,3.06,5.49Z" style="fill:#333; stroke-width:0px;"/></svg>