<?xml version="1.0" encoding="UTF-8"?><svg id="_圖層_2" xmlns="http://www.w3.org/2000/svg" viewBox="0 0 60 60"><defs><style>.cls-1{fill:none;}.cls-1,.cls-2{stroke-width:0px;}.cls-2{fill:red;}</style></defs><g id="_分離模式"><rect class="cls-1" width="60" height="60"/><g id="B96_Favorites_Hand_Like"><path class="cls-2" d="M54.7,35.6c0-2.4-2-4.4-4.5-4.4h-14c-.4,0-.9,0-1.1-.9,0-.8-.1-1.4-.1-1.6v-4.7c0-2.9-2.3-5.2-5.3-5.2h-2.3c-.7,0-1.3.6-1.3,1.3v8.8c0,.8-.3,2.4-.9,3.9-.8,1.9-1.4,2.3-1.6,2.3h-14.6c-.7,0-1.3.6-1.3,1.3s.6,1.3,1.3,1.3h7v18.5H1.5c-.7,0-1.3.6-1.3,1.3s.6,1.3,1.3,1.3h48.7c2.4,0,4.5-2,4.5-4.4s-.5-2.3-1.3-3.1c1.8-1.7,1.8-4.5,0-6.3,1.8-1.7,1.8-4.5,0-6.3.7-.8,1.3-1.9,1.3-3.1h0ZM18.5,37.5h3.8v18.7h-3.8v-18.7ZM24.9,56.2v-19.1c1-.5,1.8-1.7,2.6-3.4.7-1.7,1.2-3.7,1.2-5v-7.5h1.1c1.5,0,2.7,1.2,2.7,2.7,0,4.4-.1,5.4.1,6.6.1,2.7-.2,8.3-4,10.9-.6.4-.7,1.2-.3,1.7.4.6,1.2.7,1.7.3,3.5-2.5,4.7-6.6,5.1-9.9.3.1.7.2,1.2.2h.3c-.8,1.7-.4,3.7.9,5h-.1c-.07.13-.1.23-.1.3s-.03.13-.1.2-.1.13-.1.2c0,.07-.03.13-.1.2-.1,0,0,0-.1.2-.1.1,0,.1-.1.2h0v.2h0v.2h0v.2h0v.2h0v.2h0v.2h0v.2h0v1.8c.1,0,.2.2.2.2v.2c.1,0,.2.2.2.2v.2c.1,0,.2.2.2.2v.2c.2.2.4.5.7.7-1.7,1.7-1.8,4.5,0,6.3-1.4,1.3-1.7,3.4-.9,5l-12.3-.2h0ZM52.1,54.3c0,1-.8,1.9-1.9,1.9h-9.5c-1,0-1.9-.8-1.9-1.9s.8-1.9,1.9-1.9h9.5c1,0,1.9.9,1.9,1.9ZM52.1,48.1c0,1-.8,1.9-1.9,1.9h-9.5c-1,0-1.9-.8-1.9-1.9s.9-1.9,1.9-1.9h9.5c1,0,1.9.8,1.9,1.9ZM52.1,41.8c0,1-.8,1.9-1.9,1.9h-9.5c-1,0-1.9-.8-1.9-1.9s.8-1.9,1.9-1.9h9.5c1,0,1.9.9,1.9,1.9ZM40.7,37.5c-1,0-1.9-.8-1.9-1.9s.8-1.9,1.9-1.9h9.5c1,0,1.9.8,1.9,1.9s-.8,1.9-1.9,1.9h-9.5Z"/><path class="cls-2" d="M5.3,35c-.7,0-1.3.6-1.3,1.3s.6,1.3,1.3,1.3h.1c.7,0,1.3-.6,1.3-1.3s-.6-1.3-1.4-1.3h0Z"/><path class="cls-2" d="M3.3,23.4l3.9,2.8-1.5,4.6c-.3.8.3,1.6,1.2,1.6s.5-.1.7-.2l3.9-2.8,3.9,2.8c.4.3,1,.3,1.5,0,.4-.3.6-.9.5-1.4l-1.5-4.6,3.9-2.8c.4-.3.6-.9.5-1.4-.2-.5-.6-.9-1.2-.9h-4.9l-1.5-4.6c-.2-.5-.6-.9-1.2-.9s-1,.3-1.2.9l-1.5,4.6H3.9c-.5,0-1,.4-1.2.9s0,1.1.4,1.4h.2ZM9.8,23.6c.5,0,1-.3,1.2-.9l.6-1.8.6,1.8c.2.5.6.8,1.2.8h1.9l-1.5,1.1c-.4.3-.6.9-.5,1.4l.6,1.8-1.6-1c-.4-.3-1-.3-1.5,0l-1.5,1.1.6-1.8c.2-.5,0-1.1-.5-1.4l-1.5-1.1h1.9Z"/><path class="cls-2" d="M23.5,8l3.1,2.3-1.1,3.6c-.2.5,0,1.1.5,1.4.4.3,1,.3,1.5,0l3.1-2.3,3.1,2.3c.2.2.5.2.7.2.8,0,1.5-.8,1.2-1.6l-1.3-3.7,3.1-2.3c.4-.3.6-.9.5-1.4-.2-.5-.6-.9-1.2-.9h-3.8l-1.2-3.6c-.2-.5-.7-.8-1.2-.8s-1,.3-1.2.9l-1.2,3.6h-3.8c-.5,0-1,.4-1.2.9s0,1.1.4,1.4h0ZM29.1,8.2c.5,0,1-.3,1.2-.9l.3-.8.3.8c.2.5.6.9,1.2.9h.9l-.7.5c-.4.3-.6.9-.5,1.4l.3.8-.7-.5c-.4-.3-1-.3-1.5,0l-.7.5.3-.8c.2-.5,0-1.1-.5-1.4l-.8-.5h.9,0Z"/><path class="cls-2" d="M47.1,27.5c2.1,0,3.8-1.7,3.8-3.8s-1.7-3.8-3.8-3.8-3.8,1.7-3.8,3.8,1.7,3.8,3.8,3.8ZM47.1,22.5c.7,0,1.3.6,1.3,1.3s-.6,1.3-1.3,1.3-1.3-.7-1.3-1.4.6-1.2,1.3-1.2h0Z"/><path class="cls-2" d="M54.7,8.7c-2.8,0-5.1,2.2-5.1,5s2.2,5,5.1,5,5.1-2.2,5.1-5-2.3-5-5.1-5ZM54.7,16.2c-1.4,0-2.5-1.1-2.5-2.5s1.1-2.5,2.5-2.5,2.5,1.1,2.5,2.5-1.2,2.5-2.5,2.5Z"/><path class="cls-2" d="M12.9,51.2v-6.3c0-.7-.6-1.3-1.3-1.3s-1.2.7-1.2,1.4v6.2c0,.7.6,1.3,1.3,1.3s1.2-.6,1.2-1.3h0Z"/></g></g></svg>