<?xml version="1.0" encoding="UTF-8"?><svg id="_圖層_2" xmlns="http://www.w3.org/2000/svg" viewBox="0 0 60 60"><defs><style>.cls-1{fill:none;}.cls-1,.cls-2{stroke-width:0px;}.cls-2{fill:red;}</style></defs><g id="_分離模式"><rect class="cls-1" width="60" height="60"/><g id="B79_Chart_Graph_Internet_Web"><path class="cls-2" d="M58.72.35H1.28C.59.35,0,.94,0,1.63v56.74c0,.69.59,1.28,1.28,1.28h57.43c.69,0,1.28-.59,1.28-1.28V1.63c-.1-.69-.69-1.28-1.28-1.28ZM57.43,5.28h-24.97c-.69,0-1.28.59-1.28,1.28s.59,1.28,1.28,1.28h24.97v2.37H20.03V2.81h37.4s0,2.47,0,2.47ZM17.47,2.81v7.4H2.47V2.81h15ZM2.57,57.09V12.68h54.87v44.41H2.57Z"/><path class="cls-2" d="M28.82,7.75c.69,0,1.28-.59,1.28-1.28s-.59-1.28-1.28-1.28-1.28.59-1.28,1.28.59,1.28,1.28,1.28Z"/><path class="cls-2" d="M52.4,15.15H7.5c-.69,0-1.28.59-1.28,1.28v8.59c0,.69.59,1.28,1.28,1.28h44.9c.69,0,1.28-.59,1.28-1.28v-8.68c0-.59-.59-1.18-1.28-1.18ZM51.22,23.83H8.78v-6.22h42.43v6.22Z"/><path class="cls-2" d="M18.75,38.63h-5.03c-.69,0-1.28.59-1.28,1.28v7.4c0,.69.59,1.28,1.28,1.28h5.03c.69,0,1.28-.59,1.28-1.28v-7.5c-.1-.69-.69-1.18-1.28-1.18ZM17.47,46.04h-2.47v-4.93h2.47v4.93Z"/><path class="cls-2" d="M27.53,36.17h-5.03c-.69,0-1.28.59-1.28,1.28v9.87c0,.69.59,1.28,1.28,1.28h5.03c.69,0,1.28-.59,1.28-1.28v-9.87c0-.79-.59-1.28-1.28-1.28ZM26.25,46.04h-2.47v-7.4h2.47v7.4Z"/><path class="cls-2" d="M36.32,48.5c.69,0,1.28-.59,1.28-1.28v-13.52c0-.69-.59-1.28-1.28-1.28h-5.03c-.69,0-1.28.59-1.28,1.28v13.62c0,.69.59,1.28,1.28,1.28h5.03v-.1ZM32.47,34.88h2.47v11.15h-2.47v-11.15Z"/><path class="cls-2" d="M46.28,31.23c0-.69-.59-1.28-1.28-1.28h-5.03c-.69,0-1.28.59-1.28,1.28v16.09c0,.69.59,1.28,1.28,1.28h5.03c.69,0,1.28-.59,1.28-1.28v-16.09ZM43.72,46.04h-2.47v-13.62h2.47v13.62Z"/><path class="cls-2" d="M27.14,27.98c-.39-.49-1.18-.59-1.78-.2l-5.72,4.44-5.62-2.17c-.49-.2-.99,0-1.28.3l-5.03,4.93c-.49.49-.49,1.28,0,1.78s1.28.49,1.78,0l4.44-4.34,5.53,2.17c.39.2.89,0,1.18-.2l6.32-4.93c.59-.49.69-1.28.2-1.78h0Z"/><rect class="cls-2" x="5.03" y="5.28" width="2.47" height="2.47"/><rect class="cls-2" x="6.32" y="50.97" width="2.47" height="2.47"/><rect class="cls-2" x="11.35" y="50.97" width="2.47" height="2.47"/><rect class="cls-2" x="16.28" y="50.97" width="2.47" height="2.47"/><rect class="cls-2" x="21.32" y="50.97" width="2.47" height="2.47"/><rect class="cls-2" x="26.25" y="50.97" width="2.47" height="2.47"/><rect class="cls-2" x="31.28" y="50.97" width="2.47" height="2.47"/><rect class="cls-2" x="36.32" y="50.97" width="2.47" height="2.47"/><rect class="cls-2" x="41.25" y="50.97" width="2.47" height="2.47"/><rect class="cls-2" x="46.28" y="50.97" width="2.47" height="2.47"/><rect class="cls-2" x="51.22" y="50.97" width="2.47" height="2.47"/><rect class="cls-2" x="8.78" y="5.28" width="2.47" height="2.47"/><rect class="cls-2" x="12.53" y="5.28" width="2.47" height="2.47"/></g></g></svg>