<?xml version="1.0" encoding="UTF-8"?><svg id="_圖層_2" xmlns="http://www.w3.org/2000/svg" viewBox="0 0 60 60"><defs><style>.cls-1{fill:none;}.cls-1,.cls-2{stroke-width:0px;}.cls-2{fill:red;}</style></defs><g id="_分離模式"><rect class="cls-1" width="60" height="60"/><g id="B84_Files_Transfer_Document"><path class="cls-2" d="M21.51,31.35c3.49,0,6.49-2.9,6.49-6.39V7.59c0-.7-.6-1.3-1.3-1.3h-5.09V1.3c0-.7-.6-1.3-1.3-1.3H1.55C.85,0,.25.6.25,1.3v24.96c0,2.8,2.2,4.99,5.09,4.99h16.27l-.1.1ZM25.61,24.86c0,2.2-1.8,3.89-3.89,3.89h-11.88c.4-.7.7-1.6.7-2.5V8.89h15.17v15.97h-.1ZM2.85,26.36V2.6h16.37v3.79h-10.08c-.7,0-1.3.6-1.3,1.3v18.77c0,1.4-1.1,2.5-2.5,2.5s-2.4-1.3-2.4-2.6h-.1Z"/><path class="cls-2" d="M58.45,35.04h-5.09v-4.99c0-.7-.6-1.3-1.3-1.3h-18.87c-.7,0-1.3.6-1.3,1.3v24.96c0,2.8,2.2,4.99,5.09,4.99h16.27c3.49,0,6.49-2.9,6.49-6.39v-17.27c0-.7-.6-1.3-1.2-1.3h-.1ZM34.39,55.01v-23.66h16.47v3.69h-10.08c-.7,0-1.3.6-1.3,1.3v18.67c0,1.4-1.1,2.5-2.5,2.5s-2.5-1.1-2.5-2.5h-.1ZM57.05,53.61c0,2.2-1.8,3.89-3.89,3.89h-11.88c.4-.8.7-1.6.7-2.5v-17.47h15.17v16.07h-.1Z"/><path class="cls-2" d="M14.13,15.07h5.09c.7,0,1.3-.6,1.3-1.3s-.6-1.3-1.3-1.3h-5.09c-.7,0-1.3.6-1.3,1.3s.6,1.3,1.3,1.3Z"/><path class="cls-2" d="M12.93,17.57c0,.7.6,1.3,1.3,1.3h7.59c.7,0,1.3-.6,1.3-1.3s-.6-1.3-1.3-1.3h-7.69c-.7,0-1.2.6-1.2,1.3h0Z"/><path class="cls-2" d="M21.71,20.07h-7.59c-.7,0-1.3.6-1.3,1.3s.6,1.3,1.3,1.3h7.59c.7,0,1.3-.6,1.3-1.3s-.6-1.3-1.3-1.3Z"/><path class="cls-2" d="M45.77,43.83h5.09c.7,0,1.3-.6,1.3-1.3s-.6-1.3-1.3-1.3h-5.09c-.7,0-1.3.6-1.3,1.3s.6,1.3,1.3,1.3Z"/><path class="cls-2" d="M44.48,46.32c0,.7.6,1.3,1.3,1.3h7.59c.7,0,1.3-.6,1.3-1.3s-.6-1.3-1.3-1.3h-7.59c-.7,0-1.3.6-1.3,1.3Z"/><path class="cls-2" d="M53.36,48.82h-7.59c-.7,0-1.3.6-1.3,1.3s.6,1.3,1.3,1.3h7.59c.7,0,1.3-.6,1.3-1.3-.1-.8-.7-1.3-1.3-1.3Z"/><path class="cls-2" d="M47.87,17.97c-.5-.5-1.3-.5-1.8,0s-.5,1.3,0,1.8l2.5,2.5c.4.4,1,.5,1.5.2.13-.07,1.06-.97,2.8-2.7.5-.5.5-1.3,0-1.8s-1.3-.5-1.8,0l-.4.4v-5.69c0-.7-.6-1.3-1.3-1.3h-12.48c-.7,0-1.3.6-1.3,1.3s.6,1.3,1.3,1.3h11.38v4.49l-.4-.5Z"/><path class="cls-2" d="M55.86,8.89c.7,0,1.3-.6,1.3-1.3s-.6-1.3-1.3-1.3h-24.06c-.7,0-1.3.6-1.3,1.3s.6,1.3,1.3,1.3h24.06Z"/><path class="cls-2" d="M10.43,48.82h12.58c.7,0,1.3-.6,1.3-1.3s-.6-1.3-1.3-1.3h-11.38v-4.49l.4.4c.5.5,1.3.5,1.8,0s.5-1.3,0-1.8c-2.7-2.7-2.6-2.7-3.09-2.8h-.6c-.4.1-.3.1-3.09,2.8-.5.5-.5,1.3,0,1.8s1.3.5,1.8,0l.4-.4v5.69c-.1.8.5,1.4,1.2,1.4h0Z"/><path class="cls-2" d="M28.1,51.31H4.04c-.7,0-1.3.6-1.3,1.3s.6,1.3,1.3,1.3h24.06c.7,0,1.3-.6,1.3-1.3-.1-.8-.7-1.3-1.3-1.3Z"/><path class="cls-2" d="M34.99,22.56c.7,0,1.3-.6,1.3-1.3v-.6h.6c.7,0,1.3-.6,1.3-1.3s-.6-1.3-1.3-1.3h-.6v-.6c0-.7-.6-1.3-1.3-1.3s-1.3.6-1.3,1.3v.6h-.6c-.7,0-1.3.6-1.3,1.3s.6,1.3,1.3,1.3h.6v.6c.1.7.6,1.3,1.3,1.3Z"/><path class="cls-2" d="M24.91,42.53v-.6h.6c.7,0,1.3-.6,1.3-1.3s-.6-1.3-1.3-1.3h-.6v-.6c0-.7-.6-1.3-1.3-1.3s-1.3.6-1.3,1.3v.6h-.6c-.7,0-1.3.6-1.3,1.3s.6,1.3,1.3,1.3h.6v.6c0,.7.6,1.3,1.3,1.3s1.3-.6,1.3-1.3Z"/></g></g></svg>