<?xml version="1.0" encoding="UTF-8"?><svg id="_圖層_2" xmlns="http://www.w3.org/2000/svg" viewBox="0 0 60 60"><defs><style>.cls-1{fill:none;}.cls-1,.cls-2{stroke-width:0px;}.cls-2{fill:red;}</style></defs><g id="_分離模式"><rect class="cls-1" width="60" height="60"/><g id="B87_Gear_Setting_Dollar_Money"><path class="cls-2" d="M41.85,29.65c0-6.4-5.3-11.6-11.7-11.6s-11.7,5.2-11.7,11.6,5.3,11.6,11.7,11.6,11.7-5.2,11.7-11.6ZM29.95,38.85c-5.1,0-9.2-4.1-9.2-9.1s4.1-9.1,9.2-9.1,9.2,4.1,9.2,9.1c.1,5-4,9.1-9.2,9.1Z"/><path class="cls-2" d="M30.05,3.05c.7,0,1.2-.6,1.2-1.3s-.6-1.2-1.2-1.2C13.75.55.55,13.65.55,29.75v18.3c0,.7.6,1.3,1.3,1.3s1.3-.6,1.3-1.3v-18.3C3.05,15.05,15.15,3.05,30.05,3.05Z"/><path class="cls-2" d="M1.75,50.55c-.7,0-1.3.6-1.3,1.3s.6,1.3,1.3,1.3,1.3-.6,1.3-1.2h0c0-.8-.6-1.4-1.3-1.4h0Z"/><path class="cls-2" d="M58.25,9.75c-.7,0-1.3.6-1.3,1.3v19.2c0,14.7-12,26.6-26.9,26.6s-1.2.6-1.2,1.3.6,1.3,1.3,1.3c16.2,0,29.4-13.1,29.4-29.1V11.05c0-.7-.6-1.3-1.3-1.3Z"/><path class="cls-2" d="M59.15,8.15c.5-.5.5-1.3,0-1.8-.2-.2-.6-.4-.9-.4-.7,0-1.3.6-1.3,1.3s.1.6.4.9c.5.5,1.3.5,1.8,0Z"/><path class="cls-2" d="M33.55,53.35l1.3-5.9c1.5-.4,3-1,4.5-1.8l5.2,3.3c.5.3,1.1.2,1.6-.2l3.2-3.2c.4-.4.5-1.1.2-1.6l-3.3-5.1c.8-1.4,1.4-2.8,1.8-4.4l6-1.3c.6,0,1-.6,1-1.2v-4.5c0-.6-.4-1.1-1-1.2l-6-1.3c-.4-1.5-1-3-1.8-4.4l3.3-5.1c.3-.5.2-1.1-.2-1.6l-3.2-3.2c-.4-.4-1.1-.5-1.6-.2l-5.2,3.3c-1.4-.8-2.8-1.4-4.5-1.8l-1.3-5.9c-.1-.6-.6-1-1.2-1h-4.6c-.6,0-1.1.4-1.2,1l-1.3,5.9c-1.5.4-3,1-4.5,1.8l-5.3-3.2c-.5-.3-1.1-.2-1.6.2l-3.2,3.2c-.4.4-.5,1.1-.2,1.6l3.3,5.1c-.8,1.4-1.4,2.8-1.8,4.4l-5.9,1.2c-.6,0-1,.6-1,1.2v4.5c0,.6.4,1.1,1,1.2l6,1.3c.4,1.5,1,3,1.8,4.4l-3.3,5.1c-.3.5-.2,1.1.2,1.6l3.2,3.2c.4.4,1.1.5,1.6.2l5.2-3.3c1.4.8,2.8,1.4,4.5,1.8l1.3,5.9c.1.6.6,1,1.2,1h4.6c.6,0,1.1-.5,1.2-1ZM28.75,51.85l-1.3-5.7c-.1-.5-.5-.8-.9-.9-1.8-.4-3.5-1.1-5.1-2.1-.4-.3-.9-.3-1.3,0l-5.1,3.1-1.8-1.8,3.1-5c.3-.4.3-.9,0-1.3-1-1.5-1.7-3.2-2.1-5-.1-.5-.5-.8-.9-.9l-5.8-1.3v-2.5l5.8-1.3c.5,0,.8-.5.9-.9.4-1.8,1.1-3.5,2.1-5,.3-.4.3-.9,0-1.3l-3.1-5,1.7-1.7,5,3.1c.4.3.9.3,1.3,0,1.5-1,3.2-1.7,5.1-2.1.5-.1.8-.5.9-.9l1.3-5.7h2.5l1.3,5.7c.1.5.5.8.9.9,1.8.4,3.5,1.1,5.1,2.1.4.3.9.3,1.3,0l5.1-3.1,1.7,1.7-3.1,5c-.3.4-.3.9,0,1.3,1,1.6,1.7,3.3,2.1,5,.1.5.5.8.9.9l5.8,1.3v2.5l-5.6,1.2c-.5.1-.8.5-.9.9-.4,1.8-1.1,3.5-2.1,5-.3.4-.3.9,0,1.3l3.1,5-1.8,1.8-5.1-3.1c-.4-.3-.9-.3-1.3,0-1.5,1-3.2,1.7-5.1,2.1-.5.1-.8.5-.9.9l-1.3,5.7h-2.4v.1Z"/><path class="cls-2" d="M30.75,29.05c-1.3-.5-1.8-.8-1.8-1.3s.3-.9,1.3-.9,1.8.4,2.2.5l.4-1.7c-.5-.2-1.2-.5-2.2-.5v-1.3h-1.5v1.4c-1.6.3-2.6,1.4-2.6,2.7s1.1,2.3,2.8,2.8c1.1.4,1.6.8,1.6,1.3s-.6,1-1.5,1-1.9-.3-2.6-.7l-.5,1.9c.6.3,1.6.6,2.6.7v1.4h1.6v-1.5c1.8-.3,2.7-1.5,2.7-2.8.1-1.5-.7-2.4-2.5-3h0Z"/><rect class="cls-2" x="34.25" y="28.05" width="2.5" height="2.5"/><rect class="cls-2" x="22.85" y="28.05" width="2.5" height="2.5"/></g></g></svg>