<?xml version="1.0" encoding="UTF-8"?>
<svg id="_圖層_1" data-name=" 圖層 1" xmlns="http://www.w3.org/2000/svg" version="1.1" viewBox="0 0 16 16">
  <defs>
    <style>
      .cls-1 {
        fill: #fff;
        fill-rule: evenodd;
        stroke-width: 0px;
      }
    </style>
  </defs>
  <path class="cls-1" d="M15,8c0-3.9-3.1-7-7-7S1,4.1,1,8s3.1,7,7,7,7-3.1,7-7ZM16,8c0,4.4-3.6,8-8,8S0,12.4,0,8,3.6,0,8,0s8,3.6,8,8ZM8.5,10.3l2.1-2.1c.2-.2.5-.2.7,0s.2.5,0,.7l-3,3h0c-.2.2-.5.2-.7,0l-3-3c-.2-.2-.2-.5,0-.7s.5-.2.7,0l2.1,2.1v-5.8c0-.3.2-.5.5-.5s.5.2.5.5v5.8h.1Z"/>
</svg>