<?xml version="1.0" encoding="UTF-8"?>
<svg id="_圖層_1" data-name="圖層 1" xmlns="http://www.w3.org/2000/svg" version="1.1" viewBox="0 0 40 40">
  <defs>
    <style>
      .cls-1 {
        fill: #000;
        stroke-width: 0px;
      }
    </style>
  </defs>
  <path class="cls-1" d="M12.1,35.9c-.8,0-1.4-.3-1.9-.8-.5-.5-.8-1.2-.8-2s.3-1.4.8-2c.5-.5,1.2-.8,2-.8s1.4.3,2,.8c.5.5.8,1.2.8,2s-.3,1.4-.8,2c-.5.5-1.2.8-2,.8ZM28.2,35.9c-.8,0-1.4-.3-1.9-.8-.5-.5-.8-1.2-.8-2s.3-1.4.8-2c.5-.5,1.2-.8,2-.8s1.4.3,2,.8c.5.5.8,1.2.8,2,0,.8-.3,1.4-.8,2-.5.5-1.2.8-2,.8ZM9.8,9.2l4.5,9.4h11.5c0,0,.2,0,.3,0,0,0,.1-.1.2-.2l4.8-8.7c0-.1,0-.2,0-.3,0,0-.1-.1-.3-.1,0,0-21,0-21,0ZM8.8,7.1h23.1c.7,0,1.2.3,1.5.9.3.6.4,1.2,0,1.8l-5.2,9.4c-.3.5-.6.8-1.1,1.1-.4.3-.9.4-1.4.4h-12.3l-2.2,4c0,.1,0,.3,0,.4,0,.1.2.2.4.2h19.3v2.1H11.9c-1.1,0-1.9-.4-2.3-1.2-.5-.8-.5-1.7,0-2.6l2.6-4.7L5.9,5.8h-3.1v-2.1h4.5s1.6,3.3,1.6,3.3ZM14.3,18.6h11.8s-11.8,0-11.8,0Z"/>
</svg>