<?xml version="1.0" encoding="UTF-8"?>
<svg id="_圖層_1" data-name="圖層 1" xmlns="http://www.w3.org/2000/svg" version="1.1" viewBox="0 0 48 48">
  <defs>
    <style>
      .cls-1 {
        fill: #000;
        stroke-width: 0px;
      }
    </style>
  </defs>
  <path class="cls-1" d="M43.9,46l-6-6c-.7.6-1.5,1-2.3,1.2s-1.7.3-2.6.3c-2.4,0-4.4-.8-6-2.5-1.7-1.7-2.5-3.7-2.5-6s.8-4.4,2.5-6c1.7-1.7,3.7-2.5,6-2.5s4.4.8,6,2.5c1.7,1.7,2.5,3.7,2.5,6s-.1,1.7-.3,2.6c-.2.9-.6,1.6-1.2,2.3l6,6-2.1,2.1ZM33,38.5c1.5,0,2.8-.5,3.9-1.6,1.1-1.1,1.6-2.4,1.6-3.9s-.5-2.8-1.6-3.9c-1.1-1.1-2.4-1.6-3.9-1.6s-2.8.5-3.9,1.6-1.6,2.4-1.6,3.9.5,2.8,1.6,3.9,2.4,1.6,3.9,1.6ZM42,21.5h-3v-12.5h-3v4.5H12v-4.5h-3v30h12.5v3h-12.5c-.9,0-1.6-.3-2.2-.9-.6-.6-.9-1.3-.9-2.2V9c0-.9.3-1.6.9-2.2.6-.6,1.3-.9,2.2-.9h10.1c.2-1.2.8-2.1,1.7-2.9s2-1.1,3.2-1.1,2.3.4,3.2,1.1,1.5,1.7,1.7,2.9h10.1c.9,0,1.6.3,2.2.9s.9,1.3.9,2.2v12.5ZM24,9c.6,0,1-.2,1.4-.6.4-.4.6-.9.6-1.4s-.2-1-.6-1.4c-.4-.4-.9-.6-1.4-.6s-1,.2-1.4.6-.6.9-.6,1.4.2,1,.6,1.4.9.6,1.4.6Z"/>
</svg>