<?xml version="1.0" encoding="UTF-8"?><svg id="_圖層_2" xmlns="http://www.w3.org/2000/svg" viewBox="0 0 64.3 45.3"><defs><style>.cls-1{fill:#fff;stroke-width:0px;}</style></defs><g id="OBJECTS"><path class="cls-1" d="M36.3,36.3V15H2.4v21.3H0v3.9c0,2.8,2.3,5.1,5.1,5.1h28.4c2.8,0,5.1-2.3,5.1-5.1v-3.9h-2.4.1ZM4.7,17.4h29.2v18.9h-2.4v-16.6H7v16.6h-2.4v-18.9h.1ZM29.2,22.1v14.2H9.5v-14.2h19.7ZM36.3,40.3c0,1.5-1.2,2.8-2.8,2.8H5.1c-1.5,0-2.8-1.2-2.8-2.8v-1.6h15.8v2.4h2.4v-2.4h15.8v1.6Z"/><path class="cls-1" d="M50.5,20.8l.8,1.2c.9-.6,1.7-1.4,2.3-2.3l-1.2-.8c-.5.7-1.1,1.4-1.9,1.9h0Z"/><path class="cls-1" d="M46.1,21.6l-.3,1.4c.5.1,1.1.2,1.6.2s1.1,0,1.6-.2l-.3-1.4c-.9.2-1.8.2-2.6,0h0Z"/><path class="cls-1" d="M42.4,19l-1.2.8c.6.9,1.4,1.7,2.3,2.3l.8-1.2c-.7-.5-1.4-1.1-1.9-1.9h0Z"/><path class="cls-1" d="M41.5,15.9c0-.4,0-.9.1-1.3l-1.4-.3c-.1.5-.2,1.1-.2,1.6s0,1.1.2,1.6l1.4-.3c0-.4-.1-.9-.1-1.3h0Z"/><path class="cls-1" d="M41.1,11.9l1.2.8c.5-.7,1.1-1.4,1.9-1.9l-.8-1.2c-.9.6-1.7,1.4-2.3,2.3h0Z"/><path class="cls-1" d="M47,10l2.1,1.9-1.9,6.5,17.1-9.2L47.2,0l1.9,6.5-2.1,2c-.4,0-.9,0-1.3.2l.3,1.4c.3,0,.6-.1,1-.1h0ZM49.6,15.5l.9-3.2,7.7-1.5-8.6,4.6v.1ZM58.2,7.6l-7.7-1.5-.9-3.2,8.6,4.6v.1ZM50.2,7.6l8.7,1.7-8.7,1.7-1.8-1.7,1.8-1.7Z"/></g></svg>