<?xml version="1.0" encoding="UTF-8"?>
<svg id="_圖層_1" data-name="圖層 1" xmlns="http://www.w3.org/2000/svg" version="1.1" viewBox="0 0 48 48">
  <defs>
    <style>
      .cls-1 {
        fill: #000;
        stroke-width: 0px;
      }
    </style>
  </defs>
  <path class="cls-1" d="M2,40v-8c0-1,.3-1.8,1-2.5.7-.7,1.5-1,2.5-1h7.1c.6,0,1.1.1,1.6.4s1,.7,1.3,1.2c1,1.4,2.2,2.5,3.7,3.3s3.1,1.2,4.8,1.2,3.3-.4,4.8-1.2,2.8-1.9,3.8-3.3c.4-.5.8-.9,1.3-1.2s1-.4,1.6-.4h7.1c1,0,1.8.3,2.5,1s1,1.5,1,2.5v8h-13v-6c-1.2,1.1-2.6,2-4.1,2.6s-3.2.9-4.9.9-3.3-.3-4.9-.9-2.9-1.5-4.2-2.6v6H2ZM24,31.5c-1.2,0-2.3-.3-3.4-.8s-2-1.3-2.6-2.3c-.5-.8-1.2-1.4-1.9-1.9s-1.6-.8-2.4-1c1-1,2.5-1.8,4.6-2.3s4-.8,5.8-.8,3.7.3,5.8.8,3.6,1.3,4.6,2.3c-.9.2-1.7.5-2.4,1s-1.4,1.1-1.9,1.9c-.7,1-1.5,1.7-2.6,2.3s-2.2.8-3.4.8ZM8,25c-1.5,0-2.8-.5-3.9-1.6-1.1-1.1-1.6-2.4-1.6-3.9s.5-2.8,1.6-3.9c1.1-1.1,2.4-1.6,3.9-1.6s2.8.5,3.9,1.6c1.1,1.1,1.6,2.4,1.6,3.9s-.5,2.8-1.6,3.9c-1.1,1.1-2.4,1.6-3.9,1.6ZM40,25c-1.5,0-2.8-.5-3.9-1.6-1.1-1.1-1.6-2.4-1.6-3.9s.5-2.8,1.6-3.9,2.4-1.6,3.9-1.6,2.8.5,3.9,1.6,1.6,2.4,1.6,3.9-.5,2.8-1.6,3.9c-1.1,1.1-2.4,1.6-3.9,1.6ZM24,19c-1.5,0-2.8-.5-3.9-1.6s-1.6-2.4-1.6-3.9.5-2.8,1.6-3.9,2.4-1.6,3.9-1.6,2.8.5,3.9,1.6,1.6,2.4,1.6,3.9-.5,2.8-1.6,3.9-2.4,1.6-3.9,1.6Z"/>
</svg>