<?xml version="1.0" encoding="UTF-8"?>
<svg id="_圖層_1" data-name="圖層 1" xmlns="http://www.w3.org/2000/svg" version="1.1" viewBox="0 0 16 16">
  <defs>
    <style>
      .cls-1 {
        fill: #000;
        fill-rule: evenodd;
        stroke-width: 0px;
      }
    </style>
  </defs>
  <path class="cls-1" d="M8,0c-1.3,0-2.6.5-3.6,1.3-.8.7-1.3,1.5-1.5,2.4-1.7.4-2.9,1.8-2.9,3.6s1.7,3.7,3.8,3.7h3.7v-5.5c0-.3.2-.5.5-.5s.5.2.5.5v5.5h4.2c1.8,0,3.3-1.4,3.3-3.2s-1.2-3-2.8-3.2c-.2-2.6-2.5-4.6-5.2-4.6ZM7.6,15.9c.2.2.5.2.7,0,0,0,0,0,0,0l3-3c.2-.2.2-.5,0-.7s-.5-.2-.7,0l-2.1,2.1v-3.3h-1v3.3l-2.1-2.1c-.2-.2-.5-.2-.7,0s-.2.5,0,.7l3,3Z"/>
</svg>