<?xml version="1.0" encoding="UTF-8"?>
<svg id="_圖層_1" data-name="圖層 1" xmlns="http://www.w3.org/2000/svg" version="1.1" viewBox="0 0 16 16">
  <defs>
    <style>
      .cls-1 {
        fill: #000;
        stroke-width: 0px;
      }
    </style>
  </defs>
  <path class="cls-1" d="M0,8C0,3.6,3.6,0,8,0s8,3.6,8,8-3.6,8-8,8S0,12.4,0,8ZM7.5,1.1c-.7.2-1.3.8-1.9,1.9-.2.3-.3.7-.5,1.1h2.4s0-2.9,0-2.9ZM4.1,4c.2-.5.4-1,.6-1.5.2-.3.4-.6.6-.9-1.2.5-2.3,1.4-3.1,2.5h1.8ZM3.5,7.5c0-.9.1-1.7.3-2.5H1.7c-.4.8-.6,1.6-.7,2.5h2.5ZM4.8,5c-.2.8-.3,1.7-.3,2.5h3v-2.5h-2.7ZM8.5,5v2.5h3c0-.8-.1-1.7-.3-2.5h-2.7ZM4.5,8.5c0,.8.1,1.7.3,2.5h2.7v-2.5h-3ZM8.5,8.5v2.5h2.7c.2-.8.3-1.6.3-2.5h-3ZM5.1,12c.1.4.3.7.5,1.1.6,1,1.2,1.6,1.9,1.9v-2.9h-2.4ZM5.3,14.5c-.2-.3-.4-.6-.6-.9-.3-.5-.5-1-.6-1.5h-1.8c.8,1.1,1.8,2,3.1,2.5ZM3.8,11c-.2-.8-.3-1.7-.3-2.5H1c0,.9.3,1.7.7,2.5h2.1ZM10.7,14.5c1.2-.5,2.3-1.4,3.1-2.5h-1.8c-.2.5-.4,1-.6,1.5-.2.3-.4.6-.6.9ZM8.5,12v2.9c.7-.2,1.3-.8,1.9-1.9.2-.3.3-.7.5-1.1,0,0-2.4,0-2.4,0ZM12.2,11h2.1c.4-.8.6-1.6.7-2.5h-2.5c0,.8-.1,1.7-.3,2.5ZM15,7.5c0-.9-.3-1.7-.7-2.5h-2.1c.2.8.3,1.6.3,2.5h2.5ZM11.3,2.5c.2.5.5,1,.6,1.5h1.8c-.8-1.1-1.8-2-3.1-2.5.2.3.4.6.6.9ZM10.9,4c-.1-.4-.3-.7-.5-1.1-.6-1-1.2-1.7-1.9-1.9v2.9h2.4Z"/>
</svg>