<?xml version="1.0" encoding="UTF-8"?><svg id="_圖層_2" xmlns="http://www.w3.org/2000/svg" viewBox="0 0 576.22 275.8"><defs><style>.cls-1{fill:#e71f19;stroke-width:0px;}</style></defs><g id="_圖層_2-2"><path class="cls-1" d="M141.26,120.16h-2.38c-.78,0-1.43.6-1.5,1.38-.51,6.48-1.31,8.55-1.69,9.14-.86,1.18-2.95,1.8-6.04,1.8h-15.5v-27.86c0-1.86.29-2.75.53-3.17,0-.01.01-.02.02-.03.1-.18.59-.36,1.48-.36h16.27c5.92,0,8.22,1.02,9.14,1.9.95.88,2.27,3.36,3.16,10.15.1.75.73,1.31,1.49,1.31h1.97c.4,0,.79-.16,1.07-.45.28-.29.44-.68.43-1.08l-.41-17.27c-.02-.81-.69-1.46-1.5-1.46h-50.16c-.83,0-1.5.67-1.5,1.5v2.3c0,.76.57,1.41,1.33,1.49,3.97.44,5.43,1.21,5.96,1.66.84.94,1.83,3.23,1.83,8.83v54.69c0,6.49-.92,8.72-1.42,9.42-1.06,1.3-3.2,2.16-6.39,2.57-.75.1-1.31.73-1.31,1.49v2.3c0,.83.67,1.5,1.5,1.5h24.56c.83,0,1.5-.67,1.5-1.5v-2.3c0-.77-.58-1.41-1.34-1.49-4-.43-5.6-1.3-6.22-1.95-.9-.96-1.98-3.19-1.98-8.41v-26.48h15.5c4.08,0,5.38.82,5.74,1.24.48.65,1.39,2.74,1.99,9.48.07.77.72,1.37,1.49,1.37h2.38c.83,0,1.5-.67,1.5-1.5v-28.67c0-.83-.67-1.5-1.5-1.5Z"/><path class="cls-1" d="M198.69,176.61c-1.39-.24-2.36-.7-2.88-1.37-.69-.97-1.83-3.28-3.38-8.83l-19.69-72.66c-.18-.65-.77-1.11-1.45-1.11h-.62c-.68,0-1.28.46-1.45,1.13l-16.27,63.22c-3.13,12.23-4.65,16.47-5.37,17.88-.56,1.08-.93,1.23-.95,1.24-.57.21-1.12.39-1.64.54-.65.18-1.1.77-1.1,1.44v2.3c0,.83.67,1.5,1.5,1.5h14.61c.83,0,1.5-.67,1.5-1.5v-2.3c0-.77-.59-1.42-1.35-1.49-1.87-.18-2.35-.54-2.4-.58-.04-.04-.09-.07-.14-.1-.89-.58-1.08-2.27-1.08-3.58,0-1.42.2-3.01.58-4.72l3.15-13.47h19.01l2.81,10.29c.93,3.47,1.4,6.13,1.4,7.9,0,2.71-1.08,3.33-1.45,3.55-.25.15-1.09.52-3.48.71-.78.06-1.38.71-1.38,1.5v2.3c0,.83.67,1.5,1.5,1.5h19.79c.83,0,1.5-.67,1.5-1.5v-2.3c0-.73-.53-1.35-1.25-1.48ZM177.33,146.88h-15.41l7.62-30.2,7.79,30.2Z"/><path class="cls-1" d="M234.38,94.26h-29.53c-.83,0-1.5.67-1.5,1.5v2.3c0,.79.61,1.44,1.4,1.5,6.94.48,8.63,1.59,9.02,2.01.56.66,1.51,2.7,1.51,8.93v55.27c0,6.05-.96,8.14-1.48,8.78-.58.64-2.52,1.76-9,2.04-.8.03-1.44.69-1.44,1.5v2.3c0,.83.67,1.5,1.5,1.5h29.53c.83,0,1.5-.67,1.5-1.5v-2.3c0-.79-.62-1.45-1.41-1.5-6.18-.37-8.21-1.54-8.82-2.15-.77-.86-1.69-3.05-1.69-8.67v-55.27c0-6.09.9-8.18,1.47-8.88.67-.63,2.73-1.69,9.04-2.05.79-.05,1.41-.7,1.41-1.5v-2.3c0-.83-.67-1.5-1.5-1.5Z"/><path class="cls-1" d="M294.16,176.6c-3.16-.46-5.15-1.69-6.11-3.75l-15.11-32.92c11.15-3.22,16.8-10.64,16.8-22.07,0-9.17-3.01-15.82-8.97-19.79-3.96-2.61-9.05-3.93-15.13-3.93h-24.77c-.83,0-1.5.67-1.5,1.5v2.3c0,.75.55,1.38,1.29,1.49,2.87.4,4.79,1.27,5.71,2.59.64.93,1.4,3.23,1.4,8.94v52.74c0,6.25-.69,8.82-1.26,9.85-.93,1.63-2.89,2.66-5.84,3.05-.75.1-1.3.73-1.3,1.49v2.3c0,.83.67,1.5,1.5,1.5h24.15c.83,0,1.5-.67,1.5-1.5v-2.3c0-.77-.58-1.41-1.35-1.49-3.24-.33-5.38-1.27-6.39-2.83-1.12-1.57-1.69-4.42-1.69-8.46v-23.22l5.73-.32,17.3,39.23c.24.54.78.89,1.37.89h12.44c.83,0,1.5-.67,1.5-1.5v-2.3c0-.74-.55-1.38-1.28-1.48ZM257.1,105.08c0-2.38.55-3.17.84-3.4.07-.04.74-.44,3.99-.63.61-.04,1.21-.07,1.8-.07,3.25,0,6.18.66,8.74,2,5.14,2.44,7.64,7.23,7.64,14.65s-2.89,12.6-8.85,15.21c-3.02,1.34-7.78,2.1-14.16,2.26v-30.02Z"/><path class="cls-1" d="M360.88,138.88s-.06-.05-.09-.08c-5.67-4.53-11.3-9.02-16.85-13.44-5.63-4.82-8.49-9.78-8.49-14.75,0-3.83,1.24-6.86,3.75-9.24,2.15-1.91,4.47-2.85,7.09-2.85,4.56,0,8.33,2.2,11.51,6.73,2.69,3.87,4.6,8.9,5.66,14.95.13.72.75,1.24,1.48,1.24h2.49c.42,0,.82-.18,1.11-.49.28-.31.42-.72.39-1.14l-2.28-26.25c-.07-.77-.72-1.37-1.49-1.37h-2.28c-.74,0-1.37.54-1.48,1.28-.13.89-.3,1.79-.49,2.62-.06.24-.12.47-.87.48-.25-.05-1.28-.35-5.16-2.06-3.54-1.56-6.52-2.31-9.1-2.31-5.32,0-9.84,1.98-13.43,5.89-3.91,4.18-5.9,9.91-5.9,17.03,0,5.88,1.84,10.91,5.41,14.88,1.41,1.73,5.39,5.01,12.18,10.04,7.16,5.41,12.01,9.87,14.39,13.25,2.02,2.88,3.04,6.19,3.04,9.85,0,3.39-1.32,6.45-4.06,9.35-2.7,2.93-5.86,4.35-9.67,4.35-8.91,0-15.08-7.05-18.86-21.56-.17-.66-.77-1.12-1.45-1.12h-2.49c-.43,0-.84.18-1.12.5-.29.32-.42.75-.37,1.17l3.11,26.14c.09.75.73,1.32,1.49,1.32h2.28c.77,0,1.42-.59,1.49-1.36.25-2.55,1.32-2.9,2.41-2.91.14.01,1,.17,4.75,1.91,3.24,1.63,6.5,2.46,9.69,2.46,7.21,0,13.01-2.67,17.26-7.96,3.5-4.62,5.28-10.08,5.28-16.29-.36-7.35-3.83-14.17-10.32-20.25Z"/><path class="cls-1" d="M478.59,94.26h-16.79c-.83,0-1.5.67-1.5,1.5v2.3c0,.76.57,1.4,1.32,1.49,3.32.4,4.63,1.29,5.14,1.98.75,1.29,1.62,4.51,1.62,12.54v40.05l-31.48-59.07c-.26-.49-.77-.79-1.32-.79h-8.56c-.26-.22-.59-.35-.96-.35h-16.79c-.83,0-1.5.67-1.5,1.5v2.3c0,.75.56,1.39,1.31,1.49,2.89.38,4.52,1.94,5.16,4.94.08.37.27,2.1.27,10.26v34.54c0,8.53-.59,14.39-1.77,17.43-2.61,6.94-6.39,10.31-11.55,10.31-9.03,0-13.42-8.55-13.42-26.13v-40.88c0-5.83.69-7.76,1.08-8.35.49-.7,1.83-1.64,5.4-2.14.74-.1,1.29-.74,1.29-1.49v-2.3c0-.83-.67-1.5-1.5-1.5h-21.04c-.83,0-1.5.67-1.5,1.5v2.3c0,.76.56,1.4,1.32,1.49,3.33.41,4.2,1.92,4.57,3.03.13.38.44,1.87.44,7.46v39.84c0,22.46,7.13,33.86,21.19,33.86,9.44,0,15.88-4.8,19.14-14.25,1.7-4.97,2.57-12.15,2.57-21.33v-33.39c0-7.89.76-11.07,1.43-12.42.45-1.05,1.49-1.88,3.1-2.46.09.02.18.03.28.03.61,0,1.41.64,2.23,1.81.21.42.71,1.45,1.86,3.93v55.17c0,7.04-.16,9.45-.29,10.26-.78,5.27-3.26,5.73-4.07,5.88-.71.13-1.23.75-1.23,1.48v2.3c0,.83.67,1.5,1.5,1.5h16.89c.83,0,1.5-.67,1.5-1.5v-2.3c0-.76-.56-1.4-1.32-1.49-2.59-.32-4.28-1.36-5.15-3.19-.69-1.43-1.51-4.84-1.51-12.94v-46.15l35.62,67.92c.26.49.77.8,1.33.8h.21c.83,0,1.5-.67,1.5-1.5v-67.47c0-8.61.56-11.77,1.02-12.89.13-.3.7-1.07,3.29-1.65.69-.15,1.17-.76,1.17-1.46v-2.3c0-.83-.67-1.5-1.5-1.5Z"/><path class="cls-1" d="M288.11,257.52c-71.27,0-138.3-12.31-188.75-34.67-50.9-22.56-78.93-52.73-78.93-84.95s28.03-62.39,78.93-84.95c50.45-22.36,117.48-34.67,188.75-34.67s138.3,12.31,188.75,34.67c50.9,22.56,78.93,52.73,78.93,84.95s-28.03,62.39-78.93,84.95c-50.45,22.36-117.48,34.67-188.75,34.67ZM288.11,21.78C142.44,21.78,23.94,73.87,23.94,137.9s118.51,116.12,264.17,116.12,264.17-52.09,264.17-116.12S433.78,21.78,288.11,21.78Z"/><path class="cls-1" d="M288.11,275.8c-76.53,0-148.53-14.1-202.74-39.7C30.32,210.1,0,175.23,0,137.9S30.32,65.7,85.37,39.7C139.58,14.1,211.58,0,288.11,0s148.53,14.1,202.75,39.7c55.05,26,85.37,60.87,85.37,98.2s-30.32,72.2-85.37,98.2c-54.21,25.6-126.22,39.7-202.75,39.7ZM288.11,7c-75.52,0-146.46,13.86-199.76,39.03C35.89,70.8,7,103.43,7,137.9s28.89,67.1,81.35,91.87c53.3,25.17,124.24,39.03,199.76,39.03s146.46-13.86,199.76-39.03c52.46-24.77,81.36-57.4,81.36-91.87s-28.89-67.1-81.36-91.87c-53.3-25.17-124.24-39.03-199.76-39.03Z"/></g></svg>