<?xml version="1.0" encoding="UTF-8"?>
<svg id="_圖層_1" data-name="圖層 1" xmlns="http://www.w3.org/2000/svg" version="1.1" viewBox="0 0 48 48">
  <defs>
    <style>
      .cls-1 {
        fill: #000;
        stroke-width: 0px;
      }
    </style>
  </defs>
  <path class="cls-1" d="M22.6,41.9c-4.1-.3-7.6-2-10.4-5.1-2.8-3-4.2-6.6-4.2-10.8s.6-5,1.8-7.3,2.8-4.1,5-5.6l2.2,2.2c-1.9,1.1-3.3,2.6-4.4,4.5-1,1.9-1.6,4-1.6,6.1,0,3.3,1.1,6.2,3.3,8.7,2.2,2.4,5,3.8,8.3,4.2v3ZM25.6,41.9v-3c3.3-.4,6.1-1.8,8.3-4.2,2.2-2.4,3.3-5.3,3.3-8.6s-1.3-6.7-3.8-9.2-5.6-3.8-9.2-3.8h-1l3,3-2.2,2.2-6.7-6.7,6.7-6.7,2.2,2.2-3,3h1c4.5,0,8.3,1.6,11.4,4.7s4.7,6.9,4.7,11.3-1.4,7.8-4.2,10.8c-2.8,3-6.2,4.7-10.3,5.1Z"/>
</svg>