<?xml version="1.0" encoding="UTF-8"?>
<svg id="_圖層_1" data-name="圖層 1" xmlns="http://www.w3.org/2000/svg" version="1.1" viewBox="0 0 16 16">
  <defs>
    <style>
      .cls-1 {
        fill: #000;
        stroke-width: 0px;
      }
    </style>
  </defs>
  <path class="cls-1" d="M11.7,10.3c2.1-2.9,1.5-7-1.4-9.1C7.4-.9,3.4-.2,1.3,2.7-.9,5.6-.2,9.6,2.7,11.7c2.3,1.7,5.4,1.7,7.7,0h0s0,0,0,.1l3.8,3.8c.4.4,1,.4,1.4,0s.4-1,0-1.4l-3.8-3.9s0,0-.1-.1h0ZM12,6.5c0,3-2.5,5.5-5.5,5.5S1,9.5,1,6.5,3.5,1,6.5,1s5.5,2.5,5.5,5.5Z"/>
</svg>