<?xml version="1.0" encoding="UTF-8"?>
<svg id="_圖層_1" data-name="圖層 1" xmlns="http://www.w3.org/2000/svg" version="1.1" viewBox="0 0 16 16">
  <defs>
    <style>
      .cls-1 {
        fill: #666;
        stroke-width: 0px;
      }
    </style>
  </defs>
  <path class="cls-1" d="M5.5,5.5c.3,0,.5.2.5.5v6c0,.3-.2.5-.5.5s-.5-.2-.5-.5v-6c0-.3.2-.5.5-.5ZM8,5.5c.3,0,.5.2.5.5v6c0,.3-.2.5-.5.5s-.5-.2-.5-.5v-6c0-.3.2-.5.5-.5ZM11,6c0-.3-.2-.5-.5-.5s-.5.2-.5.5v6c0,.3.2.5.5.5s.5-.2.5-.5v-6Z"/>
  <path class="cls-1" d="M14.5,3c0,.6-.4,1-1,1h-.5v9c0,1.1-.9,2-2,2h-6c-1.1,0-2-.9-2-2V4h-.5c-.6,0-1-.4-1-1v-1c0-.6.4-1,1-1h3.5c0-.6.4-1,1-1h2c.6,0,1,.4,1,1h3.5c.6,0,1,.4,1,1v1ZM4.1,4h-.1v9c0,.6.4,1,1,1h6c.6,0,1-.4,1-1V4.1h-.1c0,0-7.8,0-7.8,0ZM2.5,3h11v-1H2.5v1Z"/>
</svg>